<svg width="369" height="323" viewBox="0 0 369 323" fill="none" xmlns="http://www.w3.org/2000/svg">
<path d="M66.3123 262.136V237.398H0V214.011L47.9153 112.459H76.4982L28.5829 214.011H66.3123V175.033H91.6731V214.011H105.705V237.398H91.6731V262.136H66.3123Z" fill="#0B0B1D"/>
<path d="M184.468 323C173.867 323 164.512 320.748 156.405 316.244C148.298 311.67 141.958 305.33 137.385 297.222C132.881 289.115 130.629 279.76 130.629 269.158V220.929C130.629 210.327 132.881 200.972 137.385 192.864C141.958 184.757 148.298 178.451 156.405 173.947C164.512 169.374 173.867 167.087 184.468 167.087C195.07 167.087 204.39 169.374 212.428 173.947C220.535 178.451 226.875 184.757 231.448 192.864C236.021 200.972 238.308 210.327 238.308 220.929V269.158C238.308 279.76 236.021 289.115 231.448 297.222C226.875 305.33 220.535 311.67 212.428 316.244C204.39 320.748 195.07 323 184.468 323ZM184.468 299.197C189.735 299.197 194.516 297.95 198.812 295.455C203.108 292.891 206.503 289.496 208.998 285.269C211.492 280.973 212.739 276.191 212.739 270.925V219.058C212.739 213.722 211.492 208.941 208.998 204.714C206.503 200.418 203.108 197.022 198.812 194.527C194.516 191.964 189.735 190.682 184.468 190.682C179.202 190.682 174.421 191.964 170.125 194.527C165.829 197.022 162.434 200.418 159.939 204.714C157.445 208.941 156.197 213.722 156.197 219.058V270.925C156.197 276.191 157.445 280.973 159.939 285.269C162.434 289.496 165.829 292.891 170.125 295.455C174.421 297.95 179.202 299.197 184.468 299.197Z" fill="#FF8640"/>
<path d="M329.608 204.39V179.652H263.295V156.265L311.211 54.7139H339.793L291.878 156.265H329.608V117.287H354.968V156.265H369V179.652H354.968V204.39H329.608Z" fill="#00B7AB"/>
<rect x="95.6953" y="1" width="159.68" height="148.292" rx="9" stroke="#FF8640" stroke-width="2"/>
<rect x="94.6953" y="28.9023" width="161.68" height="2.31218" fill="#FF8640"/>
<path d="M154.746 111.562H176.688M176.688 111.562H192.856C192.856 111.562 192.856 117.921 192.856 122.545C192.856 127.17 188.516 129.788 184.195 129.482C180.215 129.2 176.688 126.014 176.688 122.545C176.688 119.077 176.688 111.562 176.688 111.562Z" stroke="#FF8640" stroke-width="2"/>
<path d="M146.66 88.4414L157.631 99.4243" stroke="#FF8640" stroke-width="2"/>
<path d="M157.633 88.4414L146.662 99.4243" stroke="#FF8640" stroke-width="2"/>
<path d="M190.547 88.4414L201.518 99.4243" stroke="#FF8640" stroke-width="2"/>
<path d="M201.52 88.4414L190.548 99.4243" stroke="#FF8640" stroke-width="2"/>
<ellipse cx="112.015" cy="15.0288" rx="3.46458" ry="3.46827" fill="#FF8640"/>
<ellipse cx="128.187" cy="15.0288" rx="3.46458" ry="3.46827" fill="#FF8640"/>
<ellipse cx="144.355" cy="15.0288" rx="3.46458" ry="3.46827" fill="#FF8640"/>
</svg>
