<svg width="1440" height="900" viewBox="0 0 1440 900" fill="none" xmlns="http://www.w3.org/2000/svg">
<path d="M21.9889 0C14.3635 11.8492 7.03047 23.905 0 36.1573V0L21.9889 0Z" fill="#FFF3D2"/>
<path d="M158.942 0C60.326 123.264 1.33877 279.73 1.33877 450C1.33877 620.27 60.326 776.736 158.942 900H195.063C91.6315 778.998 29.1544 621.81 29.1544 450C29.1544 278.19 91.6315 121.002 195.063 0L158.942 0Z" fill="#FFF3D2"/>
<path d="M353.664 0C223.514 106.476 140.417 268.515 140.417 450C140.417 631.485 223.514 793.524 353.664 900H399.444C259.469 799.742 168.232 635.547 168.232 450C168.232 264.453 259.469 100.258 399.444 0H353.664Z" fill="#FFF3D2"/>
<path d="M1040.37 0L1086.15 0C1216.3 106.476 1299.4 268.515 1299.4 450C1299.4 631.485 1216.3 793.524 1086.15 900H1040.37C1180.35 799.742 1271.58 635.547 1271.58 450C1271.58 264.453 1180.35 100.258 1040.37 0Z" fill="#FFF3D2"/>
<path d="M557.319 0C373.648 66.6396 242.407 242.963 242.407 450C242.407 657.037 373.648 833.36 557.319 900H696.879C459.226 887.988 270.223 691.11 270.223 450C270.223 208.89 459.226 12.0121 696.878 0L557.319 0Z" fill="#FFF3D2"/>
<path d="M742.937 0L882.497 0C1066.17 66.6396 1197.41 242.963 1197.41 450C1197.41 657.037 1066.17 833.36 882.497 900H742.937C980.59 887.988 1169.59 691.11 1169.59 450C1169.59 208.89 980.59 12.0121 742.937 0Z" fill="#FFF3D2"/>
<path d="M1244.75 900C1348.18 778.998 1410.66 621.81 1410.66 450C1410.66 278.19 1348.18 121.002 1244.75 0L1280.87 0C1379.49 123.264 1438.48 279.73 1438.48 450C1438.48 620.27 1379.49 776.736 1280.87 900H1244.75Z" fill="#FFF3D2"/>
<path d="M1440 900V863.522C1432.91 875.884 1425.52 888.047 1417.83 900H1440Z" fill="#FFF3D2"/>
<path d="M1440 36.4784V0L1417.83 0C1425.52 11.9526 1432.91 24.1156 1440 36.4784Z" fill="#FFF3D2"/>
<path d="M21.9889 900C14.3635 888.151 7.03047 876.095 0 863.843V900H21.9889Z" fill="#FFF3D2"/>
<path fill-rule="evenodd" clip-rule="evenodd" d="M1058.33 450C1058.33 637.278 906.814 789.097 719.908 789.097C533.002 789.097 381.485 637.278 381.485 450C381.485 262.722 533.002 110.903 719.908 110.903C906.814 110.903 1058.33 262.722 1058.33 450ZM1030.52 450C1030.52 621.885 891.452 761.226 719.908 761.226C548.364 761.226 409.301 621.885 409.301 450C409.301 278.115 548.364 138.774 719.908 138.774C891.452 138.774 1030.52 278.115 1030.52 450Z" fill="#FFF3D2"/>
</svg>
