<svg width="23" height="24" viewBox="0 0 23 24" fill="none" xmlns="http://www.w3.org/2000/svg">
<path opacity="0.9" d="M22.4739 9.97692L17.5736 15.3552L18.7299 22.9576C18.7771 23.2942 18.6591 23.6221 18.4152 23.8259C18.2815 23.9411 18.1163 23.9942 17.9512 23.9942C17.8253 23.9942 17.6995 23.9588 17.5815 23.8968L11.5249 20.3083L5.46829 23.8968C5.20086 24.0563 4.88623 24.0297 4.6424 23.8259C4.39856 23.6309 4.28057 23.2942 4.32777 22.9576L5.48403 15.3552L0.591562 9.97692C0.379188 9.73769 0.300531 9.39213 0.39492 9.07315C0.489308 8.75417 0.733145 8.51494 1.03204 8.47064L7.80441 7.36307L10.8327 0.451885C11.1001 -0.150628 11.9811 -0.150628 12.2407 0.451885L15.269 7.36307L22.0413 8.47064C22.3402 8.5238 22.5841 8.75417 22.6784 9.07315C22.7728 9.39213 22.6942 9.73769 22.4739 9.97692Z" fill="#70758F" fill-opacity="0.3"/>
</svg>
