<svg xmlns="http://www.w3.org/2000/svg" width="401" height="12" viewBox="0 0 401 12" fill="none">
    <path
        d="M8.55073 5.83831C11.6903 5.83831 14.9794 5.77873 18.119 5.71916C19.4646 5.71916 20.6606 5.65958 22.0061 5.65958C27.6873 5.54043 33.3685 5.42128 39.0496 5.30214C45.9269 5.18299 52.6545 5.00426 59.5318 4.88512C69.2495 4.64682 78.9673 4.46809 88.6851 4.22979C90.9277 4.17022 93.1703 4.17022 95.4128 4.11064C101.094 3.9915 106.775 3.87235 112.456 3.81277C118.138 3.69362 123.819 3.57447 129.5 3.5149C131.742 3.45532 133.985 3.39575 136.228 3.39575C145.198 3.2766 154.318 3.15745 163.288 3.0383C168.82 2.97873 174.351 2.91916 180.032 2.80001C182.275 2.80001 184.368 2.74043 186.611 2.74043C195.282 2.68085 204.103 2.62128 212.774 2.56171C221.445 2.50213 229.967 2.44256 238.638 2.38298C240.881 2.38298 243.123 2.38298 245.515 2.38298C251.197 2.38298 256.728 2.38298 262.409 2.38298C271.23 2.38298 279.901 2.38298 288.722 2.32341C291.563 2.32341 294.403 2.32341 297.244 2.32341C303.224 2.32341 309.204 2.32341 315.184 2.32341C315.633 2.32341 316.231 2.32341 316.679 2.32341C303.224 2.38298 289.619 2.44256 276.164 2.56171C270.483 2.62128 264.951 2.62128 259.27 2.68085C256.878 2.68085 254.336 2.68085 251.944 2.74043C243.721 2.8 235.648 2.91915 227.425 2.97873C218.007 3.09788 208.588 3.15745 199.169 3.2766C197.524 3.2766 196.029 3.33617 194.385 3.33617C189.302 3.45532 184.368 3.5149 179.285 3.63405C169.119 3.81277 158.952 3.99149 148.786 4.17022C147.291 4.17022 145.796 4.2298 144.301 4.28937C139.367 4.40852 134.284 4.58724 129.35 4.70639C120.38 4.94469 111.559 5.18298 102.589 5.42128C100.197 5.48086 97.6554 5.60001 95.2633 5.65958C89.5822 5.83831 83.901 6.01703 78.2198 6.25533C71.0436 6.49363 63.7179 6.73193 56.5417 6.97022C46.5249 7.32767 36.3586 7.68512 26.3418 8.04256C23.9497 8.10214 21.5576 8.22129 19.016 8.28086C14.6804 8.45959 10.3448 8.63831 6.00915 8.81703C5.56064 8.81703 5.11213 8.93618 5.11213 9.17448C5.11213 9.3532 5.56064 9.53193 6.00915 9.53193C7.6537 9.53193 9.14875 9.5915 10.7933 9.5915C10.6438 9.77022 10.4943 9.94895 10.4943 10.1277C10.4943 10.783 11.8398 11.3787 13.6339 11.3787C26.0428 11.0809 38.3021 10.7234 50.711 10.4851C61.4753 10.3064 72.2396 10.0681 83.004 9.88937C94.8148 9.65108 106.775 9.41278 118.586 9.23406C122.324 9.17448 126.061 9.1149 129.799 8.99576C130.845 8.99576 131.892 8.93618 133.088 8.93618C152.225 8.75746 171.361 8.51916 190.498 8.34044C200.664 8.22129 210.98 8.10214 221.146 8.04256C224.884 7.98299 228.472 7.98299 232.209 7.92342C251.795 7.80427 271.38 7.68512 290.965 7.56597C299.337 7.5064 307.709 7.44682 316.081 7.38724C323.258 7.32767 330.434 7.32767 337.61 7.20852C343.59 7.14894 349.421 7.0298 355.401 6.97022C358.391 6.91065 361.381 6.91065 364.222 6.85107C370.95 6.67235 377.677 6.49362 384.405 6.3149C383.956 6.5532 383.957 6.91065 384.106 7.14895C384.256 7.44682 384.704 7.68512 385.452 7.80426C386.05 7.92341 386.947 8.04257 387.545 7.92342C389.04 7.68512 390.535 7.44682 391.88 7.20852C391.88 7.20852 391.88 7.20852 391.731 7.20852C391.88 7.20852 391.88 7.14895 392.03 7.14895C392.179 7.14895 392.329 7.08937 392.329 7.08937H392.179C392.927 6.97022 393.674 6.85108 394.571 6.67235C395.319 6.5532 396.216 6.37448 396.963 6.25533C397.86 6.0766 398.608 5.89788 399.505 5.71916C400.402 5.54043 401 5.06384 401 4.64682C401 4.40852 400.851 4.2298 400.552 3.9915C400.253 3.7532 399.505 3.45533 398.757 3.39575C398.01 3.33618 397.262 3.2766 396.515 3.2766C396.365 3.2766 396.216 3.2766 396.066 3.2766C395.618 3.2766 395.02 3.2766 394.571 3.33617C393.375 3.39575 392.329 3.45533 391.133 3.45533C390.236 3.45533 389.339 3.5149 388.292 3.5149C385.751 3.57447 383.358 3.63405 380.817 3.7532C380.219 3.7532 379.471 3.81277 378.873 3.81277C379.172 3.69362 379.322 3.57447 379.322 3.45533C379.471 3.33618 379.471 3.21703 379.471 3.09788C379.471 3.0383 379.471 2.91915 379.621 2.85958C379.621 2.74043 379.621 2.62128 379.471 2.56171C379.471 2.56171 379.621 2.56171 379.621 2.50213C380.069 2.38298 380.518 2.26383 380.817 2.02554C381.116 1.84681 381.265 1.60851 381.265 1.37022C381.265 1.13192 381.116 0.953195 380.817 0.714897C380.667 0.655323 380.518 0.536173 380.368 0.476598C379.92 0.297875 379.471 0.2383 379.023 0.178725C378.126 0.0595764 377.079 0 376.033 0C375.136 0 374.388 0 373.491 0C372.295 0 371.099 0 369.903 0C368.259 0 366.464 0 364.82 0C360.335 0 355.85 0 351.365 0C347.178 0 342.843 0 338.657 0C334.77 0 331.032 0 327.145 0C311.746 0 296.496 0.0595773 281.097 0.119152C269.586 0.178726 258.074 0.238299 246.562 0.238299C241.479 0.238299 236.246 0.297872 231.163 0.357446C219.651 0.476595 208.139 0.53617 196.627 0.655319C193.338 0.655319 190.049 0.714897 186.76 0.714897C184.817 0.714897 183.022 0.774471 181.079 0.774471C169.717 0.953195 158.354 1.13192 146.992 1.31064C143.553 1.37022 140.115 1.42979 136.527 1.48936C134.583 1.48936 132.639 1.54894 130.696 1.60852C119.334 1.84681 108.121 2.08511 96.7584 2.32341C90.9277 2.44256 85.097 2.5617 79.2663 2.74043C69.2495 2.97873 59.2327 3.21703 49.3655 3.5149C40.6942 3.7532 32.0229 3.93192 23.3517 4.11064C22.0061 4.17022 20.6606 4.17022 19.1656 4.22979C16.923 4.28937 14.6804 4.28937 12.4378 4.34894C10.4943 4.40852 8.55073 4.40852 6.45767 4.40852C6.30816 4.22979 5.71014 4.05107 5.26163 4.05107C3.91609 4.11065 2.72006 4.17022 1.37452 4.22979C0.7765 4.22979 0.178481 4.34894 0.0289762 4.64682C-0.120528 4.94469 0.327984 5.24256 0.926002 5.30214C1.52402 5.36171 1.97253 5.42129 2.57055 5.48086C3.16857 5.54044 3.61708 5.54043 4.2151 5.54043C5.71015 5.77873 7.05569 5.77873 8.55073 5.83831ZM358.391 3.87235C360.185 3.87235 362.129 3.87235 363.923 3.87235C364.072 4.05107 364.371 4.17022 364.67 4.28937C363.923 4.28937 363.175 4.34894 362.577 4.34894C361.232 4.34894 359.886 4.40852 358.541 4.40852C352.561 4.46809 346.73 4.58724 340.75 4.64682C338.059 4.70639 335.368 4.76596 332.676 4.76596C328.49 4.76596 324.155 4.82554 319.969 4.82554C310.251 4.88511 300.682 4.94469 290.965 5.00426C272.127 5.12341 253.439 5.24256 234.602 5.36171C221.146 5.42128 207.691 5.60001 194.235 5.77873C174.052 6.01703 153.72 6.19575 133.536 6.43405C129.5 6.49363 125.463 6.5532 121.427 6.67235C109.915 6.91065 98.4029 7.08937 86.8911 7.32767C75.6782 7.56597 64.3159 7.74469 53.1031 7.98299C52.0565 7.98299 51.01 8.04256 49.9635 8.04256C52.9536 7.92341 56.0932 7.86384 59.0832 7.74469C69.6981 7.44682 80.3129 7.08937 90.9277 6.7915C94.6653 6.67235 98.4029 6.5532 101.991 6.43405C103.935 6.37448 105.878 6.3149 107.672 6.3149C118.736 6.0766 129.799 5.77873 140.862 5.54043C142.955 5.48086 145.198 5.42128 147.291 5.36171C150.43 5.30213 153.57 5.24256 156.56 5.24256C167.923 5.06384 179.285 4.88511 190.647 4.70639C193.189 4.64682 195.73 4.64682 198.122 4.58724C198.72 4.58724 199.468 4.58724 200.066 4.58724C201.86 4.58724 203.654 4.58724 205.299 4.52766C216.661 4.40852 228.173 4.34894 239.535 4.22979C244.768 4.17022 250 4.11064 255.233 4.11064C272.127 4.05107 289.171 3.99149 306.065 3.93192C323.856 3.93192 341.198 3.93192 358.391 3.87235Z"
        fill="#26A4FF" />
</svg>