<svg width="152" height="132" viewBox="0 0 152 132" fill="none" xmlns="http://www.w3.org/2000/svg">
<path d="M118.163 131.552L118.733 114.761L106.144 112.855L105.377 131.74" fill="white"/>
<path d="M105.377 132C105.31 131.997 105.247 131.969 105.202 131.92C105.156 131.872 105.131 131.807 105.133 131.741L105.9 112.851C105.901 112.815 105.909 112.779 105.925 112.747C105.941 112.714 105.964 112.686 105.992 112.663C106.019 112.64 106.051 112.624 106.085 112.615C106.119 112.606 106.155 112.605 106.19 112.612L118.783 114.518C118.844 114.528 118.9 114.56 118.939 114.607C118.978 114.655 118.999 114.715 118.997 114.777L118.427 131.548C118.426 131.581 118.418 131.614 118.404 131.644C118.39 131.675 118.37 131.702 118.346 131.725C118.321 131.747 118.293 131.765 118.261 131.776C118.23 131.788 118.197 131.793 118.163 131.792C118.13 131.79 118.097 131.783 118.067 131.769C118.036 131.755 118.009 131.735 117.986 131.71C117.964 131.686 117.946 131.657 117.935 131.626C117.923 131.594 117.918 131.561 117.919 131.527L118.473 114.991L106.383 113.161L105.631 131.761C105.627 131.826 105.599 131.887 105.551 131.931C105.504 131.976 105.442 132 105.377 132Z" fill="#1E293B"/>
<path d="M56.7324 124.301L71.1349 107.226L84.0127 110.376L67.6029 127.162" fill="white"/>
<path d="M67.6024 127.421C67.5354 127.42 67.4714 127.392 67.4245 127.344C67.4009 127.321 67.3821 127.294 67.3692 127.263C67.3564 127.232 67.3498 127.2 67.3498 127.167C67.3498 127.133 67.3564 127.101 67.3692 127.07C67.3821 127.04 67.4009 127.012 67.4245 126.989L83.5193 110.518L71.2259 107.509L56.9251 124.468C56.8801 124.518 56.8177 124.549 56.7507 124.555C56.6836 124.56 56.617 124.54 56.5642 124.498C56.5131 124.454 56.4812 124.392 56.4755 124.324C56.4698 124.257 56.4907 124.19 56.5338 124.138L70.9667 107.062C70.997 107.026 71.0369 106.999 71.0819 106.985C71.1269 106.97 71.1751 106.969 71.2208 106.981L84.0987 110.127C84.1415 110.139 84.1806 110.161 84.2125 110.192C84.2445 110.223 84.2682 110.262 84.2816 110.304C84.2934 110.348 84.294 110.393 84.2833 110.437C84.2727 110.48 84.2511 110.52 84.2206 110.553L67.8108 127.324C67.7855 127.355 67.7537 127.379 67.7176 127.396C67.6815 127.413 67.6422 127.421 67.6024 127.421Z" fill="#1E293B"/>
<path d="M112.547 38.3379C112.547 38.3379 92.9715 43.7045 93.1595 44.4668C93.3476 45.2291 97.1693 59.347 97.1693 59.347L109.366 56.2978L112.547 38.3379Z" fill="#3B82F6"/>
<path d="M112.945 38.2208C112.945 38.2208 106.729 39.8878 102.918 42.0832C99.1062 44.2786 100.153 67.6763 100.153 67.6763L128.394 73.3681C128.394 73.3681 133.771 58.1729 133.405 51.2359C133.039 44.299 128.75 34.4601 112.945 38.2208Z" fill="#3B82F6"/>
<path d="M98.8824 56.2727C98.8506 56.2799 98.8176 56.2799 98.7859 56.2727C98.7224 56.2457 98.672 56.195 98.6454 56.1314C98.6188 56.0678 98.6182 55.9963 98.6436 55.9322C100.488 51.394 103.268 44.4723 103.344 43.9895C103.345 43.9556 103.352 43.9223 103.366 43.8914C103.38 43.8605 103.4 43.8326 103.424 43.8094C103.449 43.7862 103.478 43.7682 103.51 43.7563C103.541 43.7445 103.575 43.7391 103.609 43.7404C103.678 43.7431 103.744 43.7726 103.793 43.8228C103.841 43.8731 103.868 43.9401 103.868 44.0098C103.868 44.4468 100.554 52.6492 99.1264 56.1304C99.1038 56.1752 99.0688 56.2124 99.0255 56.2377C98.9822 56.263 98.9325 56.2751 98.8824 56.2727Z" fill="#1E293B"/>
<path d="M114.673 35.3704L112.68 41.357C112.68 41.357 112.63 44.9144 116.578 44.6044C117.745 44.5002 118.873 44.1378 119.882 43.5436C120.891 42.9495 121.756 42.1383 122.412 41.169L124.079 30.4358C123.475 29.9088 123.091 29.1743 123.002 28.3775C122.915 27.7811 122.932 27.1741 123.053 26.5836C123.238 25.7907 123.534 25.0277 123.932 24.317C122.054 24.024 120.332 23.101 119.048 21.6998C118.743 21.3273 118.458 20.9388 118.194 20.536C118.072 20.3479 115.567 21.5219 115.303 21.654C114.012 22.2231 112.911 23.1509 112.132 24.3272C111.615 25.3436 111.287 26.4458 111.166 27.5797C110.87 29.1377 110.72 30.72 110.719 32.3059C110.749 35.3297 114.673 35.3704 114.673 35.3704Z" fill="white"/>
<path d="M116.086 44.8581C115.155 44.9027 114.244 44.5838 113.545 43.9687C112.859 43.2707 112.469 42.3349 112.457 41.3566C112.455 41.3329 112.455 41.3091 112.457 41.2854L114.353 35.5885C113.387 35.497 110.516 35.004 110.49 32.3207C110.492 30.7228 110.644 29.1286 110.943 27.5589C111.074 26.3914 111.418 25.258 111.959 24.2149C112.744 23.0008 113.863 22.0391 115.181 21.4452C118.103 20.0019 118.296 20.2967 118.367 20.4288C118.367 20.4288 118.876 21.2216 119.201 21.5672C120.448 22.9346 122.128 23.8317 123.958 24.1082C123.993 24.1149 124.027 24.13 124.055 24.1521C124.084 24.1743 124.107 24.2029 124.122 24.2356C124.137 24.2684 124.145 24.3043 124.144 24.3404C124.142 24.3766 124.133 24.4119 124.115 24.4436C123.727 25.1351 123.438 25.8775 123.256 26.6492C123.145 27.2151 123.129 27.7958 123.211 28.3669C123.288 29.1036 123.64 29.7842 124.196 30.2727C124.231 30.2964 124.258 30.3297 124.274 30.3685C124.291 30.4072 124.295 30.4498 124.288 30.4912L122.621 41.2244C122.616 41.2549 122.606 41.2842 122.591 41.3108C121.92 42.3182 121.03 43.1613 119.989 43.7772C118.947 44.3931 117.779 44.7661 116.573 44.8682C116.416 44.8581 116.248 44.8581 116.086 44.8581ZM112.904 41.3972C112.928 42.2337 113.263 43.0311 113.844 43.6333C114.216 43.9421 114.65 44.168 115.116 44.296C115.582 44.4239 116.071 44.451 116.548 44.3753C117.669 44.2715 118.754 43.9239 119.727 43.3568C120.699 42.7897 121.536 42.0168 122.179 41.0923L123.82 30.5319C123.232 29.9702 122.858 29.2206 122.763 28.4127C122.671 27.7983 122.684 27.1725 122.804 26.5628C122.967 25.8546 123.224 25.1711 123.566 24.53C121.751 24.1912 120.096 23.2707 118.85 21.9077C118.586 21.6078 118.195 21.0285 118.042 20.8049C117.133 21.1158 116.245 21.4859 115.384 21.9127C114.145 22.4696 113.089 23.3644 112.335 24.4944C111.829 25.4909 111.505 26.5701 111.38 27.6808C111.088 29.2241 110.938 30.7908 110.932 32.3614C110.963 35.1158 114.49 35.187 114.652 35.1921C114.688 35.1922 114.724 35.2011 114.756 35.2179C114.788 35.2347 114.815 35.259 114.835 35.2886C114.857 35.3181 114.872 35.3524 114.878 35.3886C114.884 35.4248 114.882 35.4619 114.871 35.497L112.904 41.3972Z" fill="#1E293B"/>
<path d="M121.975 29.4751C122.168 29.0484 122.49 28.6929 122.895 28.4587C123.287 28.2549 123.712 28.1208 124.15 28.0623C124.386 28.0066 124.631 28.0066 124.867 28.0623C125.029 28.1149 125.18 28.1996 125.309 28.3114C125.639 28.5414 125.875 28.8822 125.975 29.2719C126.016 29.5943 125.979 29.9219 125.868 30.2273C125.773 30.5662 125.632 30.8909 125.451 31.1929C125.264 31.4904 125.02 31.7479 124.732 31.9501C124.445 32.1524 124.12 32.2956 123.777 32.3712C123.433 32.4469 123.078 32.4535 122.732 32.3909C122.387 32.3282 122.057 32.1973 121.762 32.006" fill="white"/>
<path d="M123.209 32.5963C122.656 32.5967 122.115 32.438 121.649 32.1389C121.604 32.1098 121.573 32.064 121.561 32.0117C121.55 31.9594 121.56 31.9046 121.588 31.8594C121.602 31.8366 121.621 31.8169 121.642 31.8014C121.664 31.7859 121.689 31.775 121.715 31.7693C121.741 31.7636 121.768 31.7632 121.794 31.7682C121.821 31.7732 121.846 31.7835 121.868 31.7984C122.141 31.9746 122.447 32.095 122.767 32.1525C123.087 32.2101 123.415 32.2037 123.733 32.1338C124.363 31.9835 124.91 31.5934 125.258 31.0463C125.43 30.7588 125.564 30.4494 125.654 30.1264C125.753 29.8533 125.787 29.5613 125.756 29.2726C125.663 28.9316 125.454 28.6334 125.166 28.429C125.054 28.3362 124.927 28.264 124.79 28.2156C124.584 28.1704 124.371 28.1704 124.165 28.2156C123.75 28.2731 123.348 28.4003 122.976 28.5916C122.604 28.8072 122.312 29.1369 122.142 29.5318C122.132 29.5565 122.117 29.5789 122.099 29.5977C122.08 29.6165 122.057 29.6313 122.033 29.6412C122.008 29.6512 121.982 29.6561 121.955 29.6556C121.929 29.6552 121.902 29.6494 121.878 29.6385C121.853 29.6292 121.83 29.6147 121.811 29.596C121.792 29.5773 121.776 29.5548 121.766 29.5299C121.756 29.5051 121.752 29.4784 121.752 29.4516C121.753 29.4248 121.76 29.3985 121.771 29.3743C121.977 28.8956 122.334 28.4975 122.788 28.241C123.2 28.0275 123.645 27.8849 124.104 27.8192C124.372 27.7582 124.649 27.7582 124.917 27.8192C125.101 27.8823 125.273 27.9769 125.425 28.0987C125.793 28.3611 126.055 28.7471 126.162 29.1862C126.211 29.5391 126.173 29.8986 126.05 30.2331C125.95 30.5898 125.803 30.9317 125.613 31.2496C125.411 31.5698 125.148 31.847 124.838 32.065C124.528 32.2831 124.179 32.4377 123.809 32.5201C123.613 32.5673 123.412 32.5929 123.209 32.5963Z" fill="#1E293B"/>
<path d="M113.656 38.5314C115.106 38.6778 116.562 38.3187 117.778 37.515C119.709 36.1683 119.811 34.4658 119.811 34.4658C118.193 35.1663 116.433 35.4762 114.673 35.3704L113.656 38.5314Z" fill="#1E293B"/>
<path d="M114.235 38.7855C114.028 38.7879 113.821 38.776 113.615 38.7499C113.583 38.7455 113.552 38.7341 113.525 38.7165C113.497 38.6988 113.474 38.6753 113.456 38.6477C113.439 38.6201 113.428 38.589 113.424 38.5566C113.42 38.5243 113.423 38.4913 113.432 38.4602L114.449 35.3043C114.465 35.2579 114.495 35.2177 114.535 35.1894C114.575 35.1611 114.623 35.1462 114.673 35.1468C116.394 35.2307 118.111 34.9141 119.688 34.2218C119.723 34.2031 119.761 34.1934 119.8 34.1934C119.839 34.1934 119.878 34.2031 119.912 34.2218C119.945 34.2435 119.971 34.273 119.989 34.3077C120.006 34.3424 120.015 34.3811 120.014 34.42C120.014 34.4963 119.892 36.2699 117.895 37.6674C116.816 38.4011 115.54 38.7909 114.235 38.7855ZM113.946 38.3281C115.253 38.394 116.546 38.0376 117.635 37.3117C118.537 36.7257 119.197 35.8344 119.495 34.8012C118.008 35.3807 116.42 35.6554 114.825 35.6092L113.946 38.3281Z" fill="#1E293B"/>
<path d="M117.321 25.0996C117.321 25.0996 114.78 27.6406 115.136 28.2708C115.491 28.901 116.889 28.779 116.889 28.779" fill="white"/>
<path d="M116.706 29.0234C116.269 29.0234 115.293 28.9573 114.948 28.3881C114.531 27.7071 116.36 25.7505 117.168 24.9425C117.189 24.9211 117.214 24.9042 117.242 24.8926C117.269 24.881 117.299 24.875 117.329 24.875C117.358 24.875 117.388 24.881 117.415 24.8926C117.443 24.9042 117.468 24.9211 117.489 24.9425C117.531 24.9852 117.554 25.0427 117.554 25.1026C117.554 25.1624 117.531 25.2199 117.489 25.2627C116.198 26.5637 115.181 27.8901 115.329 28.1543C115.568 28.5558 116.548 28.5863 116.853 28.5711C116.913 28.5695 116.971 28.5908 117.015 28.6304C117.059 28.6701 117.087 28.7252 117.092 28.7845C117.094 28.8139 117.089 28.8432 117.079 28.8709C117.069 28.8985 117.054 28.9239 117.034 28.9457C117.014 28.9674 116.99 28.985 116.964 28.9974C116.937 29.0099 116.908 29.017 116.879 29.0183L116.706 29.0234Z" fill="#1E293B"/>
<path d="M113.422 30.2682L118.367 30.2021C118.367 30.2021 118.143 33.5563 115.267 33.7596C112.391 33.9628 113.422 30.2682 113.422 30.2682Z" fill="#1E293B"/>
<path d="M118.488 25.1047C118.553 24.9649 118.653 24.8445 118.779 24.7553C118.905 24.6662 119.051 24.6115 119.205 24.5965C119.774 24.505 120.064 25.1708 120.064 25.1708" fill="white"/>
<path d="M120.063 25.3739C120.02 25.3747 119.976 25.3626 119.939 25.3391C119.902 25.3157 119.873 25.2818 119.855 25.2417C119.855 25.2417 119.631 24.7335 119.24 24.7996C119.126 24.8108 119.016 24.8513 118.922 24.9172C118.827 24.983 118.751 25.0721 118.701 25.1757C118.681 25.2319 118.639 25.2779 118.585 25.3035C118.531 25.3292 118.468 25.3326 118.412 25.3129C118.357 25.2933 118.312 25.2531 118.287 25.2009C118.261 25.1488 118.257 25.0887 118.275 25.0334C118.348 24.8511 118.47 24.6921 118.626 24.5732C118.783 24.4542 118.969 24.3797 119.164 24.3575C119.896 24.2355 120.252 25.0283 120.267 25.0639C120.279 25.0909 120.285 25.12 120.285 25.1494C120.286 25.1789 120.28 25.2082 120.27 25.2355C120.259 25.2629 120.243 25.2879 120.222 25.309C120.201 25.3302 120.177 25.347 120.15 25.3586L120.063 25.3739Z" fill="#1E293B"/>
<path d="M113.91 24.672C113.975 24.5322 114.075 24.4118 114.201 24.3226C114.327 24.2335 114.473 24.1787 114.627 24.1638C115.196 24.0672 115.486 24.7381 115.486 24.7381" fill="white"/>
<path d="M115.486 24.9472C115.441 24.9477 115.398 24.9348 115.36 24.9104C115.323 24.886 115.294 24.851 115.277 24.81C115.277 24.81 115.054 24.3018 114.662 24.373C114.547 24.3832 114.437 24.4233 114.343 24.4893C114.248 24.5553 114.173 24.6448 114.124 24.749C114.103 24.8053 114.061 24.8512 114.007 24.8769C113.953 24.9026 113.891 24.9059 113.834 24.8863C113.779 24.8656 113.734 24.8245 113.708 24.7715C113.683 24.7185 113.679 24.6576 113.697 24.6017C113.771 24.42 113.893 24.2616 114.049 24.1428C114.206 24.024 114.391 23.949 114.586 23.9258C115.318 23.8038 115.674 24.6017 115.689 24.6322C115.701 24.6591 115.708 24.6882 115.709 24.7179C115.71 24.7476 115.705 24.7771 115.694 24.8047C115.683 24.8322 115.666 24.8573 115.645 24.8783C115.624 24.8993 115.599 24.9159 115.572 24.9269C115.545 24.9403 115.516 24.9473 115.486 24.9472Z" fill="#1E293B"/>
<path d="M127.83 73.0078L123.784 126.984L56.5391 113.237L101.241 67.377L127.83 73.0078Z" fill="#1E293B"/>
<path d="M98.8829 33.4131L19.9082 46.5755L54.6489 11.2656L98.8829 33.4131Z" fill="#1E293B"/>
<path d="M19.9079 46.8304C19.8578 46.8307 19.8086 46.8161 19.7667 46.7886C19.7248 46.761 19.692 46.7216 19.6725 46.6754C19.6529 46.6292 19.6474 46.5783 19.6568 46.529C19.6661 46.4797 19.6899 46.4343 19.725 46.3984L54.4657 11.0834C54.5038 11.0457 54.5527 11.021 54.6057 11.0128C54.6586 11.0046 54.7128 11.0133 54.7605 11.0377L98.9741 33.1903C99.0235 33.2123 99.064 33.2504 99.0889 33.2984C99.1139 33.3464 99.1217 33.4014 99.1113 33.4545C99.1065 33.5073 99.0852 33.5572 99.0506 33.5973C99.016 33.6374 98.9697 33.6656 98.9182 33.6781L19.9486 46.8253L19.9079 46.8304ZM54.7046 11.5764L20.655 46.1952L98.0695 33.2919L54.7046 11.5764Z" fill="#1E293B"/>
<path d="M106.175 86.3944L31.6781 99.7957L20.0098 47.0443L98.9438 33.8818L106.175 86.3944Z" fill="#1E293B"/>
<path d="M31.6834 100.049C31.6253 100.05 31.5686 100.031 31.5231 99.995C31.4776 99.9588 31.4462 99.9079 31.4344 99.851L19.7457 47.0945C19.7318 47.0279 19.7446 46.9586 19.7813 46.9013C19.8005 46.8715 19.8258 46.846 19.8556 46.8267C19.8854 46.8075 19.919 46.7948 19.9541 46.7895L98.9186 33.6271C98.9865 33.6167 99.0557 33.6331 99.1117 33.6728C99.1395 33.6932 99.1628 33.7191 99.1803 33.7488C99.1978 33.7785 99.209 33.8114 99.2134 33.8456L106.445 86.3582C106.45 86.3906 106.449 86.4236 106.441 86.4555C106.433 86.4873 106.419 86.5173 106.4 86.5437C106.381 86.5702 106.356 86.5925 106.328 86.6095C106.3 86.6265 106.269 86.6378 106.237 86.6428L31.7241 100.044L31.6834 100.049ZM20.3149 47.2469L31.8765 99.5054L105.891 86.1854L98.7306 34.1861L20.3149 47.2469Z" fill="#1E293B"/>
<path d="M37.9336 82.339C37.9336 82.339 24.2121 39.9854 17.6055 27.1076L91.1576 7.07422L95.7315 72.6324L37.9336 82.339Z" fill="#3B82F6"/>
<path d="M30.4887 34.5166C30.4322 34.5169 30.3772 34.4979 30.3329 34.4629C30.2886 34.4278 30.2575 34.3786 30.2448 34.3235C30.2277 34.2588 30.2367 34.19 30.27 34.1319C30.3033 34.0739 30.3582 34.0313 30.4227 34.0135L84.5107 19.9922C84.5781 19.9753 84.6494 19.986 84.709 20.0217C84.7685 20.0574 84.8115 20.1154 84.8283 20.1828C84.8452 20.2502 84.8345 20.3215 84.7988 20.3811C84.7631 20.4406 84.7051 20.4836 84.6377 20.5004L30.5497 34.5065L30.4887 34.5166Z" fill="white"/>
<path d="M32.7757 43.3841C32.7182 43.3851 32.6622 43.3658 32.6175 43.3295C32.5729 43.2932 32.5425 43.2424 32.5317 43.1859C32.5243 43.1535 32.5234 43.1199 32.5291 43.0872C32.5348 43.0545 32.5471 43.0232 32.5651 42.9952C32.5831 42.9673 32.6065 42.9432 32.6339 42.9245C32.6613 42.9057 32.6923 42.8927 32.7248 42.886L85.0951 31.1364C85.1625 31.1223 85.2328 31.1354 85.2904 31.1731C85.3481 31.2107 85.3884 31.2697 85.4026 31.3371C85.4167 31.4045 85.4035 31.4748 85.3659 31.5324C85.3282 31.5901 85.2692 31.6305 85.2018 31.6446L32.8519 43.379L32.7757 43.3841Z" fill="white"/>
<path d="M37.262 51.6834C37.2031 51.6844 37.1458 51.6646 37.1003 51.6274C37.0547 51.5901 37.0238 51.538 37.013 51.4801C37.0063 51.4474 37.0061 51.4137 37.0124 51.381C37.0188 51.3482 37.0315 51.317 37.0499 51.2892C37.0683 51.2613 37.0921 51.2374 37.1197 51.2187C37.1474 51.2 37.1784 51.187 37.2112 51.1803L87.2945 41.4533C87.3269 41.4467 87.3603 41.4466 87.3927 41.453C87.4252 41.4594 87.456 41.4722 87.4834 41.4906C87.5109 41.5091 87.5344 41.5328 87.5525 41.5604C87.5707 41.588 87.5832 41.619 87.5893 41.6515C87.5967 41.6843 87.5974 41.7182 87.5913 41.7512C87.5853 41.7842 87.5726 41.8157 87.5541 41.8437C87.5356 41.8717 87.5116 41.8957 87.4836 41.9142C87.4556 41.9327 87.4241 41.9453 87.3911 41.9513L37.3077 51.6783L37.262 51.6834Z" fill="white"/>
<path d="M39.6463 62.2744C39.5789 62.2798 39.5122 62.2582 39.4607 62.2144C39.4092 62.1705 39.3773 62.108 39.3719 62.0406C39.3665 61.9732 39.3881 61.9065 39.432 61.855C39.4758 61.8035 39.5383 61.7716 39.6057 61.7662L87.1125 54.0364C87.1798 54.0257 87.2488 54.0421 87.304 54.0821C87.3593 54.1221 87.3964 54.1825 87.4072 54.2499C87.418 54.3173 87.4016 54.3862 87.3615 54.4415C87.3215 54.4967 87.2612 54.5339 87.1938 54.5446L39.687 62.2693L39.6463 62.2744Z" fill="white"/>
<path d="M64.6909 67.4486L20.0098 47.0443L31.6781 99.7957L106.175 86.3944L98.9438 33.8818L64.6909 67.4486Z" fill="white"/>
<path d="M31.6818 100.049C31.6237 100.051 31.567 100.031 31.5215 99.9953C31.4761 99.9591 31.4447 99.9081 31.4328 99.8512L19.7442 47.0947C19.734 47.0484 19.737 47.0002 19.7528 46.9556C19.7687 46.9109 19.7966 46.8715 19.8336 46.8419C19.8706 46.8123 19.9152 46.7937 19.9622 46.788C20.0093 46.7824 20.057 46.7901 20.0999 46.8101L64.6235 67.1382L98.7646 33.6782C98.7982 33.6445 98.8405 33.6209 98.8868 33.6101C98.9331 33.5994 98.9815 33.6018 99.0265 33.6171C99.0715 33.6325 99.1113 33.6602 99.1414 33.697C99.1714 33.7338 99.1906 33.7784 99.1966 33.8255L106.428 86.3381C106.433 86.3705 106.432 86.4035 106.424 86.4354C106.416 86.4672 106.403 86.4972 106.383 86.5237C106.364 86.5501 106.339 86.5725 106.311 86.5895C106.283 86.6065 106.252 86.6177 106.22 86.6227L31.7225 100.044L31.6818 100.049ZM20.3642 47.486L31.875 99.5056L105.89 86.1857L98.7747 34.4151L64.8675 67.6312C64.8302 67.6667 64.7831 67.6901 64.7323 67.6983C64.6815 67.7065 64.6294 67.699 64.5829 67.6769L20.3642 47.486Z" fill="#1E293B"/>
<path d="M106.181 86.394L31.6836 99.7953L64.6964 67.4482L106.181 86.394Z" fill="white"/>
<path d="M31.6819 100.05C31.6348 100.05 31.5885 100.038 31.5481 100.014C31.5077 99.9894 31.4748 99.9544 31.4532 99.9126C31.4286 99.8646 31.4202 99.8099 31.4294 99.7567C31.4386 99.7036 31.4647 99.6548 31.504 99.6178L64.5372 67.2657C64.5744 67.2301 64.6215 67.2067 64.6723 67.1985C64.7232 67.1904 64.7753 67.1978 64.8218 67.2199L106.301 86.1606C106.35 86.1837 106.391 86.2216 106.418 86.269C106.444 86.3164 106.455 86.371 106.449 86.4249C106.442 86.4781 106.419 86.5279 106.382 86.5671C106.346 86.6064 106.298 86.6331 106.245 86.6434L31.7276 100.05H31.6819ZM64.7455 67.7535L32.4493 99.3993L105.331 86.2877L64.7455 67.7535Z" fill="#1E293B"/>
<path d="M106.181 86.394L31.6836 99.7953L64.6964 67.4482L106.181 86.394Z" fill="white"/>
<path d="M31.6819 100.05C31.6348 100.05 31.5885 100.038 31.5481 100.014C31.5077 99.9894 31.4748 99.9544 31.4532 99.9126C31.4286 99.8646 31.4202 99.8099 31.4294 99.7567C31.4386 99.7036 31.4647 99.6548 31.504 99.6178L64.5372 67.2657C64.5744 67.2301 64.6215 67.2067 64.6723 67.1985C64.7232 67.1904 64.7753 67.1978 64.8218 67.2199L106.301 86.1606C106.35 86.1837 106.391 86.2216 106.418 86.269C106.444 86.3164 106.455 86.371 106.449 86.4249C106.442 86.4781 106.419 86.5279 106.382 86.5671C106.346 86.6064 106.298 86.6331 106.245 86.6434L31.7276 100.05H31.6819ZM64.7455 67.7535L32.4493 99.3993L105.331 86.2877L64.7455 67.7535Z" fill="#1E293B"/>
<path d="M100.997 13.7061C100.997 13.7061 99.9143 17.7717 96.4941 17.8733C96.4941 17.8733 100.102 18.8897 100.86 22.2743C101.196 21.3353 101.751 20.49 102.479 19.8085C103.208 19.1271 104.088 18.6291 105.047 18.3561C104.065 17.9367 103.191 17.3006 102.489 16.4953C101.788 15.69 101.277 14.7365 100.997 13.7061Z" fill="#E2E8F0"/>
<path d="M2.78125 44.5989C2.78125 44.5989 5.5103 48.5019 3.09125 51.5206C3.09125 51.5206 6.59277 49.1422 10.0689 50.9565C9.50342 49.983 9.17846 48.8887 9.12101 47.7644C9.06355 46.64 9.27526 45.5182 9.73854 44.4922C9.73854 44.4922 6.76556 46.2912 2.78125 44.5989Z" fill="#E2E8F0"/>
<path d="M27.2613 12.7754C27.2613 12.7754 27.8356 19.5751 22.6875 21.5724C22.6875 21.5724 28.73 21.1455 31.7335 25.8921C31.7335 25.8921 31.5201 20.6881 35.9719 17.6541C35.9313 17.6541 30.961 17.7456 27.2613 12.7754Z" fill="#E2E8F0"/>
<path d="M125.071 46.998C125.071 46.998 85.5786 67.0263 79.5666 68.1749C73.5546 69.3234 66.4042 67.316 66.6888 69.0337C66.9734 70.7514 70.4088 71.6052 70.4088 71.6052C70.4088 71.6052 59.5383 73.3229 60.1075 74.4715C60.6767 75.62 67.8373 74.1818 67.8373 74.1818C67.8373 74.1818 58.9641 76.7584 60.9664 77.9018C62.9687 79.0453 69.2653 76.4738 69.2653 76.4738C69.2653 76.4738 59.8229 81.3373 62.3995 81.6219C64.9761 81.9065 69.555 79.335 69.555 79.335C69.555 79.335 62.3995 83.055 65.2607 83.3396C68.1219 83.6242 110.76 68.4594 125.071 59.8759" fill="white"/>
<path d="M65.346 83.5988H65.2342C64.7005 83.5429 64.3956 83.3599 64.3397 83.055C64.2533 82.5976 64.8886 81.9573 65.7728 81.3068C64.6887 81.7276 63.5301 81.923 62.3679 81.8811C61.9766 81.8353 61.753 81.6879 61.7072 81.4287C61.5649 80.6664 64.0653 79.0554 66.3878 77.7392C64.421 78.3135 61.9969 78.7912 60.8382 78.1305C60.7059 78.0753 60.5944 77.9798 60.5196 77.8575C60.4448 77.7352 60.4104 77.5924 60.4215 77.4495C60.518 76.6466 62.5813 75.7064 64.5684 74.9847C62.4848 75.2439 60.2538 75.3303 59.8777 74.5883C59.8438 74.5232 59.8262 74.4509 59.8262 74.3774C59.8262 74.304 59.8438 74.2317 59.8777 74.1665C60.3859 73.1501 66.5606 71.9965 69.3201 71.534C68.2275 71.1224 66.6368 70.3144 66.4284 69.0794C66.4073 68.9753 66.411 68.8676 66.4393 68.7652C66.4675 68.6628 66.5195 68.5685 66.5911 68.4899C67.0993 67.9258 68.6544 68.0173 71.0226 68.1545C73.5229 68.2968 76.6128 68.4747 79.5096 67.9309C85.4149 66.8027 124.552 46.9726 124.943 46.7744C125.004 46.744 125.074 46.7387 125.139 46.7597C125.203 46.7806 125.257 46.826 125.288 46.8862C125.319 46.9462 125.324 47.0157 125.303 47.0795C125.282 47.1433 125.237 47.1963 125.177 47.2267C123.561 48.0449 85.5826 67.2906 79.6061 68.4289C76.6687 68.9879 73.5077 68.805 70.9667 68.6627C69.0711 68.5509 67.2822 68.4493 66.9417 68.8253C66.9221 68.848 66.9086 68.8753 66.9024 68.9046C66.8962 68.9339 66.8975 68.9643 66.9061 68.993C67.1196 70.2686 69.5234 71.1376 70.4382 71.3663C70.5055 71.3697 70.5688 71.3997 70.6141 71.4497C70.6594 71.4998 70.6829 71.5657 70.6795 71.6331C70.6762 71.7005 70.6462 71.7638 70.5961 71.8091C70.5461 71.8544 70.4801 71.8779 70.4127 71.8745C65.7322 72.6114 60.5333 73.7905 60.2995 74.4156C60.5993 74.9746 64.4007 74.6239 67.7498 73.9531C67.7831 73.9451 67.8177 73.9437 67.8516 73.9491C67.8855 73.9545 67.918 73.9665 67.9473 73.9844C67.9766 74.0023 68.002 74.0258 68.0222 74.0536C68.0423 74.0814 68.0568 74.1128 68.0648 74.1462C68.0728 74.1796 68.0742 74.2142 68.0688 74.2481C68.0635 74.282 68.0515 74.3145 68.0335 74.3437C68.0156 74.373 67.9921 74.3984 67.9643 74.4186C67.9366 74.4388 67.9051 74.4533 67.8717 74.4613C64.5735 75.4167 60.9703 76.8651 60.889 77.541C60.889 77.6071 60.9907 77.6782 61.0567 77.7189C62.6118 78.6082 67.4143 76.9769 69.1321 76.2705C69.1936 76.2462 69.2621 76.2464 69.3235 76.2709C69.3849 76.2955 69.4346 76.3426 69.4624 76.4026C69.489 76.4622 69.4918 76.5297 69.47 76.5912C69.4482 76.6526 69.4037 76.7034 69.3455 76.733C65.9253 78.4964 62.2307 80.7579 62.1697 81.3627C62.2415 81.3825 62.3145 81.3978 62.3882 81.4084C64.3092 81.6219 67.4702 80.1328 68.7967 79.462L69.3963 79.1418C69.4557 79.1113 69.5247 79.1054 69.5885 79.1254C69.6522 79.1453 69.7055 79.1896 69.7368 79.2486C69.753 79.2772 69.7634 79.3088 69.7673 79.3415C69.7712 79.3741 69.7685 79.4073 69.7596 79.4389C69.7506 79.4706 69.7354 79.5002 69.7149 79.5259C69.6945 79.5517 69.6691 79.5732 69.6403 79.5891C69.5996 79.5891 69.3658 79.7466 68.9999 79.9346C66.6266 81.2255 64.7259 82.5976 64.8022 82.9838C64.8022 82.9838 64.8937 83.0804 65.2494 83.116H65.3764C66.9011 83.116 77.3243 79.8025 90.7866 74.7205C98.1454 71.9457 116.197 64.9274 124.943 59.6828C124.971 59.6619 125.004 59.6472 125.038 59.6396C125.072 59.6319 125.108 59.6315 125.142 59.6382C125.177 59.645 125.21 59.6589 125.238 59.679C125.267 59.6991 125.292 59.725 125.31 59.755C125.328 59.785 125.34 59.8185 125.345 59.8533C125.35 59.8882 125.347 59.9236 125.338 59.9574C125.328 59.9913 125.311 60.0227 125.289 60.0498C125.266 60.0768 125.239 60.099 125.207 60.1147C111.404 68.3679 69.3658 83.5988 65.346 83.5988Z" fill="#1E293B"/>
<path d="M117.772 63.9263C117.772 63.9263 111.674 49.6204 112.238 49.4272C112.802 49.2341 124.435 41.606 125.406 42.1803C126.376 42.7545 129.979 53.8181 128.836 57.0604C127.692 60.3028 117.772 63.9263 117.772 63.9263Z" fill="#3B82F6"/>
<path d="M119.297 63.9976C119.242 63.9975 119.188 63.9803 119.144 63.9484C119.099 63.9165 119.065 63.8716 119.048 63.8197C119.027 63.7537 119.032 63.6821 119.064 63.6203C119.095 63.5585 119.15 63.5115 119.215 63.4894C119.302 63.4589 127.768 60.6028 131.112 56.3238C131.134 56.2969 131.16 56.2746 131.19 56.258C131.22 56.2414 131.253 56.231 131.287 56.2272C131.321 56.2234 131.355 56.2264 131.388 56.236C131.421 56.2456 131.452 56.2616 131.478 56.2831C131.506 56.3036 131.529 56.3295 131.547 56.3592C131.564 56.389 131.575 56.422 131.58 56.4562C131.584 56.4905 131.581 56.5252 131.572 56.5584C131.562 56.5915 131.546 56.6223 131.524 56.649C128.083 61.05 119.734 63.8706 119.383 63.9874C119.355 63.9958 119.326 63.9992 119.297 63.9976Z" fill="#1E293B"/>
<path d="M126.061 32.91C125.999 32.9087 125.939 32.8852 125.893 32.8438C125.847 32.8024 125.817 32.7458 125.809 32.6843C125.801 32.6229 125.816 32.5606 125.85 32.5087C125.884 32.4569 125.935 32.419 125.995 32.4018C126.943 32.1188 127.816 31.6261 128.549 30.9602C129.282 30.2943 129.856 29.4722 130.228 28.5547C130.969 26.6795 131.145 24.6288 130.736 22.6545C130.452 20.746 129.622 18.9601 128.348 17.5115C127.709 16.8103 126.921 16.263 126.04 15.9109C125.16 15.5587 124.211 15.411 123.266 15.4787L122.895 15.5295C122.617 15.576 122.337 15.6014 122.056 15.6057C121.713 15.5892 121.373 15.5399 121.04 15.4584L120.821 15.4126C119.03 15.0544 117.177 15.1545 115.435 15.7036C113.692 16.2527 112.117 17.233 110.855 18.5535C109.593 19.8741 108.684 21.492 108.214 23.2573C107.745 25.0226 107.728 26.878 108.167 28.6513C108.289 29.1595 108.584 29.9675 109.209 30.0438C109.243 30.0469 109.276 30.0569 109.307 30.0734C109.337 30.0898 109.364 30.1123 109.385 30.1394C109.407 30.1665 109.422 30.1977 109.431 30.2311C109.44 30.2644 109.442 30.2993 109.437 30.3335C109.434 30.3676 109.423 30.4006 109.406 30.4307C109.39 30.4607 109.367 30.4871 109.34 30.5084C109.313 30.5297 109.282 30.5454 109.249 30.5546C109.216 30.5638 109.182 30.5664 109.148 30.5621C108.451 30.4757 107.923 29.8456 107.659 28.7784C107.194 26.9169 107.208 24.9683 107.699 23.1137C108.19 21.2591 109.143 19.5589 110.467 18.1712C111.792 16.7835 113.446 15.7535 115.276 15.177C117.106 14.6005 119.052 14.4963 120.933 14.8739L121.162 14.9197C121.468 14.9969 121.781 15.0429 122.097 15.0569C122.349 15.0502 122.6 15.0264 122.849 14.9857C122.981 14.9857 123.108 14.9451 123.24 14.9349C124.265 14.8525 125.295 15.0082 126.25 15.3899C127.205 15.7717 128.058 16.3691 128.744 17.1354C130.097 18.6556 130.98 20.5358 131.285 22.5478C131.71 24.6242 131.518 26.7797 130.731 28.7479C130.329 29.7383 129.709 30.6254 128.917 31.3433C128.126 32.0612 127.182 32.5915 126.157 32.8948L126.061 32.91Z" fill="#1E293B"/>
<path d="M122.092 15.3317C122.092 15.3317 124.734 13.37 129.029 14.4169C133.323 15.4638 134.944 23.2901 130.935 27.4879C130.935 27.4879 131.56 16.0483 122.092 15.3317Z" fill="#1E293B"/>
<path d="M137.374 39.8682H137.349C135.316 39.743 133.368 39.0081 131.759 37.7592C130.952 37.1228 130.303 36.3089 129.862 35.3807C129.422 34.4525 129.201 33.4352 129.218 32.4078C129.218 32.3731 129.226 32.3389 129.24 32.3072C129.255 32.2756 129.275 32.2473 129.301 32.2239C129.327 32.2006 129.357 32.1828 129.39 32.1716C129.423 32.1604 129.457 32.156 129.492 32.1588C129.527 32.1601 129.56 32.1683 129.592 32.1828C129.623 32.1974 129.651 32.2181 129.674 32.2436C129.698 32.2692 129.715 32.2991 129.727 32.3317C129.738 32.3643 129.743 32.3988 129.741 32.4332C129.727 33.3777 129.93 34.3128 130.336 35.1659C130.741 36.019 131.338 36.7673 132.079 37.3526C133.32 38.3291 134.792 38.9697 136.353 39.2127C135.924 38.7325 135.651 38.1335 135.57 37.4949C135.487 36.5321 135.635 35.5633 136.002 34.6693C136.615 33.1508 137.361 31.6899 138.233 30.3039C139.499 28.144 140.693 26.1061 140.957 23.7379C141.112 22.37 140.929 20.985 140.425 19.7039C139.921 18.4228 139.111 17.2846 138.066 16.3887C137.021 15.4929 135.772 14.8666 134.429 14.5646C133.086 14.2626 131.689 14.2941 130.361 14.6563C130.294 14.6737 130.222 14.6644 130.162 14.6303C130.101 14.5962 130.056 14.54 130.036 14.4734C130.027 14.4403 130.024 14.4058 130.028 14.3717C130.033 14.3377 130.043 14.3048 130.06 14.2751C130.078 14.2453 130.1 14.2192 130.127 14.1983C130.155 14.1773 130.186 14.162 130.219 14.1532C131.631 13.7678 133.116 13.7341 134.544 14.0551C135.972 14.3761 137.299 15.0421 138.41 15.9947C139.521 16.9474 140.382 18.1578 140.917 19.52C141.453 20.8822 141.646 22.3548 141.481 23.809C141.201 26.284 139.92 28.4642 138.685 30.5783C137.843 31.934 137.12 33.3607 136.526 34.8421C136.18 35.6544 136.04 36.5395 136.119 37.4187C136.158 37.8319 136.304 38.2279 136.542 38.5681C136.78 38.9083 137.101 39.1811 137.476 39.36C137.532 39.3834 137.578 39.4252 137.607 39.4786C137.636 39.5321 137.645 39.5937 137.634 39.6534C137.623 39.713 137.591 39.7669 137.545 39.806C137.499 39.8451 137.44 39.8671 137.379 39.8682H137.374Z" fill="#1E293B"/>
<path d="M114.052 51.5516C113.987 51.563 113.92 51.5497 113.865 51.5143C113.809 51.4788 113.769 51.4239 113.751 51.3602C113.734 51.2965 113.741 51.2286 113.772 51.17C113.802 51.1114 113.853 51.0662 113.915 51.0434L124.359 44.6044C124.418 44.5686 124.489 44.5575 124.557 44.5737C124.624 44.5898 124.683 44.6319 124.719 44.6908C124.738 44.7201 124.75 44.7527 124.756 44.7868C124.761 44.8209 124.76 44.8558 124.752 44.8895C124.744 44.9231 124.729 44.9547 124.709 44.9826C124.688 45.0105 124.663 45.0339 124.633 45.0517L114.189 51.4906C114.15 51.5235 114.103 51.5447 114.052 51.5516Z" fill="#1E293B"/>
<path d="M0.448618 70.5427C0.386618 70.5427 0.327156 70.5181 0.283315 70.4742C0.239474 70.4304 0.214844 70.3709 0.214844 70.3089C0.214844 70.2469 0.239474 70.1875 0.283315 70.1436C0.327156 70.0998 0.386618 70.0752 0.448618 70.0752L16.2029 69.2163C16.2343 69.2127 16.2662 69.2158 16.2963 69.2254C16.3264 69.235 16.3542 69.2509 16.3777 69.2721C16.4012 69.2932 16.42 69.3191 16.4328 69.348C16.4456 69.377 16.4521 69.4083 16.4519 69.4399C16.4547 69.5011 16.4334 69.5609 16.3925 69.6065C16.3516 69.6522 16.2945 69.6799 16.2334 69.6838L0.479109 70.5427H0.448618Z" fill="#E2E8F0"/>
<path d="M38.2224 118.908C38.1775 118.909 38.1333 118.897 38.0954 118.873C38.0435 118.838 38.0071 118.785 37.9938 118.725C37.9805 118.664 37.9914 118.6 38.0242 118.548L45.754 106.529C45.7696 106.501 45.7908 106.476 45.8163 106.457C45.8417 106.438 45.8709 106.424 45.9019 106.416C45.9329 106.408 45.9652 106.407 45.9967 106.412C46.0282 106.418 46.0583 106.429 46.0852 106.447C46.112 106.464 46.1349 106.487 46.1526 106.514C46.1703 106.54 46.1823 106.57 46.1879 106.602C46.1936 106.633 46.1927 106.665 46.1854 106.697C46.178 106.728 46.1644 106.757 46.1453 106.783L38.441 118.802C38.4178 118.838 38.3852 118.867 38.3467 118.886C38.3081 118.904 38.2651 118.912 38.2224 118.908Z" fill="#E2E8F0"/>
<path d="M9.03204 99.4493C8.99036 99.4489 8.94954 99.4374 8.9138 99.416C8.87806 99.3945 8.8487 99.3639 8.82877 99.3273C8.81363 99.3007 8.80399 99.2713 8.8004 99.241C8.79682 99.2106 8.79937 99.1798 8.8079 99.1504C8.81643 99.121 8.83076 99.0937 8.85006 99.0699C8.86936 99.0462 8.89322 99.0266 8.92024 99.0122L20.6546 92.4259C20.7094 92.3965 20.7735 92.3896 20.8333 92.4066C20.8931 92.4237 20.9438 92.4635 20.9748 92.5174C20.9902 92.544 21.0003 92.5735 21.0043 92.6041C21.0083 92.6346 21.0062 92.6657 20.9982 92.6954C20.9902 92.7252 20.9763 92.7531 20.9575 92.7774C20.9387 92.8018 20.9152 92.8223 20.8884 92.8375L9.15401 99.4442C9.11453 99.4566 9.07243 99.4584 9.03204 99.4493Z" fill="#E2E8F0"/>
<path d="M96.032 8.1561C95.9943 8.156 95.9572 8.1468 95.9239 8.12929C95.8906 8.11179 95.862 8.08649 95.8405 8.05556C95.819 8.02462 95.8054 7.98896 95.8007 7.9516C95.796 7.91425 95.8003 7.87631 95.8134 7.84101L98.6746 0.136664C98.6992 0.0829196 98.7431 0.0404625 98.7977 0.0178308C98.8523 -0.00480093 98.9134 -0.00592851 98.9688 0.0146757C99.0242 0.0352798 99.0697 0.076087 99.0962 0.12889C99.1227 0.181692 99.1282 0.242573 99.1117 0.299288L96.2505 8.02397C96.2313 8.06523 96.2003 8.09984 96.1614 8.12338C96.1225 8.14691 96.0774 8.15831 96.032 8.1561Z" fill="#E2E8F0"/>
<path d="M139.244 54.8044C139.189 54.8051 139.135 54.7859 139.093 54.7505C139.051 54.715 139.023 54.6656 139.015 54.6113C139.01 54.5809 139.011 54.5498 139.018 54.5198C139.025 54.4898 139.038 54.4615 139.056 54.4365C139.073 54.4115 139.096 54.3902 139.122 54.374C139.149 54.3578 139.178 54.3469 139.208 54.3419L151.512 52.3091C151.573 52.3002 151.635 52.3154 151.685 52.3514C151.735 52.3874 151.77 52.4415 151.781 52.5023C151.786 52.5326 151.785 52.5637 151.778 52.5937C151.771 52.6237 151.758 52.652 151.74 52.6771C151.722 52.7021 151.7 52.7233 151.674 52.7396C151.647 52.7558 151.618 52.7667 151.588 52.7716L139.279 54.779L139.244 54.8044Z" fill="#E2E8F0"/>
<path d="M138.959 105.747C138.924 105.747 138.889 105.739 138.857 105.723C138.825 105.707 138.797 105.684 138.776 105.655L131.047 95.9283C131.009 95.8788 130.992 95.8165 131 95.7549C131.007 95.6932 131.039 95.6369 131.087 95.5979C131.111 95.5786 131.138 95.5641 131.167 95.5554C131.196 95.5467 131.227 95.5439 131.257 95.5473C131.288 95.5506 131.317 95.5599 131.344 95.5747C131.37 95.5895 131.394 95.6095 131.412 95.6335L139.142 105.366C139.161 105.39 139.176 105.418 139.184 105.448C139.192 105.477 139.195 105.509 139.191 105.539C139.187 105.57 139.177 105.6 139.162 105.627C139.147 105.653 139.126 105.677 139.102 105.696C139.061 105.728 139.011 105.745 138.959 105.747Z" fill="#E2E8F0"/>
<path d="M18.6629 23.1223C18.6069 23.123 18.5527 23.1031 18.5104 23.0664L12.9862 18.3198C12.9437 18.2753 12.9199 18.2162 12.9199 18.1546C12.9199 18.0931 12.9437 18.0339 12.9862 17.9895C13.0058 17.9655 13.0301 17.9457 13.0575 17.9313C13.085 17.917 13.1151 17.9083 13.146 17.9059C13.1768 17.9036 13.2079 17.9075 13.2372 17.9175C13.2666 17.9275 13.2935 17.9433 13.3166 17.9641L18.8407 22.7107C18.8647 22.7302 18.8845 22.7545 18.8989 22.782C18.9132 22.8094 18.9219 22.8395 18.9242 22.8704C18.9266 22.9013 18.9227 22.9323 18.9127 22.9617C18.9027 22.991 18.8869 23.018 18.8661 23.041C18.8421 23.0708 18.8107 23.094 18.7751 23.1082C18.7395 23.1225 18.7009 23.1273 18.6629 23.1223Z" fill="#E2E8F0"/>
<path d="M115.923 82.0085C115.88 82.0087 115.838 81.9982 115.801 81.978C115.771 81.9625 115.746 81.9414 115.725 81.9158C115.704 81.8903 115.688 81.8608 115.678 81.8291C115.669 81.7974 115.666 81.7641 115.669 81.7312C115.673 81.6983 115.683 81.6665 115.699 81.6375L121.233 71.5243C121.26 71.4748 121.303 71.4358 121.354 71.4137C121.406 71.3915 121.464 71.3875 121.518 71.4023C121.573 71.4152 121.621 71.4464 121.655 71.4909C121.69 71.5353 121.707 71.5902 121.706 71.6463V80.611C121.706 80.6783 121.679 80.743 121.632 80.7906C121.584 80.8383 121.519 80.8651 121.452 80.8651C121.384 80.8651 121.32 80.8383 121.272 80.7906C121.225 80.743 121.198 80.6783 121.198 80.611V72.6372L116.116 81.8815C116.096 81.9164 116.068 81.9461 116.034 81.9682C116.001 81.9903 115.963 82.0041 115.923 82.0085Z" fill="white"/>
</svg>
