<svg width="1440" height="514" viewBox="0 0 1440 514" fill="none" xmlns="http://www.w3.org/2000/svg">
<g clip-path="url(#clip0_395_2501)">
<rect width="1440" height="514" fill="#F8F8FD"/>
<path opacity="0.7" d="M1361 469.244L1876.76 215.214L1876.76 525.252L1361.22 777.484L1361 469.244Z" fill="#F8F8FD" stroke="#CCCCF5" stroke-width="4"/>
<path d="M1368.97 -3.61728L1938.01 -283.758L2060.48 -32.6564L1369.23 304.488L1368.97 -3.61728Z" fill="#F8F8FD" stroke="#CCCCF5" stroke-width="4"/>
<path d="M1211 199.244L1726.77 -54.7855L1726.77 295.252L1211.23 547.484L1211 199.244Z" fill="#F8F8FD" stroke="#CCCCF5" stroke-width="4"/>
<path d="M942.004 566.244L1457.77 312.214L1457.77 622.252L942.228 874.484L942.004 566.244Z" fill="#F8F8FD" stroke="#CCCCF5" stroke-width="4"/>
<path d="M-266.027 54.3827L303.008 -225.758L425.479 25.3436L-265.771 362.488L-266.027 54.3827Z" fill="#F8F8FD" stroke="#CCCCF5" stroke-width="4"/>
<path d="M-423.996 191.244L91.7656 -62.7855L91.7656 287.252L-423.772 539.484L-423.996 191.244Z" fill="#F8F8FD" stroke="#CCCCF5" stroke-width="4"/>
</g>
<defs>
<clipPath id="clip0_395_2501">
<rect width="1440" height="514" fill="white"/>
</clipPath>
</defs>
</svg>
