<svg width="128" height="128" viewBox="0 0 128 128" fill="none" xmlns="http://www.w3.org/2000/svg">
<g clip-path="url(#clip0_2436_6633)">
<circle cx="60.7768" cy="62.7768" r="60.7768" fill="#F5F8FF"/>
<circle cx="60.7787" cy="62.7767" r="47.2709" fill="#E4ECFE"/>
<path d="M89.029 103.448H32.6552C31.1888 103.448 30 102.26 30 100.793V24.6552C30 23.1888 31.1888 22 32.6552 22H76.6726L91.6842 35.8569V100.793C91.6842 102.26 90.4955 103.448 89.029 103.448Z" fill="#F5F8FF" stroke="#B7CEFF" stroke-width="2"/>
<path fill-rule="evenodd" clip-rule="evenodd" d="M36.7852 39.0239C36.7852 38.0145 37.6034 37.1963 38.6127 37.1963H73.9995C75.0089 37.1963 75.8271 38.0145 75.8271 39.0239C75.8271 40.0332 75.0089 40.8515 73.9995 40.8515H38.6127C37.6034 40.8515 36.7852 40.0332 36.7852 39.0239ZM36.7852 50.2888C36.7852 49.2794 37.6034 48.4612 38.6127 48.4612H84.2731C85.2825 48.4612 86.1007 49.2794 86.1007 50.2888C86.1007 51.2981 85.2825 52.1164 84.2731 52.1164H38.6127C37.6034 52.1164 36.7852 51.2981 36.7852 50.2888ZM36.7852 61.5537C36.7852 60.5443 37.6034 59.7261 38.6127 59.7261H51.1693C52.1787 59.7261 52.9969 60.5443 52.9969 61.5537C52.9969 62.563 52.1787 63.3813 51.1693 63.3813H38.6127C37.6034 63.3813 36.7852 62.563 36.7852 61.5537ZM57.3323 61.5537C57.3323 60.5443 58.1506 59.7261 59.1599 59.7261H84.2731C85.2825 59.7261 86.1007 60.5443 86.1007 61.5537C86.1007 62.563 85.2825 63.3813 84.2731 63.3813H59.1599C58.1506 63.3813 57.3323 62.563 57.3323 61.5537ZM36.7852 72.8186C36.7852 71.8092 37.6034 70.991 38.6127 70.991H71.7165C72.7259 70.991 73.5441 71.8092 73.5441 72.8186C73.5441 73.8279 72.7259 74.6461 71.7165 74.6461H38.6127C37.6034 74.6461 36.7852 73.8279 36.7852 72.8186ZM77.8795 72.8186C77.8795 71.8092 78.6977 70.991 79.7071 70.991H84.2731C85.2825 70.991 86.1007 71.8092 86.1007 72.8186C86.1007 73.8279 85.2825 74.6461 84.2731 74.6461H79.7071C78.6977 74.6461 77.8795 73.8279 77.8795 72.8186ZM36.7852 82.957C36.7852 81.9476 37.6034 81.1294 38.6127 81.1294H80.8486C81.8579 81.1294 82.6762 81.9476 82.6762 82.957C82.6762 83.9663 81.8579 84.7846 80.8486 84.7846H38.6127C37.6034 84.7846 36.7852 83.9663 36.7852 82.957ZM36.7852 93.0954C36.7852 92.086 37.6034 91.2678 38.6127 91.2678H69.4335C70.4428 91.2678 71.2611 92.086 71.2611 93.0954C71.2611 94.1047 70.4428 94.923 69.4335 94.923H38.6127C37.6034 94.923 36.7852 94.1047 36.7852 93.0954Z" fill="#B7CEFF"/>
<path d="M36.7852 39.0239C36.7852 38.0145 37.6034 37.1963 38.6127 37.1963H73.9995C75.0089 37.1963 75.8271 38.0145 75.8271 39.0239C75.8271 40.0332 75.0089 40.8515 73.9995 40.8515H38.6127C37.6034 40.8515 36.7852 40.0332 36.7852 39.0239Z" fill="#2D56B2"/>
<path d="M77.0625 21L92.6832 35.4191H81.0625C78.8534 35.4191 77.0625 33.6282 77.0625 31.4191V21Z" fill="#B7CEFF"/>
<rect width="14.7292" height="2.53951" rx="1.26976" transform="matrix(-0.707107 0.707107 0.707107 0.707107 20.4141 23)" fill="#2D56B2"/>
<rect width="14.7292" height="2.53951" rx="1.26976" transform="matrix(0.707107 0.707107 0.707107 -0.707107 10 24.7959)" fill="#2D56B2"/>
<circle cx="26.3412" cy="58.3412" r="4.3412" stroke="#5388FE" stroke-width="4"/>
<circle cx="116.608" cy="71.6078" r="3.60776" stroke="#2D56B2" stroke-width="4"/>
<circle cx="10.1101" cy="79.1101" r="1.11008" stroke="#4F86FF" stroke-width="3"/>
<path d="M62.9154 125.958C84.7875 125.958 102.518 124.923 102.518 123.646C102.518 122.369 84.7875 121.334 62.9154 121.334C41.0433 121.334 23.3125 122.369 23.3125 123.646C23.3125 124.923 41.0433 125.958 62.9154 125.958Z" fill="#B7CEFF"/>
<path d="M83.7391 89.7785L89.6896 83.8279L114.21 104.757C117.214 107.32 117.394 111.899 114.602 114.691C111.81 117.483 107.231 117.302 104.668 114.299L83.7391 89.7785Z" fill="#1A3166"/>
<path d="M87.9648 94.7286L104.669 114.3C107.232 117.303 111.811 117.483 114.603 114.691C117.395 111.9 117.215 107.32 114.211 104.757L92.3644 86.1104C91.4853 89.2798 89.9722 92.1977 87.9648 94.7286Z" fill="#2D56B2"/>
<path d="M76.9469 54.0706L61.5663 89.7789C61.3295 89.5956 61.0948 89.4059 60.8643 89.2139C59.3778 87.9567 58.0832 86.4797 57.0234 84.8316L70.3086 53.9877C72.5096 53.6254 74.7552 53.6534 76.9469 54.0706Z" fill="white"/>
<path d="M87.8781 60.2656L73.4172 93.8383C70.4135 93.8416 67.4493 93.1385 64.7539 91.7835L80.5442 55.1221C83.3416 56.2404 85.8506 58.0001 87.8781 60.2656Z" fill="white"/>
<path fill-rule="evenodd" clip-rule="evenodd" d="M64.6255 59.0059C61.8253 60.8284 59.6072 63.4653 58.261 66.5903C56.9146 69.716 56.504 73.1834 57.0839 76.5518C57.6639 79.9199 59.2066 83.0286 61.5078 85.4876C63.8084 87.9458 66.7629 89.6439 69.9937 90.3772C73.2239 91.1104 76.5945 90.8485 79.6821 89.6223L79.6823 89.6222C81.7333 88.8079 83.6113 87.587 85.2076 86.026C86.8039 84.465 88.0871 82.5944 88.9809 80.5194C89.8748 78.4444 90.3609 76.2074 90.4098 73.9367C90.4588 71.666 90.0695 69.4089 89.2656 67.2949L89.2655 67.2947C88.0552 64.1107 85.9522 61.375 83.2321 59.4269C80.5127 57.4794 77.2964 56.4043 73.99 56.3296C70.6836 56.255 67.4249 57.1839 64.6255 59.0059ZM53.0865 64.3613C54.8664 60.2295 57.8092 56.7199 61.5521 54.2838C65.2958 51.8472 69.6687 50.5964 74.1171 50.6969C78.5655 50.7973 82.8792 52.2441 86.5127 54.8463C90.1454 57.448 92.9328 61.0856 94.5321 65.2926C95.5944 68.0863 96.1072 71.0646 96.0427 74.0581C95.9782 77.0517 95.3375 80.0045 94.1555 82.7484C92.9735 85.4925 91.2725 87.9756 89.1468 90.0543C87.021 92.1331 84.512 93.7667 81.7617 94.8587C77.6189 96.5039 73.0886 96.8572 68.7466 95.8717C64.405 94.8863 60.4557 92.6088 57.3941 89.3375C54.3332 86.0668 52.2961 81.9491 51.5314 77.5079C50.7668 73.0669 51.3069 68.4927 53.0865 64.3613Z" fill="#2D56B2"/>
<path d="M112.013 104.953L94.3467 90.4862C93.7991 90.0378 93.1611 90.6684 93.6045 91.2199L107.87 108.963C108.421 109.648 109.216 110.093 110.043 110.179L110.533 110.23C112.225 110.407 113.498 109.07 113.248 107.379L113.19 106.985C113.076 106.209 112.65 105.474 112.013 104.953Z" fill="#9FBDFF"/>
<rect width="22.9185" height="3.95147" rx="1.97574" transform="matrix(-0.707107 0.707107 0.707107 0.707107 80.207 64)" fill="#2D56B2"/>
<rect width="22.9185" height="3.95147" rx="1.97574" transform="matrix(0.707107 0.707107 0.707107 -0.707107 64 66.7939)" fill="#2D56B2"/>
<rect width="12.8004" height="2.20696" rx="1.10348" transform="matrix(-0.707107 0.707107 0.707107 0.707107 111.051 39)" fill="#5388FE"/>
<rect width="12.8004" height="2.20696" rx="1.10348" transform="matrix(0.707107 0.707107 0.707107 -0.707107 102 40.5605)" fill="#5388FE"/>
<rect width="10.8561" height="1.87174" rx="0.935869" transform="matrix(-0.707107 0.707107 0.707107 0.707107 44.6758 109)" fill="#2D56B2"/>
<rect width="10.8561" height="1.87174" rx="0.935869" transform="matrix(0.707107 0.707107 0.707107 -0.707107 37 110.323)" fill="#2D56B2"/>
</g>
<defs>
<clipPath id="clip0_2436_6633">
<rect width="128" height="128" fill="white"/>
</clipPath>
</defs>
</svg>
