<svg width="23" height="24" viewBox="0 0 23 24" fill="none" xmlns="http://www.w3.org/2000/svg">
<path d="M22.1185 9.97692L17.2181 15.3552L18.3744 22.9576C18.4216 23.2942 18.3036 23.6221 18.0598 23.8259C17.926 23.9411 17.7609 23.9942 17.5957 23.9942C17.4698 23.9942 17.344 23.9588 17.226 23.8968L11.1694 20.3083L5.11283 23.8968C4.84539 24.0563 4.53076 24.0297 4.28693 23.8259C4.04309 23.6309 3.92511 23.2942 3.9723 22.9576L5.12856 15.3552L0.236093 9.97692C0.0237194 9.73769 -0.0549376 9.39213 0.0394508 9.07315C0.133839 8.75417 0.377676 8.51494 0.676572 8.47064L7.44894 7.36307L10.4772 0.451885C10.7447 -0.150628 11.6256 -0.150628 11.8852 0.451885L14.9135 7.36307L21.6859 8.47064C21.9847 8.5238 22.2286 8.75417 22.323 9.07315C22.4174 9.39213 22.3387 9.73769 22.1185 9.97692Z" fill="#FF5A3C"/>
</svg>
