<svg width="383" height="144" viewBox="0 0 383 144" fill="none" xmlns="http://www.w3.org/2000/svg">
<rect x="1" y="1" width="381" height="142" rx="7" fill="#F8F8FD"/>
<g clip-path="url(#clip0_657_6446)">
<path d="M195.5 34.6665H195.513" stroke="#4640DE" stroke-width="2" stroke-linecap="round" stroke-linejoin="round"/>
<path d="M198.167 29.3335H184.834C182.625 29.3335 180.834 31.1244 180.834 33.3335V46.6668C180.834 48.876 182.625 50.6668 184.834 50.6668H198.167C200.376 50.6668 202.167 48.876 202.167 46.6668V33.3335C202.167 31.1244 200.376 29.3335 198.167 29.3335Z" stroke="#4640DE" stroke-width="2" stroke-linecap="round" stroke-linejoin="round"/>
<path d="M180.834 43.9999L186.167 38.6666C186.775 38.0815 187.465 37.7734 188.167 37.7734C188.869 37.7734 189.559 38.0815 190.167 38.6666L196.834 45.3333" stroke="#4640DE" stroke-width="2" stroke-linecap="round" stroke-linejoin="round"/>
<path d="M194.166 42.6664L195.499 41.3331C196.107 40.748 196.797 40.4399 197.499 40.4399C198.201 40.4399 198.891 40.748 199.499 41.3331L202.166 43.9998" stroke="#4640DE" stroke-width="2" stroke-linecap="round" stroke-linejoin="round"/>
</g>
<path d="M71.072 76.824C71.072 77.3147 70.9813 77.8133 70.8 78.32C70.6187 78.8267 70.344 79.296 69.976 79.728C69.608 80.16 69.144 80.5093 68.584 80.776C68.024 81.0373 67.3653 81.168 66.608 81.168C65.5787 81.168 64.7013 80.9093 63.976 80.392C63.256 79.8693 62.7067 79.152 62.328 78.24C61.9493 77.328 61.76 76.2827 61.76 75.104C61.76 73.92 61.9493 72.8747 62.328 71.968C62.7067 71.056 63.256 70.3413 63.976 69.824C64.7013 69.3067 65.5787 69.048 66.608 69.048C67.4667 69.048 68.1973 69.216 68.8 69.552C69.408 69.888 69.8907 70.32 70.248 70.848C70.6107 71.376 70.8507 71.9253 70.968 72.496C71.0373 72.8053 71.072 73.0987 71.072 73.376H69.328C69.328 73.2267 69.3147 73.064 69.288 72.888C69.2293 72.4613 69.0853 72.0693 68.856 71.712C68.632 71.3547 68.3307 71.0693 67.952 70.856C67.5787 70.6427 67.1307 70.536 66.608 70.536C66 70.536 65.464 70.7067 65 71.048C64.536 71.384 64.1733 71.8907 63.912 72.568C63.656 73.2453 63.528 74.0907 63.528 75.104C63.528 76.112 63.656 76.9573 63.912 77.64C64.1733 78.3173 64.536 78.8293 65 79.176C65.464 79.5173 66 79.688 66.608 79.688C67.0507 79.688 67.44 79.608 67.776 79.448C68.112 79.288 68.3947 79.072 68.624 78.8C68.8533 78.528 69.0267 78.2213 69.144 77.88C69.2667 77.5387 69.328 77.1867 69.328 76.824H71.072ZM74.7961 68.496V81H73.0841V68.496H74.7961ZM77.1444 81V72.504H78.8564V81H77.1444ZM78.0084 70.744C77.7097 70.744 77.451 70.664 77.2324 70.504C77.019 70.3387 76.9124 70.112 76.9124 69.824C76.9124 69.5413 77.019 69.32 77.2324 69.16C77.451 68.9947 77.7097 68.912 78.0084 68.912C78.3017 68.912 78.555 68.9947 78.7684 69.16C78.987 69.32 79.0964 69.5413 79.0964 69.824C79.0964 70.112 78.987 70.3387 78.7684 70.504C78.555 70.664 78.3017 70.744 78.0084 70.744ZM85.2873 81.168C84.4339 81.168 83.6686 80.9893 82.9913 80.632C82.3193 80.2693 81.7886 79.7547 81.3993 79.088C81.0153 78.4213 80.8233 77.6373 80.8233 76.736C80.8233 75.8347 81.0153 75.0587 81.3993 74.408C81.7886 73.752 82.3193 73.248 82.9913 72.896C83.6686 72.544 84.4339 72.368 85.2873 72.368C85.9326 72.368 86.5059 72.4667 87.0073 72.664C87.5086 72.856 87.9326 73.112 88.2793 73.432C88.6259 73.752 88.8899 74.104 89.0712 74.488C89.2526 74.872 89.3433 75.256 89.3433 75.64C89.3433 75.6453 89.3433 75.6533 89.3433 75.664C89.3433 75.6747 89.3433 75.6853 89.3433 75.696H87.6233C87.6233 75.6693 87.6206 75.64 87.6153 75.608C87.6099 75.5707 87.6046 75.536 87.5993 75.504C87.5566 75.1893 87.4339 74.9093 87.2313 74.664C87.0286 74.4187 86.7619 74.224 86.4313 74.08C86.1006 73.936 85.7139 73.864 85.2713 73.864C84.7859 73.864 84.3379 73.9707 83.9273 74.184C83.5219 74.392 83.1966 74.7093 82.9513 75.136C82.7059 75.5627 82.5833 76.096 82.5833 76.736C82.5833 77.376 82.7033 77.9147 82.9433 78.352C83.1886 78.784 83.5139 79.112 83.9193 79.336C84.3299 79.56 84.7806 79.672 85.2713 79.672C85.7993 79.672 86.2313 79.592 86.5673 79.432C86.9033 79.2667 87.1566 79.048 87.3273 78.776C87.4979 78.4987 87.5966 78.2 87.6233 77.88H89.3433C89.3433 78.264 89.2553 78.6533 89.0793 79.048C88.9033 79.4373 88.6446 79.792 88.3033 80.112C87.9619 80.432 87.5379 80.688 87.0313 80.88C86.5299 81.072 85.9486 81.168 85.2873 81.168ZM91.261 81V68.496H92.909V75.992L92.485 75.792L96.277 72.504H98.461L94.349 76.144L94.765 75.368L98.461 81H96.613L93.637 76.304L94.029 76.424L92.693 77.608L92.909 76.816V81H91.261ZM107.424 81.144C107.142 81.144 106.859 81.1147 106.576 81.056C106.299 80.9973 106.043 80.8907 105.808 80.736C105.579 80.576 105.395 80.3493 105.256 80.056C105.118 79.7627 105.048 79.3787 105.048 78.904C105.048 78.792 105.048 78.6747 105.048 78.552C105.048 78.4293 105.048 78.304 105.048 78.176V73.944H103.008V72.504H104.08C104.31 72.504 104.488 72.496 104.616 72.48C104.75 72.4587 104.846 72.4133 104.904 72.344C104.968 72.2693 105.008 72.152 105.024 71.992C105.04 71.832 105.048 71.6133 105.048 71.336V69.696H106.784V72.504H109.384V73.944H106.784V77.712C106.784 77.8187 106.784 77.9253 106.784 78.032C106.784 78.1387 106.784 78.2373 106.784 78.328C106.784 78.7547 106.835 79.0907 106.936 79.336C107.043 79.5813 107.283 79.704 107.656 79.704C107.816 79.704 107.968 79.6907 108.112 79.664C108.256 79.6373 108.366 79.608 108.44 79.576V80.992C108.344 81.0293 108.208 81.064 108.032 81.096C107.856 81.128 107.654 81.144 107.424 81.144ZM114.896 81.16C114.022 81.16 113.248 80.9707 112.576 80.592C111.91 80.2133 111.387 79.6933 111.008 79.032C110.635 78.3653 110.448 77.6027 110.448 76.744C110.448 75.8907 110.635 75.136 111.008 74.48C111.387 73.8187 111.91 73.304 112.576 72.936C113.248 72.5627 114.022 72.376 114.896 72.376C115.771 72.376 116.542 72.5627 117.208 72.936C117.88 73.304 118.403 73.8187 118.776 74.48C119.155 75.136 119.344 75.8907 119.344 76.744C119.344 77.6027 119.155 78.3653 118.776 79.032C118.403 79.6933 117.88 80.2133 117.208 80.592C116.542 80.9707 115.771 81.16 114.896 81.16ZM114.896 79.672C115.43 79.672 115.899 79.552 116.304 79.312C116.71 79.072 117.027 78.7333 117.256 78.296C117.486 77.8533 117.6 77.336 117.6 76.744C117.6 76.1573 117.486 75.648 117.256 75.216C117.027 74.784 116.71 74.4507 116.304 74.216C115.899 73.9813 115.43 73.864 114.896 73.864C114.368 73.864 113.899 73.9813 113.488 74.216C113.083 74.4507 112.766 74.784 112.536 75.216C112.307 75.648 112.192 76.1573 112.192 76.744C112.192 77.336 112.307 77.8533 112.536 78.296C112.766 78.7333 113.083 79.072 113.488 79.312C113.899 79.552 114.368 79.672 114.896 79.672ZM125.277 81V72.504H127.013V75.216L126.549 75.008C126.586 74.6613 126.674 74.3307 126.813 74.016C126.951 73.7013 127.135 73.4213 127.365 73.176C127.599 72.9253 127.887 72.728 128.229 72.584C128.57 72.44 128.965 72.368 129.413 72.368C129.754 72.368 130.029 72.3947 130.237 72.448C130.45 72.5013 130.581 72.544 130.629 72.576L130.261 74.208C130.207 74.1707 130.098 74.1227 129.933 74.064C129.773 74.0053 129.549 73.976 129.261 73.976C128.823 73.976 128.461 74.0533 128.173 74.208C127.885 74.3627 127.655 74.568 127.485 74.824C127.314 75.08 127.191 75.36 127.117 75.664C127.047 75.9627 127.013 76.264 127.013 76.568V81H125.277ZM132.486 77.36V76.008H138.742L138.502 76.408C138.502 76.376 138.502 76.344 138.502 76.312C138.502 76.2747 138.502 76.2427 138.502 76.216C138.502 75.784 138.409 75.3867 138.222 75.024C138.036 74.656 137.756 74.3627 137.382 74.144C137.014 73.92 136.553 73.808 135.998 73.808C135.444 73.808 134.956 73.928 134.534 74.168C134.118 74.4027 133.793 74.7387 133.558 75.176C133.329 75.608 133.214 76.128 133.214 76.736C133.214 77.3547 133.326 77.888 133.55 78.336C133.774 78.7787 134.097 79.12 134.518 79.36C134.94 79.6 135.444 79.72 136.03 79.72C136.441 79.72 136.796 79.68 137.094 79.6C137.398 79.5147 137.646 79.4027 137.838 79.264C138.036 79.1253 138.185 78.976 138.286 78.816C138.388 78.6507 138.446 78.488 138.462 78.328H140.19C140.158 78.6747 140.044 79.0187 139.846 79.36C139.654 79.696 139.38 80.0027 139.022 80.28C138.67 80.552 138.238 80.7707 137.726 80.936C137.22 81.096 136.636 81.176 135.974 81.176C135.089 81.176 134.313 80.9893 133.646 80.616C132.98 80.2427 132.46 79.7253 132.086 79.064C131.713 78.3973 131.526 77.6347 131.526 76.776C131.526 75.9013 131.716 75.1333 132.094 74.472C132.473 73.8107 132.998 73.296 133.67 72.928C134.342 72.5547 135.113 72.368 135.982 72.368C136.868 72.368 137.633 72.5547 138.278 72.928C138.929 73.3013 139.43 73.816 139.782 74.472C140.134 75.128 140.31 75.8827 140.31 76.736C140.31 76.8373 140.308 76.9547 140.302 77.088C140.297 77.2213 140.289 77.312 140.278 77.36H132.486ZM142.245 84.496V72.504H143.981V84.496H142.245ZM146.717 81.168C146.056 81.168 145.443 81.0027 144.877 80.672C144.312 80.336 143.853 79.8773 143.501 79.296C143.155 78.7147 142.981 78.056 142.981 77.32C142.981 77.2987 142.981 77.2827 142.981 77.272C142.981 77.256 142.981 77.24 142.981 77.224L143.989 77.2C143.989 77.2107 143.989 77.224 143.989 77.24C143.989 77.2507 143.989 77.264 143.989 77.28C143.989 77.7173 144.101 78.112 144.325 78.464C144.555 78.8107 144.851 79.0853 145.213 79.288C145.576 79.4907 145.965 79.592 146.381 79.592C147.064 79.592 147.637 79.36 148.101 78.896C148.571 78.4267 148.805 77.7067 148.805 76.736C148.805 75.76 148.573 75.0427 148.109 74.584C147.645 74.12 147.069 73.888 146.381 73.888C145.965 73.888 145.576 73.9893 145.213 74.192C144.851 74.3893 144.555 74.6613 144.325 75.008C144.101 75.3493 143.989 75.7413 143.989 76.184L142.981 76.144C142.981 75.4027 143.155 74.7493 143.501 74.184C143.853 73.6133 144.312 73.168 144.877 72.848C145.443 72.528 146.056 72.368 146.717 72.368C147.405 72.368 148.043 72.5387 148.629 72.88C149.216 73.216 149.688 73.7093 150.045 74.36C150.408 75.0107 150.589 75.8027 150.589 76.736C150.589 77.6907 150.413 78.4987 150.061 79.16C149.709 79.8213 149.24 80.3227 148.653 80.664C148.067 81 147.421 81.168 146.717 81.168ZM154.343 68.496V81H152.631V68.496H154.343ZM159.611 81.168C158.971 81.168 158.409 81.0667 157.923 80.864C157.443 80.6613 157.07 80.3707 156.803 79.992C156.537 79.6133 156.403 79.1573 156.403 78.624C156.403 78.0533 156.553 77.5813 156.851 77.208C157.155 76.8347 157.571 76.5467 158.099 76.344C158.633 76.136 159.238 76 159.915 75.936C160.923 75.8347 161.633 75.736 162.043 75.64C162.459 75.544 162.667 75.3867 162.667 75.168C162.667 75.1627 162.667 75.1573 162.667 75.152C162.667 74.72 162.483 74.392 162.115 74.168C161.747 73.944 161.222 73.832 160.539 73.832C159.819 73.832 159.262 73.96 158.867 74.216C158.478 74.4667 158.283 74.8667 158.283 75.416H156.579C156.579 74.7653 156.747 74.2133 157.083 73.76C157.425 73.3067 157.894 72.9627 158.491 72.728C159.089 72.488 159.774 72.368 160.547 72.368C161.257 72.368 161.902 72.4773 162.483 72.696C163.07 72.9093 163.537 73.2293 163.883 73.656C164.23 74.0827 164.403 74.6133 164.403 75.248C164.403 75.36 164.403 75.472 164.403 75.584C164.403 75.6907 164.403 75.8 164.403 75.912V79.304C164.403 79.5013 164.411 79.6933 164.427 79.88C164.443 80.0613 164.473 80.224 164.515 80.368C164.563 80.5333 164.619 80.6693 164.683 80.776C164.753 80.8827 164.809 80.9573 164.851 81H163.123C163.091 80.968 163.043 80.9013 162.979 80.8C162.921 80.6933 162.867 80.5707 162.819 80.432C162.771 80.2987 162.734 80.1467 162.707 79.976C162.686 79.8 162.675 79.6107 162.675 79.408L162.995 79.632C162.835 79.9413 162.593 80.2107 162.267 80.44C161.947 80.6693 161.561 80.848 161.107 80.976C160.659 81.104 160.161 81.168 159.611 81.168ZM159.971 79.728C160.467 79.728 160.918 79.6507 161.323 79.496C161.734 79.336 162.062 79.096 162.307 78.776C162.553 78.4507 162.675 78.0427 162.675 77.552V76.144L163.083 76.68C162.742 76.8133 162.323 76.9227 161.827 77.008C161.337 77.088 160.83 77.1547 160.307 77.208C159.587 77.272 159.046 77.3973 158.683 77.584C158.321 77.7653 158.139 78.0693 158.139 78.496C158.139 78.9067 158.289 79.216 158.587 79.424C158.891 79.6267 159.353 79.728 159.971 79.728ZM170.631 81.168C169.778 81.168 169.012 80.9893 168.335 80.632C167.663 80.2693 167.132 79.7547 166.743 79.088C166.359 78.4213 166.167 77.6373 166.167 76.736C166.167 75.8347 166.359 75.0587 166.743 74.408C167.132 73.752 167.663 73.248 168.335 72.896C169.012 72.544 169.778 72.368 170.631 72.368C171.276 72.368 171.85 72.4667 172.351 72.664C172.852 72.856 173.276 73.112 173.623 73.432C173.97 73.752 174.234 74.104 174.415 74.488C174.596 74.872 174.687 75.256 174.687 75.64C174.687 75.6453 174.687 75.6533 174.687 75.664C174.687 75.6747 174.687 75.6853 174.687 75.696H172.967C172.967 75.6693 172.964 75.64 172.959 75.608C172.954 75.5707 172.948 75.536 172.943 75.504C172.9 75.1893 172.778 74.9093 172.575 74.664C172.372 74.4187 172.106 74.224 171.775 74.08C171.444 73.936 171.058 73.864 170.615 73.864C170.13 73.864 169.682 73.9707 169.271 74.184C168.866 74.392 168.54 74.7093 168.295 75.136C168.05 75.5627 167.927 76.096 167.927 76.736C167.927 77.376 168.047 77.9147 168.287 78.352C168.532 78.784 168.858 79.112 169.263 79.336C169.674 79.56 170.124 79.672 170.615 79.672C171.143 79.672 171.575 79.592 171.911 79.432C172.247 79.2667 172.5 79.048 172.671 78.776C172.842 78.4987 172.94 78.2 172.967 77.88H174.687C174.687 78.264 174.599 78.6533 174.423 79.048C174.247 79.4373 173.988 79.792 173.647 80.112C173.306 80.432 172.882 80.688 172.375 80.88C171.874 81.072 171.292 81.168 170.631 81.168ZM177.221 77.36V76.008H183.477L183.237 76.408C183.237 76.376 183.237 76.344 183.237 76.312C183.237 76.2747 183.237 76.2427 183.237 76.216C183.237 75.784 183.143 75.3867 182.957 75.024C182.77 74.656 182.49 74.3627 182.117 74.144C181.749 73.92 181.287 73.808 180.733 73.808C180.178 73.808 179.69 73.928 179.269 74.168C178.853 74.4027 178.527 74.7387 178.293 75.176C178.063 75.608 177.949 76.128 177.949 76.736C177.949 77.3547 178.061 77.888 178.285 78.336C178.509 78.7787 178.831 79.12 179.253 79.36C179.674 79.6 180.178 79.72 180.765 79.72C181.175 79.72 181.53 79.68 181.829 79.6C182.133 79.5147 182.381 79.4027 182.573 79.264C182.77 79.1253 182.919 78.976 183.021 78.816C183.122 78.6507 183.181 78.488 183.197 78.328H184.925C184.893 78.6747 184.778 79.0187 184.581 79.36C184.389 79.696 184.114 80.0027 183.757 80.28C183.405 80.552 182.973 80.7707 182.461 80.936C181.954 81.096 181.37 81.176 180.709 81.176C179.823 81.176 179.047 80.9893 178.381 80.616C177.714 80.2427 177.194 79.7253 176.821 79.064C176.447 78.3973 176.261 77.6347 176.261 76.776C176.261 75.9013 176.45 75.1333 176.829 74.472C177.207 73.8107 177.733 73.296 178.405 72.928C179.077 72.5547 179.847 72.368 180.717 72.368C181.602 72.368 182.367 72.5547 183.013 72.928C183.663 73.3013 184.165 73.816 184.517 74.472C184.869 75.128 185.045 75.8827 185.045 76.736C185.045 76.8373 185.042 76.9547 185.037 77.088C185.031 77.2213 185.023 77.312 185.013 77.36H177.221Z" fill="#4640DE"/>
<path d="M195.092 81.152C194.238 81.152 193.484 80.9627 192.828 80.584C192.177 80.2 191.665 79.6773 191.292 79.016C190.924 78.3493 190.74 77.592 190.74 76.744C190.74 75.896 190.924 75.144 191.292 74.488C191.665 73.832 192.177 73.3173 192.828 72.944C193.484 72.5707 194.238 72.384 195.092 72.384C195.945 72.384 196.697 72.5707 197.348 72.944C198.004 73.3173 198.516 73.832 198.884 74.488C199.257 75.144 199.444 75.896 199.444 76.744C199.444 77.592 199.257 78.3493 198.884 79.016C198.516 79.6773 198.004 80.2 197.348 80.584C196.697 80.9627 195.945 81.152 195.092 81.152ZM195.092 79.904C195.678 79.904 196.196 79.7733 196.644 79.512C197.092 79.2507 197.441 78.8827 197.692 78.408C197.948 77.9333 198.076 77.3787 198.076 76.744C198.076 76.1093 197.948 75.56 197.692 75.096C197.441 74.6267 197.092 74.2667 196.644 74.016C196.196 73.76 195.678 73.632 195.092 73.632C194.51 73.632 193.993 73.76 193.54 74.016C193.092 74.2667 192.74 74.6267 192.484 75.096C192.233 75.56 192.108 76.1093 192.108 76.744C192.108 77.3787 192.233 77.9333 192.484 78.408C192.74 78.8827 193.092 79.2507 193.54 79.512C193.993 79.7733 194.51 79.904 195.092 79.904ZM201.568 81V72.504H202.928V75.112L202.48 74.952C202.512 74.6373 202.592 74.328 202.72 74.024C202.848 73.7147 203.024 73.4373 203.248 73.192C203.477 72.9413 203.762 72.744 204.104 72.6C204.445 72.4507 204.845 72.376 205.304 72.376C205.645 72.376 205.922 72.4053 206.136 72.464C206.354 72.5173 206.49 72.56 206.544 72.592L206.192 73.928C206.138 73.8907 206.029 73.8427 205.864 73.784C205.704 73.7253 205.474 73.696 205.176 73.696C204.733 73.696 204.365 73.776 204.072 73.936C203.784 74.096 203.554 74.3093 203.384 74.576C203.218 74.8373 203.101 75.1227 203.032 75.432C202.962 75.7413 202.928 76.048 202.928 76.352V81H201.568ZM215.509 81.16C214.811 81.16 214.171 80.992 213.589 80.656C213.008 80.3147 212.544 79.816 212.197 79.16C211.851 78.4987 211.677 77.6933 211.677 76.744C211.677 75.8107 211.853 75.0187 212.205 74.368C212.557 73.7173 213.024 73.224 213.605 72.888C214.187 72.5467 214.821 72.376 215.509 72.376C216.165 72.376 216.779 72.5333 217.349 72.848C217.925 73.1573 218.389 73.5893 218.741 74.144C219.093 74.6987 219.269 75.3413 219.269 76.072C219.269 76.088 219.269 76.104 219.269 76.12C219.269 76.136 219.269 76.152 219.269 76.168L218.293 76.208C218.293 76.192 218.293 76.176 218.293 76.16C218.293 76.1387 218.293 76.12 218.293 76.104C218.293 75.64 218.171 75.2213 217.925 74.848C217.685 74.4747 217.368 74.1787 216.973 73.96C216.579 73.736 216.155 73.624 215.701 73.624C214.944 73.624 214.317 73.88 213.821 74.392C213.325 74.8987 213.077 75.6827 213.077 76.744C213.077 77.8 213.325 78.5867 213.821 79.104C214.323 79.616 214.949 79.872 215.701 79.872C216.176 79.872 216.608 79.7573 216.997 79.528C217.392 79.2987 217.707 78.992 217.941 78.608C218.176 78.2187 218.293 77.784 218.293 77.304L219.269 77.328C219.269 78.0533 219.101 78.7067 218.765 79.288C218.429 79.864 217.976 80.32 217.405 80.656C216.84 80.992 216.208 81.16 215.509 81.16ZM218.293 81V68.496H219.661V81H218.293ZM222.052 81V72.504H223.412V75.112L222.964 74.952C222.996 74.6373 223.076 74.328 223.204 74.024C223.332 73.7147 223.508 73.4373 223.732 73.192C223.961 72.9413 224.247 72.744 224.588 72.6C224.929 72.4507 225.329 72.376 225.788 72.376C226.129 72.376 226.407 72.4053 226.62 72.464C226.839 72.5173 226.975 72.56 227.028 72.592L226.676 73.928C226.623 73.8907 226.513 73.8427 226.348 73.784C226.188 73.7253 225.959 73.696 225.66 73.696C225.217 73.696 224.849 73.776 224.556 73.936C224.268 74.096 224.039 74.3093 223.868 74.576C223.703 74.8373 223.585 75.1227 223.516 75.432C223.447 75.7413 223.412 76.048 223.412 76.352V81H222.052ZM231.301 81.16C230.656 81.16 230.091 81.0587 229.605 80.856C229.125 80.6533 228.752 80.3627 228.485 79.984C228.219 79.6 228.085 79.1413 228.085 78.608C228.085 78.0533 228.229 77.592 228.517 77.224C228.805 76.8507 229.211 76.56 229.733 76.352C230.256 76.144 230.864 76.0053 231.557 75.936C232.603 75.8293 233.347 75.7253 233.789 75.624C234.232 75.5173 234.453 75.3467 234.453 75.112C234.453 75.1067 234.453 75.104 234.453 75.104C234.453 75.0987 234.453 75.0933 234.453 75.088C234.453 74.5973 234.253 74.232 233.853 73.992C233.453 73.7467 232.875 73.624 232.117 73.624C231.328 73.624 230.715 73.7627 230.277 74.04C229.84 74.312 229.621 74.7547 229.621 75.368H228.277C228.277 74.7333 228.44 74.1947 228.765 73.752C229.091 73.304 229.541 72.9627 230.117 72.728C230.699 72.4933 231.368 72.376 232.125 72.376C232.819 72.376 233.443 72.4827 233.997 72.696C234.557 72.904 235 73.216 235.325 73.632C235.656 74.0427 235.821 74.552 235.821 75.16C235.821 75.272 235.821 75.384 235.821 75.496C235.821 75.6027 235.821 75.712 235.821 75.824V79.4C235.821 79.5867 235.829 79.768 235.845 79.944C235.861 80.12 235.888 80.2747 235.925 80.408C235.973 80.568 236.027 80.6987 236.085 80.8C236.144 80.896 236.192 80.9627 236.229 81H234.861C234.835 80.9733 234.795 80.912 234.741 80.816C234.688 80.7147 234.637 80.5973 234.589 80.464C234.552 80.3573 234.523 80.224 234.501 80.064C234.48 79.8987 234.469 79.728 234.469 79.552L234.693 79.704C234.528 79.992 234.285 80.2453 233.965 80.464C233.651 80.6827 233.269 80.8533 232.821 80.976C232.373 81.0987 231.867 81.16 231.301 81.16ZM231.517 79.936C232.067 79.936 232.563 79.8533 233.005 79.688C233.448 79.5173 233.8 79.2667 234.061 78.936C234.323 78.6053 234.453 78.1947 234.453 77.704V76.016L234.757 76.528C234.416 76.6613 233.989 76.7707 233.477 76.856C232.971 76.936 232.44 77.0027 231.885 77.056C231.08 77.1307 230.472 77.272 230.061 77.48C229.656 77.688 229.453 78.0373 229.453 78.528C229.453 78.992 229.621 79.344 229.957 79.584C230.293 79.8187 230.813 79.936 231.517 79.936ZM243.507 80.48C243.966 80.5173 244.369 80.6027 244.715 80.736C245.067 80.864 245.342 81.0533 245.539 81.304C245.737 81.56 245.835 81.8933 245.835 82.304C245.835 82.7573 245.681 83.1573 245.371 83.504C245.062 83.856 244.593 84.1307 243.963 84.328C243.334 84.5253 242.542 84.624 241.587 84.624C240.238 84.624 239.219 84.4267 238.531 84.032C237.843 83.6427 237.499 83.1093 237.499 82.432C237.499 82.2187 237.523 82.0293 237.571 81.864C237.625 81.704 237.683 81.5733 237.747 81.472L239.043 81.664C239.001 81.7227 238.958 81.8107 238.915 81.928C238.878 82.0507 238.859 82.192 238.859 82.352C238.859 82.7787 239.102 83.0773 239.587 83.248C240.073 83.424 240.761 83.512 241.651 83.512C242.318 83.512 242.865 83.4667 243.291 83.376C243.718 83.2853 244.035 83.1547 244.243 82.984C244.451 82.8133 244.555 82.6133 244.555 82.384C244.555 82.0373 244.409 81.8213 244.115 81.736C243.827 81.656 243.47 81.6 243.043 81.568L239.811 81.328C239.273 81.2853 238.833 81.12 238.491 80.832C238.155 80.5387 237.987 80.184 237.987 79.768C237.987 79.512 238.049 79.2693 238.171 79.04C238.299 78.8107 238.446 78.6187 238.611 78.464C238.782 78.304 238.934 78.208 239.067 78.176L240.139 78.664C240.006 78.6853 239.841 78.7787 239.643 78.944C239.451 79.104 239.355 79.2933 239.355 79.512C239.355 79.7093 239.433 79.872 239.587 80C239.742 80.1227 240.049 80.2027 240.507 80.24L243.507 80.48ZM244.683 72.504H245.963L245.435 75.848C245.339 76.472 245.139 77.0373 244.835 77.544C244.531 78.0453 244.115 78.4453 243.587 78.744C243.065 79.0373 242.417 79.184 241.643 79.184C240.838 79.184 240.15 79.0373 239.579 78.744C239.009 78.4507 238.571 78.0507 238.267 77.544C237.963 77.032 237.811 76.456 237.811 75.816C237.811 75.1653 237.969 74.5813 238.283 74.064C238.603 73.5413 239.046 73.1307 239.611 72.832C240.177 72.528 240.825 72.376 241.555 72.376C242.211 72.376 242.785 72.4907 243.275 72.72C243.766 72.944 244.153 73.2267 244.435 73.568C244.723 73.9093 244.883 74.2533 244.915 74.6L244.403 74.632L244.683 72.504ZM241.635 77.968C242.153 77.968 242.595 77.8827 242.963 77.712C243.337 77.5413 243.622 77.2933 243.819 76.968C244.022 76.6427 244.123 76.248 244.123 75.784C244.123 75.336 244.022 74.9493 243.819 74.624C243.622 74.2933 243.337 74.04 242.963 73.864C242.595 73.6827 242.155 73.592 241.643 73.592C241.153 73.592 240.718 73.6853 240.339 73.872C239.966 74.0533 239.673 74.3093 239.459 74.64C239.251 74.9707 239.147 75.36 239.147 75.808C239.147 76.2613 239.246 76.6507 239.443 76.976C239.646 77.296 239.931 77.5413 240.299 77.712C240.673 77.8827 241.118 77.968 241.635 77.968ZM254.801 81.16C254.156 81.16 253.591 81.0587 253.105 80.856C252.625 80.6533 252.252 80.3627 251.985 79.984C251.719 79.6 251.585 79.1413 251.585 78.608C251.585 78.0533 251.729 77.592 252.017 77.224C252.305 76.8507 252.711 76.56 253.233 76.352C253.756 76.144 254.364 76.0053 255.057 75.936C256.103 75.8293 256.847 75.7253 257.289 75.624C257.732 75.5173 257.953 75.3467 257.953 75.112C257.953 75.1067 257.953 75.104 257.953 75.104C257.953 75.0987 257.953 75.0933 257.953 75.088C257.953 74.5973 257.753 74.232 257.353 73.992C256.953 73.7467 256.375 73.624 255.617 73.624C254.828 73.624 254.215 73.7627 253.777 74.04C253.34 74.312 253.121 74.7547 253.121 75.368H251.777C251.777 74.7333 251.94 74.1947 252.265 73.752C252.591 73.304 253.041 72.9627 253.617 72.728C254.199 72.4933 254.868 72.376 255.625 72.376C256.319 72.376 256.943 72.4827 257.497 72.696C258.057 72.904 258.5 73.216 258.825 73.632C259.156 74.0427 259.321 74.552 259.321 75.16C259.321 75.272 259.321 75.384 259.321 75.496C259.321 75.6027 259.321 75.712 259.321 75.824V79.4C259.321 79.5867 259.329 79.768 259.345 79.944C259.361 80.12 259.388 80.2747 259.425 80.408C259.473 80.568 259.527 80.6987 259.585 80.8C259.644 80.896 259.692 80.9627 259.729 81H258.361C258.335 80.9733 258.295 80.912 258.241 80.816C258.188 80.7147 258.137 80.5973 258.089 80.464C258.052 80.3573 258.023 80.224 258.001 80.064C257.98 79.8987 257.969 79.728 257.969 79.552L258.193 79.704C258.028 79.992 257.785 80.2453 257.465 80.464C257.151 80.6827 256.769 80.8533 256.321 80.976C255.873 81.0987 255.367 81.16 254.801 81.16ZM255.017 79.936C255.567 79.936 256.063 79.8533 256.505 79.688C256.948 79.5173 257.3 79.2667 257.561 78.936C257.823 78.6053 257.953 78.1947 257.953 77.704V76.016L258.257 76.528C257.916 76.6613 257.489 76.7707 256.977 76.856C256.471 76.936 255.94 77.0027 255.385 77.056C254.58 77.1307 253.972 77.272 253.561 77.48C253.156 77.688 252.953 78.0373 252.953 78.528C252.953 78.992 253.121 79.344 253.457 79.584C253.793 79.8187 254.313 79.936 255.017 79.936ZM267.663 81V76.928C267.663 76.6827 267.663 76.4827 267.663 76.328C267.663 76.168 267.663 76.016 267.663 75.872C267.663 75.4293 267.589 75.0427 267.439 74.712C267.29 74.3813 267.055 74.1253 266.735 73.944C266.415 73.7627 265.997 73.672 265.479 73.672C265.026 73.672 264.605 73.7893 264.215 74.024C263.831 74.2533 263.522 74.5653 263.287 74.96C263.058 75.3493 262.943 75.7867 262.943 76.272L262.167 75.976C262.167 75.3093 262.33 74.704 262.655 74.16C262.986 73.616 263.423 73.184 263.967 72.864C264.517 72.5387 265.114 72.376 265.759 72.376C266.415 72.376 266.989 72.5013 267.479 72.752C267.97 73.0027 268.349 73.3627 268.615 73.832C268.887 74.296 269.023 74.856 269.023 75.512C269.023 75.7467 269.023 76.0027 269.023 76.28C269.023 76.5573 269.023 76.816 269.023 77.056V81H267.663ZM261.583 81V72.504H262.943V81H261.583ZM274.9 81.16C274.201 81.16 273.561 80.992 272.98 80.656C272.399 80.3147 271.935 79.816 271.588 79.16C271.241 78.4987 271.068 77.6933 271.068 76.744C271.068 75.8107 271.244 75.0187 271.596 74.368C271.948 73.7173 272.415 73.224 272.996 72.888C273.577 72.5467 274.212 72.376 274.9 72.376C275.556 72.376 276.169 72.5333 276.74 72.848C277.316 73.1573 277.78 73.5893 278.132 74.144C278.484 74.6987 278.66 75.3413 278.66 76.072C278.66 76.088 278.66 76.104 278.66 76.12C278.66 76.136 278.66 76.152 278.66 76.168L277.684 76.208C277.684 76.192 277.684 76.176 277.684 76.16C277.684 76.1387 277.684 76.12 277.684 76.104C277.684 75.64 277.561 75.2213 277.316 74.848C277.076 74.4747 276.759 74.1787 276.364 73.96C275.969 73.736 275.545 73.624 275.092 73.624C274.335 73.624 273.708 73.88 273.212 74.392C272.716 74.8987 272.468 75.6827 272.468 76.744C272.468 77.8 272.716 78.5867 273.212 79.104C273.713 79.616 274.34 79.872 275.092 79.872C275.567 79.872 275.999 79.7573 276.388 79.528C276.783 79.2987 277.097 78.992 277.332 78.608C277.567 78.2187 277.684 77.784 277.684 77.304L278.66 77.328C278.66 78.0533 278.492 78.7067 278.156 79.288C277.82 79.864 277.367 80.32 276.796 80.656C276.231 80.992 275.599 81.16 274.9 81.16ZM277.684 81V68.496H279.052V81H277.684ZM288.947 81.16C288.248 81.16 287.608 80.992 287.027 80.656C286.445 80.3147 285.981 79.816 285.635 79.16C285.288 78.4987 285.115 77.6933 285.115 76.744C285.115 75.8107 285.291 75.0187 285.643 74.368C285.995 73.7173 286.461 73.224 287.043 72.888C287.624 72.5467 288.259 72.376 288.947 72.376C289.603 72.376 290.216 72.5333 290.787 72.848C291.363 73.1573 291.827 73.5893 292.179 74.144C292.531 74.6987 292.707 75.3413 292.707 76.072C292.707 76.088 292.707 76.104 292.707 76.12C292.707 76.136 292.707 76.152 292.707 76.168L291.731 76.208C291.731 76.192 291.731 76.176 291.731 76.16C291.731 76.1387 291.731 76.12 291.731 76.104C291.731 75.64 291.608 75.2213 291.363 74.848C291.123 74.4747 290.805 74.1787 290.411 73.96C290.016 73.736 289.592 73.624 289.139 73.624C288.381 73.624 287.755 73.88 287.259 74.392C286.763 74.8987 286.515 75.6827 286.515 76.744C286.515 77.8 286.763 78.5867 287.259 79.104C287.76 79.616 288.387 79.872 289.139 79.872C289.613 79.872 290.045 79.7573 290.435 79.528C290.829 79.2987 291.144 78.992 291.379 78.608C291.613 78.2187 291.731 77.784 291.731 77.304L292.707 77.328C292.707 78.0533 292.539 78.7067 292.203 79.288C291.867 79.864 291.413 80.32 290.843 80.656C290.277 80.992 289.645 81.16 288.947 81.16ZM291.731 81V68.496H293.099V81H291.731ZM295.49 81V72.504H296.85V75.112L296.402 74.952C296.434 74.6373 296.514 74.328 296.642 74.024C296.77 73.7147 296.946 73.4373 297.17 73.192C297.399 72.9413 297.684 72.744 298.026 72.6C298.367 72.4507 298.767 72.376 299.226 72.376C299.567 72.376 299.844 72.4053 300.058 72.464C300.276 72.5173 300.412 72.56 300.466 72.592L300.114 73.928C300.06 73.8907 299.951 73.8427 299.786 73.784C299.626 73.7253 299.396 73.696 299.098 73.696C298.655 73.696 298.287 73.776 297.994 73.936C297.706 74.096 297.476 74.3093 297.306 74.576C297.14 74.8373 297.023 75.1227 296.954 75.432C296.884 75.7413 296.85 76.048 296.85 76.352V81H295.49ZM305.795 81.152C304.942 81.152 304.187 80.9627 303.531 80.584C302.88 80.2 302.368 79.6773 301.995 79.016C301.627 78.3493 301.443 77.592 301.443 76.744C301.443 75.896 301.627 75.144 301.995 74.488C302.368 73.832 302.88 73.3173 303.531 72.944C304.187 72.5707 304.942 72.384 305.795 72.384C306.648 72.384 307.4 72.5707 308.051 72.944C308.707 73.3173 309.219 73.832 309.587 74.488C309.96 75.144 310.147 75.896 310.147 76.744C310.147 77.592 309.96 78.3493 309.587 79.016C309.219 79.6773 308.707 80.2 308.051 80.584C307.4 80.9627 306.648 81.152 305.795 81.152ZM305.795 79.904C306.382 79.904 306.899 79.7733 307.347 79.512C307.795 79.2507 308.144 78.8827 308.395 78.408C308.651 77.9333 308.779 77.3787 308.779 76.744C308.779 76.1093 308.651 75.56 308.395 75.096C308.144 74.6267 307.795 74.2667 307.347 74.016C306.899 73.76 306.382 73.632 305.795 73.632C305.214 73.632 304.696 73.76 304.243 74.016C303.795 74.2667 303.443 74.6267 303.187 75.096C302.936 75.56 302.811 76.1093 302.811 76.744C302.811 77.3787 302.936 77.9333 303.187 78.408C303.443 78.8827 303.795 79.2507 304.243 79.512C304.696 79.7733 305.214 79.904 305.795 79.904ZM312.271 84.496V72.504H313.631V84.496H312.271ZM316.423 81.16C315.767 81.16 315.154 81 314.583 80.68C314.012 80.3547 313.548 79.9093 313.191 79.344C312.839 78.7787 312.663 78.1333 312.663 77.408C312.663 77.392 312.663 77.3787 312.663 77.368C312.663 77.3573 312.663 77.344 312.663 77.328L313.639 77.304C313.639 77.3147 313.639 77.328 313.639 77.344C313.639 77.3547 313.639 77.3653 313.639 77.376C313.639 77.8347 313.759 78.2533 313.999 78.632C314.244 79.0107 314.564 79.312 314.959 79.536C315.354 79.76 315.778 79.872 316.231 79.872C316.983 79.872 317.607 79.616 318.103 79.104C318.604 78.5867 318.855 77.8 318.855 76.744C318.855 75.6827 318.607 74.8987 318.111 74.392C317.615 73.88 316.988 73.624 316.231 73.624C315.778 73.624 315.354 73.736 314.959 73.96C314.564 74.1787 314.244 74.4747 313.999 74.848C313.759 75.2213 313.639 75.64 313.639 76.104L312.663 76.072C312.663 75.3413 312.839 74.6987 313.191 74.144C313.548 73.5893 314.012 73.1573 314.583 72.848C315.154 72.5333 315.767 72.376 316.423 72.376C317.111 72.376 317.746 72.5467 318.327 72.888C318.908 73.224 319.375 73.7173 319.727 74.368C320.079 75.0187 320.255 75.8107 320.255 76.744C320.255 77.6933 320.082 78.4987 319.735 79.16C319.388 79.816 318.924 80.3147 318.343 80.656C317.762 80.992 317.122 81.16 316.423 81.16Z" fill="#515B6F"/>
<path d="M46.696 111.16C45.88 111.16 45.1813 111.032 44.6 110.776C44.024 110.515 43.5813 110.123 43.272 109.6C42.9627 109.077 42.808 108.427 42.808 107.648C42.808 107.541 42.808 107.451 42.808 107.376C42.808 107.301 42.808 107.211 42.808 107.104H44.176C44.176 107.205 44.176 107.291 44.176 107.36C44.176 107.429 44.176 107.517 44.176 107.624C44.176 108.44 44.3893 109.029 44.816 109.392C45.2427 109.749 45.864 109.928 46.68 109.928C47.5227 109.928 48.16 109.784 48.592 109.496C49.024 109.208 49.24 108.741 49.24 108.096C49.24 107.643 49.1147 107.267 48.864 106.968C48.6187 106.664 48.2773 106.408 47.84 106.2C47.4027 105.987 46.8933 105.792 46.312 105.616C45.656 105.413 45.0693 105.157 44.552 104.848C44.04 104.539 43.6347 104.157 43.336 103.704C43.0427 103.245 42.896 102.688 42.896 102.032C42.896 101.392 43.0507 100.851 43.36 100.408C43.6747 99.9653 44.112 99.6293 44.672 99.4C45.232 99.1707 45.8827 99.056 46.624 99.056C47.408 99.056 48.088 99.1787 48.664 99.424C49.2453 99.664 49.6933 100.032 50.008 100.528C50.328 101.019 50.488 101.637 50.488 102.384C50.488 102.501 50.488 102.603 50.488 102.688C50.488 102.768 50.488 102.867 50.488 102.984H49.12C49.12 102.883 49.12 102.792 49.12 102.712C49.12 102.632 49.12 102.541 49.12 102.44C49.12 101.661 48.9093 101.109 48.488 100.784C48.0667 100.453 47.4533 100.288 46.648 100.288C45.8747 100.288 45.2773 100.424 44.856 100.696C44.4347 100.968 44.224 101.413 44.224 102.032C44.224 102.496 44.352 102.88 44.608 103.184C44.8693 103.483 45.224 103.739 45.672 103.952C46.12 104.16 46.632 104.36 47.208 104.552C47.9067 104.781 48.5067 105.043 49.008 105.336C49.5147 105.624 49.9013 105.984 50.168 106.416C50.44 106.848 50.576 107.392 50.576 108.048C50.576 108.704 50.4187 109.264 50.104 109.728C49.7947 110.192 49.3493 110.547 48.768 110.792C48.192 111.037 47.5013 111.16 46.696 111.16ZM55.2226 111.064L52.0146 99.2H53.5106L56.2626 109.992H56.1666L58.8866 99.2H60.3906L57.2146 111.064H55.2226ZM66.0211 111.16C65.1411 111.16 64.3411 110.92 63.6211 110.44C62.9011 109.96 62.3278 109.269 61.9011 108.368C61.4745 107.467 61.2611 106.381 61.2611 105.112C61.2611 103.843 61.4771 102.757 61.9091 101.856C62.3411 100.955 62.9251 100.264 63.6611 99.784C64.4025 99.2987 65.2318 99.056 66.1491 99.056C66.8958 99.056 67.5278 99.1867 68.0451 99.448C68.5678 99.704 68.9918 100.037 69.3171 100.448C69.6478 100.853 69.8878 101.285 70.0371 101.744C70.1865 102.197 70.2611 102.624 70.2611 103.024C70.2611 103.04 70.2611 103.056 70.2611 103.072C70.2611 103.088 70.2611 103.104 70.2611 103.12H68.9331C68.9331 103.104 68.9331 103.088 68.9331 103.072C68.9331 103.056 68.9331 103.04 68.9331 103.024C68.9331 102.704 68.8771 102.384 68.7651 102.064C68.6585 101.739 68.4905 101.445 68.2611 101.184C68.0318 100.917 67.7411 100.704 67.3891 100.544C67.0425 100.384 66.6291 100.304 66.1491 100.304C65.5038 100.304 64.9145 100.48 64.3811 100.832C63.8531 101.184 63.4291 101.717 63.1091 102.432C62.7945 103.141 62.6371 104.035 62.6371 105.112C62.6371 105.939 62.7251 106.656 62.9011 107.264C63.0771 107.867 63.3198 108.365 63.6291 108.76C63.9385 109.155 64.2985 109.448 64.7091 109.64C65.1251 109.832 65.5731 109.928 66.0531 109.928C66.6878 109.928 67.2078 109.819 67.6131 109.6C68.0238 109.381 68.3411 109.109 68.5651 108.784C68.7891 108.453 68.9331 108.128 68.9971 107.808V106.568H66.1091V105.424H70.2291V111H69.2131L69.1411 109.688C69.0985 109.768 69.0105 109.888 68.8771 110.048C68.7438 110.208 68.5545 110.373 68.3091 110.544C68.0691 110.715 67.7598 110.861 67.3811 110.984C67.0025 111.101 66.5491 111.16 66.0211 111.16ZM71.9698 113.16L71.7618 112.776C71.9431 112.696 72.1378 112.557 72.3458 112.36C72.5538 112.163 72.7324 111.941 72.8818 111.696C73.0311 111.456 73.1058 111.229 73.1058 111.016C73.1058 110.957 73.0978 110.901 73.0818 110.848C73.0711 110.795 73.0524 110.744 73.0258 110.696H73.4018C73.3271 110.877 73.2044 111.008 73.0338 111.088C72.8631 111.168 72.7004 111.208 72.5458 111.208C72.2791 111.208 72.0524 111.131 71.8658 110.976C71.6791 110.821 71.5858 110.6 71.5858 110.312C71.5858 110.024 71.6871 109.795 71.8898 109.624C72.0978 109.453 72.3644 109.368 72.6898 109.368C73.0364 109.368 73.3084 109.472 73.5058 109.68C73.7084 109.888 73.8098 110.181 73.8098 110.56C73.8098 110.933 73.7138 111.299 73.5218 111.656C73.3298 112.013 73.0924 112.325 72.8098 112.592C72.5271 112.859 72.2471 113.048 71.9698 113.16ZM81.4335 111H80.0655V99.2H83.3775C84.2895 99.2 85.0468 99.3707 85.6495 99.712C86.2522 100.048 86.7028 100.501 87.0015 101.072C87.3002 101.643 87.4495 102.277 87.4495 102.976C87.4495 103.675 87.2948 104.32 86.9855 104.912C86.6815 105.504 86.2255 105.981 85.6175 106.344C85.0148 106.701 84.2682 106.88 83.3775 106.88H81.4335V111ZM81.4335 106.376L80.8175 105.68H83.2095C83.8495 105.68 84.3802 105.568 84.8015 105.344C85.2282 105.115 85.5455 104.797 85.7535 104.392C85.9668 103.987 86.0735 103.515 86.0735 102.976C86.0735 102.432 85.9722 101.968 85.7695 101.584C85.5668 101.2 85.2548 100.907 84.8335 100.704C84.4122 100.501 83.8708 100.4 83.2095 100.4H80.8175L81.4335 99.624V106.376ZM90.5966 111H89.2686V99.2H91.5006L96.5086 110.216L96.4046 110.28V99.2H97.7326V111H95.4686L90.4766 100L90.5966 99.944V111ZM104.427 111.16C103.547 111.16 102.747 110.92 102.027 110.44C101.307 109.96 100.734 109.269 100.307 108.368C99.8807 107.467 99.6674 106.381 99.6674 105.112C99.6674 103.843 99.8834 102.757 100.315 101.856C100.747 100.955 101.331 100.264 102.067 99.784C102.809 99.2987 103.638 99.056 104.555 99.056C105.302 99.056 105.934 99.1867 106.451 99.448C106.974 99.704 107.398 100.037 107.723 100.448C108.054 100.853 108.294 101.285 108.443 101.744C108.593 102.197 108.667 102.624 108.667 103.024C108.667 103.04 108.667 103.056 108.667 103.072C108.667 103.088 108.667 103.104 108.667 103.12H107.339C107.339 103.104 107.339 103.088 107.339 103.072C107.339 103.056 107.339 103.04 107.339 103.024C107.339 102.704 107.283 102.384 107.171 102.064C107.065 101.739 106.897 101.445 106.667 101.184C106.438 100.917 106.147 100.704 105.795 100.544C105.449 100.384 105.035 100.304 104.555 100.304C103.91 100.304 103.321 100.48 102.787 100.832C102.259 101.184 101.835 101.717 101.515 102.432C101.201 103.141 101.043 104.035 101.043 105.112C101.043 105.939 101.131 106.656 101.307 107.264C101.483 107.867 101.726 108.365 102.035 108.76C102.345 109.155 102.705 109.448 103.115 109.64C103.531 109.832 103.979 109.928 104.459 109.928C105.094 109.928 105.614 109.819 106.019 109.6C106.43 109.381 106.747 109.109 106.971 108.784C107.195 108.453 107.339 108.128 107.403 107.808V106.568H104.515V105.424H108.635V111H107.619L107.547 109.688C107.505 109.768 107.417 109.888 107.283 110.048C107.15 110.208 106.961 110.373 106.715 110.544C106.475 110.715 106.166 110.861 105.787 110.984C105.409 111.101 104.955 111.16 104.427 111.16ZM110.376 113.16L110.168 112.776C110.349 112.696 110.544 112.557 110.752 112.36C110.96 112.163 111.139 111.941 111.288 111.696C111.437 111.456 111.512 111.229 111.512 111.016C111.512 110.957 111.504 110.901 111.488 110.848C111.477 110.795 111.459 110.744 111.432 110.696H111.808C111.733 110.877 111.611 111.008 111.44 111.088C111.269 111.168 111.107 111.208 110.952 111.208C110.685 111.208 110.459 111.131 110.272 110.976C110.085 110.821 109.992 110.6 109.992 110.312C109.992 110.024 110.093 109.795 110.296 109.624C110.504 109.453 110.771 109.368 111.096 109.368C111.443 109.368 111.715 109.472 111.912 109.68C112.115 109.888 112.216 110.181 112.216 110.56C112.216 110.933 112.12 111.299 111.928 111.656C111.736 112.013 111.499 112.325 111.216 112.592C110.933 112.859 110.653 113.048 110.376 113.16ZM121.44 111.16C120.629 111.16 119.97 111 119.464 110.68C118.957 110.355 118.586 109.904 118.352 109.328C118.117 108.747 118 108.069 118 107.296C118 107.216 118 107.139 118 107.064C118 106.984 118 106.907 118 106.832H119.344C119.344 106.88 119.344 106.933 119.344 106.992C119.344 107.045 119.344 107.101 119.344 107.16C119.344 107.704 119.413 108.184 119.552 108.6C119.69 109.016 119.912 109.341 120.216 109.576C120.525 109.811 120.933 109.928 121.44 109.928C121.941 109.928 122.344 109.811 122.648 109.576C122.952 109.341 123.173 109.008 123.312 108.576C123.45 108.139 123.52 107.624 123.52 107.032V99.2H124.88V107.208C124.88 107.779 124.818 108.304 124.696 108.784C124.573 109.264 124.376 109.683 124.104 110.04C123.837 110.392 123.485 110.667 123.048 110.864C122.61 111.061 122.074 111.16 121.44 111.16ZM128.496 111H127.128V99.2H130.44C131.352 99.2 132.109 99.3707 132.712 99.712C133.315 100.048 133.765 100.501 134.064 101.072C134.363 101.643 134.512 102.277 134.512 102.976C134.512 103.675 134.357 104.32 134.048 104.912C133.744 105.504 133.288 105.981 132.68 106.344C132.077 106.701 131.331 106.88 130.44 106.88H128.496V111ZM128.496 106.376L127.88 105.68H130.272C130.912 105.68 131.443 105.568 131.864 105.344C132.291 105.115 132.608 104.797 132.816 104.392C133.029 103.987 133.136 103.515 133.136 102.976C133.136 102.432 133.035 101.968 132.832 101.584C132.629 101.2 132.317 100.907 131.896 100.704C131.475 100.501 130.933 100.4 130.272 100.4H127.88L128.496 99.624V106.376ZM140.771 111.16C139.891 111.16 139.091 110.92 138.371 110.44C137.651 109.96 137.078 109.269 136.651 108.368C136.224 107.467 136.011 106.381 136.011 105.112C136.011 103.843 136.227 102.757 136.659 101.856C137.091 100.955 137.675 100.264 138.411 99.784C139.152 99.2987 139.982 99.056 140.899 99.056C141.646 99.056 142.278 99.1867 142.795 99.448C143.318 99.704 143.742 100.037 144.067 100.448C144.398 100.853 144.638 101.285 144.787 101.744C144.936 102.197 145.011 102.624 145.011 103.024C145.011 103.04 145.011 103.056 145.011 103.072C145.011 103.088 145.011 103.104 145.011 103.12H143.683C143.683 103.104 143.683 103.088 143.683 103.072C143.683 103.056 143.683 103.04 143.683 103.024C143.683 102.704 143.627 102.384 143.515 102.064C143.408 101.739 143.24 101.445 143.011 101.184C142.782 100.917 142.491 100.704 142.139 100.544C141.792 100.384 141.379 100.304 140.899 100.304C140.254 100.304 139.664 100.48 139.131 100.832C138.603 101.184 138.179 101.717 137.859 102.432C137.544 103.141 137.387 104.035 137.387 105.112C137.387 105.939 137.475 106.656 137.651 107.264C137.827 107.867 138.07 108.365 138.379 108.76C138.688 109.155 139.048 109.448 139.459 109.64C139.875 109.832 140.323 109.928 140.803 109.928C141.438 109.928 141.958 109.819 142.363 109.6C142.774 109.381 143.091 109.109 143.315 108.784C143.539 108.453 143.683 108.128 143.747 107.808V106.568H140.859V105.424H144.979V111H143.963L143.891 109.688C143.848 109.768 143.76 109.888 143.627 110.048C143.494 110.208 143.304 110.373 143.059 110.544C142.819 110.715 142.51 110.861 142.131 110.984C141.752 111.101 141.299 111.16 140.771 111.16ZM155.389 111.152C154.535 111.152 153.781 110.963 153.125 110.584C152.474 110.2 151.962 109.677 151.589 109.016C151.221 108.349 151.037 107.592 151.037 106.744C151.037 105.896 151.221 105.144 151.589 104.488C151.962 103.832 152.474 103.317 153.125 102.944C153.781 102.571 154.535 102.384 155.389 102.384C156.242 102.384 156.994 102.571 157.645 102.944C158.301 103.317 158.813 103.832 159.181 104.488C159.554 105.144 159.741 105.896 159.741 106.744C159.741 107.592 159.554 108.349 159.181 109.016C158.813 109.677 158.301 110.2 157.645 110.584C156.994 110.963 156.242 111.152 155.389 111.152ZM155.389 109.904C155.975 109.904 156.493 109.773 156.941 109.512C157.389 109.251 157.738 108.883 157.989 108.408C158.245 107.933 158.373 107.379 158.373 106.744C158.373 106.109 158.245 105.56 157.989 105.096C157.738 104.627 157.389 104.267 156.941 104.016C156.493 103.76 155.975 103.632 155.389 103.632C154.807 103.632 154.29 103.76 153.837 104.016C153.389 104.267 153.037 104.627 152.781 105.096C152.53 105.56 152.405 106.109 152.405 106.744C152.405 107.379 152.53 107.933 152.781 108.408C153.037 108.883 153.389 109.251 153.837 109.512C154.29 109.773 154.807 109.904 155.389 109.904ZM161.865 111V102.504H163.225V105.112L162.777 104.952C162.809 104.637 162.889 104.328 163.017 104.024C163.145 103.715 163.321 103.437 163.545 103.192C163.774 102.941 164.059 102.744 164.401 102.6C164.742 102.451 165.142 102.376 165.601 102.376C165.942 102.376 166.219 102.405 166.433 102.464C166.651 102.517 166.787 102.56 166.841 102.592L166.489 103.928C166.435 103.891 166.326 103.843 166.161 103.784C166.001 103.725 165.771 103.696 165.473 103.696C165.03 103.696 164.662 103.776 164.369 103.936C164.081 104.096 163.851 104.309 163.681 104.576C163.515 104.837 163.398 105.123 163.329 105.432C163.259 105.741 163.225 106.048 163.225 106.352V111H161.865ZM176.646 111.16C175.766 111.16 174.966 110.92 174.246 110.44C173.526 109.96 172.953 109.269 172.526 108.368C172.099 107.467 171.886 106.381 171.886 105.112C171.886 103.843 172.102 102.757 172.534 101.856C172.966 100.955 173.55 100.264 174.286 99.784C175.027 99.2987 175.857 99.056 176.774 99.056C177.521 99.056 178.153 99.1867 178.67 99.448C179.193 99.704 179.617 100.037 179.942 100.448C180.273 100.853 180.513 101.285 180.662 101.744C180.811 102.197 180.886 102.624 180.886 103.024C180.886 103.04 180.886 103.056 180.886 103.072C180.886 103.088 180.886 103.104 180.886 103.12H179.558C179.558 103.104 179.558 103.088 179.558 103.072C179.558 103.056 179.558 103.04 179.558 103.024C179.558 102.704 179.502 102.384 179.39 102.064C179.283 101.739 179.115 101.445 178.886 101.184C178.657 100.917 178.366 100.704 178.014 100.544C177.667 100.384 177.254 100.304 176.774 100.304C176.129 100.304 175.539 100.48 175.006 100.832C174.478 101.184 174.054 101.717 173.734 102.432C173.419 103.141 173.262 104.035 173.262 105.112C173.262 105.939 173.35 106.656 173.526 107.264C173.702 107.867 173.945 108.365 174.254 108.76C174.563 109.155 174.923 109.448 175.334 109.64C175.75 109.832 176.198 109.928 176.678 109.928C177.313 109.928 177.833 109.819 178.238 109.6C178.649 109.381 178.966 109.109 179.19 108.784C179.414 108.453 179.558 108.128 179.622 107.808V106.568H176.734V105.424H180.854V111H179.838L179.766 109.688C179.723 109.768 179.635 109.888 179.502 110.048C179.369 110.208 179.179 110.373 178.934 110.544C178.694 110.715 178.385 110.861 178.006 110.984C177.627 111.101 177.174 111.16 176.646 111.16ZM183.2 111V99.2H184.544V111H183.2ZM187.606 100.4L188.222 99.624V105.016L187.782 104.584H192.558V105.784H187.782L188.222 105.328V111H186.862V99.2H193.27V100.4H187.606ZM202.863 114.736C202.719 114.624 202.514 114.432 202.247 114.16C201.981 113.893 201.693 113.536 201.383 113.088C201.079 112.64 200.786 112.096 200.503 111.456C200.226 110.821 199.997 110.08 199.815 109.232C199.639 108.384 199.551 107.427 199.551 106.36C199.551 105.288 199.639 104.328 199.815 103.48C199.997 102.627 200.226 101.88 200.503 101.24C200.786 100.595 201.079 100.048 201.383 99.6C201.693 99.152 201.981 98.7947 202.247 98.528C202.514 98.2613 202.719 98.08 202.863 97.984L203.599 98.752C203.418 98.8907 203.17 99.144 202.855 99.512C202.541 99.8747 202.221 100.365 201.895 100.984C201.575 101.597 201.303 102.349 201.079 103.24C200.861 104.131 200.751 105.171 200.751 106.36C200.751 107.549 200.861 108.587 201.079 109.472C201.303 110.357 201.575 111.107 201.895 111.72C202.221 112.333 202.541 112.821 202.855 113.184C203.17 113.552 203.418 113.813 203.599 113.968L202.863 114.736ZM210.651 111V107.248C210.651 106.917 210.651 106.632 210.651 106.392C210.651 106.147 210.651 105.941 210.651 105.776C210.651 105.568 210.635 105.344 210.603 105.104C210.576 104.859 210.51 104.629 210.403 104.416C210.296 104.197 210.128 104.019 209.899 103.88C209.675 103.741 209.363 103.672 208.963 103.672C208.558 103.672 208.216 103.752 207.939 103.912C207.662 104.067 207.438 104.272 207.267 104.528C207.096 104.784 206.974 105.067 206.899 105.376C206.824 105.68 206.787 105.981 206.787 106.28L206.019 105.968C206.019 105.328 206.152 104.736 206.419 104.192C206.686 103.648 207.059 103.211 207.539 102.88C208.024 102.544 208.592 102.376 209.243 102.376C209.888 102.376 210.414 102.507 210.819 102.768C211.224 103.029 211.523 103.389 211.715 103.848C211.907 104.307 212.003 104.835 212.003 105.432C212.003 105.645 212.003 105.92 212.003 106.256C212.003 106.587 212.003 106.965 212.003 107.392V111H210.651ZM205.427 111V102.504H206.787V111H205.427ZM215.859 111V107.248C215.859 106.885 215.859 106.587 215.859 106.352C215.859 106.112 215.859 105.909 215.859 105.744C215.859 105.536 215.846 105.312 215.819 105.072C215.792 104.832 215.726 104.608 215.619 104.4C215.512 104.187 215.342 104.013 215.107 103.88C214.878 103.741 214.555 103.672 214.139 103.672C213.728 103.672 213.384 103.749 213.107 103.904C212.835 104.059 212.616 104.261 212.451 104.512C212.291 104.763 212.176 105.035 212.107 105.328C212.038 105.616 212.003 105.893 212.003 106.16L211.235 105.864C211.235 105.256 211.363 104.688 211.619 104.16C211.88 103.627 212.248 103.197 212.723 102.872C213.203 102.541 213.771 102.376 214.427 102.376C215.04 102.376 215.552 102.496 215.963 102.736C216.379 102.976 216.691 103.315 216.899 103.752C217.112 104.184 217.219 104.699 217.219 105.296C217.219 105.52 217.219 105.797 217.219 106.128C217.219 106.459 217.219 106.832 217.219 107.248V111H215.859ZM222.551 111.16C221.906 111.16 221.341 111.059 220.855 110.856C220.375 110.653 220.002 110.363 219.735 109.984C219.469 109.6 219.335 109.141 219.335 108.608C219.335 108.053 219.479 107.592 219.767 107.224C220.055 106.851 220.461 106.56 220.983 106.352C221.506 106.144 222.114 106.005 222.807 105.936C223.853 105.829 224.597 105.725 225.039 105.624C225.482 105.517 225.703 105.347 225.703 105.112C225.703 105.107 225.703 105.104 225.703 105.104C225.703 105.099 225.703 105.093 225.703 105.088C225.703 104.597 225.503 104.232 225.103 103.992C224.703 103.747 224.125 103.624 223.367 103.624C222.578 103.624 221.965 103.763 221.527 104.04C221.09 104.312 220.871 104.755 220.871 105.368H219.527C219.527 104.733 219.69 104.195 220.015 103.752C220.341 103.304 220.791 102.963 221.367 102.728C221.949 102.493 222.618 102.376 223.375 102.376C224.069 102.376 224.693 102.483 225.247 102.696C225.807 102.904 226.25 103.216 226.575 103.632C226.906 104.043 227.071 104.552 227.071 105.16C227.071 105.272 227.071 105.384 227.071 105.496C227.071 105.603 227.071 105.712 227.071 105.824V109.4C227.071 109.587 227.079 109.768 227.095 109.944C227.111 110.12 227.138 110.275 227.175 110.408C227.223 110.568 227.277 110.699 227.335 110.8C227.394 110.896 227.442 110.963 227.479 111H226.111C226.085 110.973 226.045 110.912 225.991 110.816C225.938 110.715 225.887 110.597 225.839 110.464C225.802 110.357 225.773 110.224 225.751 110.064C225.73 109.899 225.719 109.728 225.719 109.552L225.943 109.704C225.778 109.992 225.535 110.245 225.215 110.464C224.901 110.683 224.519 110.853 224.071 110.976C223.623 111.099 223.117 111.16 222.551 111.16ZM222.767 109.936C223.317 109.936 223.813 109.853 224.255 109.688C224.698 109.517 225.05 109.267 225.311 108.936C225.573 108.605 225.703 108.195 225.703 107.704V106.016L226.007 106.528C225.666 106.661 225.239 106.771 224.727 106.856C224.221 106.936 223.69 107.003 223.135 107.056C222.33 107.131 221.722 107.272 221.311 107.48C220.906 107.688 220.703 108.037 220.703 108.528C220.703 108.992 220.871 109.344 221.207 109.584C221.543 109.819 222.063 109.936 222.767 109.936ZM231.997 106.48L231.981 107.128L228.677 102.504H230.165L232.925 106.32L232.109 106.296L234.773 102.504H236.237L233.037 106.92L233.125 106.528L236.301 111H234.805L232.061 107.24L232.957 107.032L230.029 111H228.565L231.997 106.48ZM238.853 111.208C238.592 111.208 238.37 111.12 238.189 110.944C238.013 110.763 237.925 110.541 237.925 110.28C237.925 110.024 238.013 109.805 238.189 109.624C238.37 109.443 238.592 109.352 238.853 109.352C239.109 109.352 239.328 109.443 239.509 109.624C239.69 109.805 239.781 110.024 239.781 110.28C239.781 110.541 239.69 110.763 239.509 110.944C239.328 111.12 239.109 111.208 238.853 111.208ZM250.146 111V108.344H245.41V107.248L249.618 99.16H251.482V107.144H253.074V108.344H251.482V111H250.146ZM246.594 107.88L246.146 107.144H250.146V100.104L250.49 100.184L246.594 107.88ZM258.285 111.16C257.64 111.16 257.088 111.005 256.629 110.696C256.176 110.381 255.805 109.949 255.517 109.4C255.234 108.845 255.026 108.203 254.893 107.472C254.765 106.741 254.701 105.96 254.701 105.128C254.701 104.296 254.765 103.515 254.893 102.784C255.026 102.048 255.234 101.403 255.517 100.848C255.805 100.288 256.176 99.8507 256.629 99.536C257.088 99.216 257.64 99.056 258.285 99.056C258.93 99.056 259.48 99.216 259.933 99.536C260.392 99.8507 260.762 100.288 261.045 100.848C261.328 101.403 261.536 102.048 261.669 102.784C261.802 103.515 261.869 104.296 261.869 105.128C261.869 105.96 261.802 106.741 261.669 107.472C261.536 108.203 261.328 108.845 261.045 109.4C260.762 109.949 260.392 110.381 259.933 110.696C259.48 111.005 258.93 111.16 258.285 111.16ZM258.285 109.96C258.786 109.96 259.197 109.776 259.517 109.408C259.842 109.04 260.085 108.496 260.245 107.776C260.405 107.056 260.485 106.173 260.485 105.128C260.485 104.077 260.405 103.192 260.245 102.472C260.085 101.752 259.842 101.208 259.517 100.84C259.197 100.467 258.786 100.28 258.285 100.28C257.789 100.28 257.376 100.467 257.045 100.84C256.72 101.208 256.477 101.752 256.317 102.472C256.157 103.192 256.077 104.077 256.077 105.128C256.077 106.179 256.157 107.064 256.317 107.784C256.477 108.499 256.72 109.04 257.045 109.408C257.376 109.776 257.789 109.96 258.285 109.96ZM267.379 111.16C266.733 111.16 266.181 111.005 265.723 110.696C265.269 110.381 264.899 109.949 264.611 109.4C264.328 108.845 264.12 108.203 263.987 107.472C263.859 106.741 263.795 105.96 263.795 105.128C263.795 104.296 263.859 103.515 263.987 102.784C264.12 102.048 264.328 101.403 264.611 100.848C264.899 100.288 265.269 99.8507 265.723 99.536C266.181 99.216 266.733 99.056 267.379 99.056C268.024 99.056 268.573 99.216 269.027 99.536C269.485 99.8507 269.856 100.288 270.139 100.848C270.421 101.403 270.629 102.048 270.763 102.784C270.896 103.515 270.963 104.296 270.963 105.128C270.963 105.96 270.896 106.741 270.763 107.472C270.629 108.203 270.421 108.845 270.139 109.4C269.856 109.949 269.485 110.381 269.027 110.696C268.573 111.005 268.024 111.16 267.379 111.16ZM267.379 109.96C267.88 109.96 268.291 109.776 268.611 109.408C268.936 109.04 269.179 108.496 269.339 107.776C269.499 107.056 269.579 106.173 269.579 105.128C269.579 104.077 269.499 103.192 269.339 102.472C269.179 101.752 268.936 101.208 268.611 100.84C268.291 100.467 267.88 100.28 267.379 100.28C266.883 100.28 266.469 100.467 266.139 100.84C265.813 101.208 265.571 101.752 265.411 102.472C265.251 103.192 265.171 104.077 265.171 105.128C265.171 106.179 265.251 107.064 265.411 107.784C265.571 108.499 265.813 109.04 266.139 109.408C266.469 109.776 266.883 109.96 267.379 109.96ZM279.872 106.48L279.856 107.128L276.552 102.504H278.04L280.8 106.32L279.984 106.296L282.648 102.504H284.112L280.912 106.92L281 106.528L284.176 111H282.68L279.936 107.24L280.832 107.032L277.904 111H276.44L279.872 106.48ZM293.912 111V108.344H289.176V107.248L293.384 99.16H295.248V107.144H296.84V108.344H295.248V111H293.912ZM290.36 107.88L289.912 107.144H293.912V100.104L294.256 100.184L290.36 107.88ZM302.051 111.16C301.405 111.16 300.853 111.005 300.395 110.696C299.941 110.381 299.571 109.949 299.283 109.4C299 108.845 298.792 108.203 298.659 107.472C298.531 106.741 298.467 105.96 298.467 105.128C298.467 104.296 298.531 103.515 298.659 102.784C298.792 102.048 299 101.403 299.283 100.848C299.571 100.288 299.941 99.8507 300.395 99.536C300.853 99.216 301.405 99.056 302.051 99.056C302.696 99.056 303.245 99.216 303.699 99.536C304.157 99.8507 304.528 100.288 304.811 100.848C305.093 101.403 305.301 102.048 305.435 102.784C305.568 103.515 305.635 104.296 305.635 105.128C305.635 105.96 305.568 106.741 305.435 107.472C305.301 108.203 305.093 108.845 304.811 109.4C304.528 109.949 304.157 110.381 303.699 110.696C303.245 111.005 302.696 111.16 302.051 111.16ZM302.051 109.96C302.552 109.96 302.963 109.776 303.283 109.408C303.608 109.04 303.851 108.496 304.011 107.776C304.171 107.056 304.251 106.173 304.251 105.128C304.251 104.077 304.171 103.192 304.011 102.472C303.851 101.752 303.608 101.208 303.283 100.84C302.963 100.467 302.552 100.28 302.051 100.28C301.555 100.28 301.141 100.467 300.811 100.84C300.485 101.208 300.243 101.752 300.083 102.472C299.923 103.192 299.843 104.077 299.843 105.128C299.843 106.179 299.923 107.064 300.083 107.784C300.243 108.499 300.485 109.04 300.811 109.408C301.141 109.776 301.555 109.96 302.051 109.96ZM311.144 111.16C310.499 111.16 309.947 111.005 309.488 110.696C309.035 110.381 308.664 109.949 308.376 109.4C308.094 108.845 307.886 108.203 307.752 107.472C307.624 106.741 307.56 105.96 307.56 105.128C307.56 104.296 307.624 103.515 307.752 102.784C307.886 102.048 308.094 101.403 308.376 100.848C308.664 100.288 309.035 99.8507 309.488 99.536C309.947 99.216 310.499 99.056 311.144 99.056C311.79 99.056 312.339 99.216 312.792 99.536C313.251 99.8507 313.622 100.288 313.904 100.848C314.187 101.403 314.395 102.048 314.528 102.784C314.662 103.515 314.728 104.296 314.728 105.128C314.728 105.96 314.662 106.741 314.528 107.472C314.395 108.203 314.187 108.845 313.904 109.4C313.622 109.949 313.251 110.381 312.792 110.696C312.339 111.005 311.79 111.16 311.144 111.16ZM311.144 109.96C311.646 109.96 312.056 109.776 312.376 109.408C312.702 109.04 312.944 108.496 313.104 107.776C313.264 107.056 313.344 106.173 313.344 105.128C313.344 104.077 313.264 103.192 313.104 102.472C312.944 101.752 312.702 101.208 312.376 100.84C312.056 100.467 311.646 100.28 311.144 100.28C310.648 100.28 310.235 100.467 309.904 100.84C309.579 101.208 309.336 101.752 309.176 102.472C309.016 103.192 308.936 104.077 308.936 105.128C308.936 106.179 309.016 107.064 309.176 107.784C309.336 108.499 309.579 109.04 309.904 109.408C310.235 109.776 310.648 109.96 311.144 109.96ZM316.974 114.496V102.504H318.334V114.496H316.974ZM321.126 111.16C320.47 111.16 319.857 111 319.286 110.68C318.715 110.355 318.251 109.909 317.894 109.344C317.542 108.779 317.366 108.133 317.366 107.408C317.366 107.392 317.366 107.379 317.366 107.368C317.366 107.357 317.366 107.344 317.366 107.328L318.342 107.304C318.342 107.315 318.342 107.328 318.342 107.344C318.342 107.355 318.342 107.365 318.342 107.376C318.342 107.835 318.462 108.253 318.702 108.632C318.947 109.011 319.267 109.312 319.662 109.536C320.057 109.76 320.481 109.872 320.934 109.872C321.686 109.872 322.31 109.616 322.806 109.104C323.307 108.587 323.558 107.8 323.558 106.744C323.558 105.683 323.31 104.899 322.814 104.392C322.318 103.88 321.691 103.624 320.934 103.624C320.481 103.624 320.057 103.736 319.662 103.96C319.267 104.179 318.947 104.475 318.702 104.848C318.462 105.221 318.342 105.64 318.342 106.104L317.366 106.072C317.366 105.341 317.542 104.699 317.894 104.144C318.251 103.589 318.715 103.157 319.286 102.848C319.857 102.533 320.47 102.376 321.126 102.376C321.814 102.376 322.449 102.547 323.03 102.888C323.611 103.224 324.078 103.717 324.43 104.368C324.782 105.019 324.958 105.811 324.958 106.744C324.958 107.693 324.785 108.499 324.438 109.16C324.091 109.816 323.627 110.315 323.046 110.656C322.465 110.992 321.825 111.16 321.126 111.16ZM329.185 106.48L329.169 107.128L325.865 102.504H327.353L330.113 106.32L329.297 106.296L331.961 102.504H333.425L330.225 106.92L330.313 106.528L333.489 111H331.993L329.249 107.24L330.145 107.032L327.217 111H325.753L329.185 106.48ZM335.424 114.736L334.696 113.968C334.878 113.813 335.123 113.552 335.432 113.184C335.747 112.821 336.064 112.333 336.384 111.72C336.71 111.107 336.982 110.357 337.2 109.472C337.424 108.587 337.536 107.549 337.536 106.36C337.536 105.171 337.424 104.131 337.2 103.24C336.982 102.349 336.71 101.597 336.384 100.984C336.064 100.365 335.747 99.8747 335.432 99.512C335.123 99.144 334.878 98.8907 334.696 98.752L335.424 97.984C335.568 98.08 335.774 98.2613 336.04 98.528C336.307 98.7947 336.592 99.152 336.896 99.6C337.206 100.048 337.499 100.595 337.776 101.24C338.059 101.88 338.288 102.627 338.464 103.48C338.646 104.328 338.736 105.288 338.736 106.36C338.736 107.427 338.646 108.384 338.464 109.232C338.288 110.08 338.059 110.821 337.776 111.456C337.499 112.096 337.206 112.64 336.896 113.088C336.592 113.536 336.307 113.893 336.04 114.16C335.774 114.432 335.568 114.624 335.424 114.736Z" fill="#7C8493"/>
<rect x="1" y="1" width="381" height="142" rx="7" stroke="#4640DE" stroke-width="2" stroke-dasharray="12 12"/>
<defs>
<clipPath id="clip0_657_6446">
<rect width="32" height="32" fill="white" transform="translate(175.5 24)"/>
</clipPath>
</defs>
</svg>
