<svg width="60" height="60" viewBox="0 0 60 60" fill="none" xmlns="http://www.w3.org/2000/svg">
<g id="Icon">
<path id="Path" fill-rule="evenodd" clip-rule="evenodd" d="M55.2008 37.6116C54.2271 36.4083 53 35.4184 51.6008 34.723V30.0004C51.6008 17.7397 42.2615 8.47305 30.0008 8.47305C17.7401 8.47305 8.40078 17.7397 8.40078 30.0004V34.723C7.00154 35.4184 5.7745 36.4083 4.80078 37.6116V30.0004C4.80078 15.7514 15.7518 4.87305 30.0008 4.87305C44.2497 4.87305 55.2008 15.7514 55.2008 30.0004V37.6116ZM12.1069 36.0709C12.0372 36.4367 12.0008 36.8143 12.0008 37.2003V51.6003C12.0008 51.9864 12.0372 52.364 12.1069 52.7298C7.98455 52.1937 4.80078 48.6688 4.80078 44.4003C4.80078 40.1319 7.98455 36.607 12.1069 36.0709ZM48.0005 51.6003C48.0005 51.9864 47.9641 52.364 47.8944 52.7298C52.0168 52.1937 55.2005 48.6688 55.2005 44.4003C55.2005 40.1319 52.0168 36.607 47.8944 36.0709C47.9641 36.4367 48.0005 36.8143 48.0005 37.2003V51.6003Z" fill="#46AD92"/>
<path id="Path_2" fill-rule="evenodd" clip-rule="evenodd" d="M20.4004 33.5996H18.0004C16.0122 33.5996 14.4004 35.2114 14.4004 37.1996V51.5996C14.4004 53.5878 16.0122 55.1996 18.0004 55.1996H20.4004C22.3886 55.1996 24.0004 53.5878 24.0004 51.5996V37.1996C24.0004 35.2114 22.3886 33.5996 20.4004 33.5996ZM42.0008 33.5997H39.6008C37.6125 33.5997 36.0008 35.2114 36.0008 37.1997V51.5997C36.0008 53.5879 37.6125 55.1997 39.6008 55.1997H42.0008C43.989 55.1997 45.6008 53.5879 45.6008 51.5997V37.1997C45.6008 35.2114 43.989 33.5997 42.0008 33.5997Z" fill="#FFD173"/>
</g>
</svg>
