<svg width="60" height="60" viewBox="0 0 60 60" fill="none" xmlns="http://www.w3.org/2000/svg">
<g id="Icon">
<path id="Path" fill-rule="evenodd" clip-rule="evenodd" d="M17.2592 14.4002L19.3454 10.2291C19.5357 9.87746 19.8444 9.37757 20.2373 8.86775C20.7437 8.21052 21.256 7.71685 21.8319 7.43599C22.1404 7.28549 22.4636 7.2002 22.8008 7.2002H37.2008C37.5379 7.2002 37.8611 7.28549 38.1697 7.43599C38.7455 7.71685 39.2579 8.21052 39.7643 8.86775C40.1572 9.37757 40.4659 9.87746 40.6741 10.2635L42.7424 14.4002H46.8008C51.44 14.4002 55.2008 18.161 55.2008 22.8002V44.4002C55.2008 49.0394 51.44 52.8002 46.8008 52.8002H13.2008C8.56159 52.8002 4.80078 49.0394 4.80078 44.4002V22.8002C4.80078 18.161 8.56159 14.4002 13.2008 14.4002H17.2592ZM14.4008 26.4001C15.7263 26.4001 16.8008 25.3256 16.8008 24.0001C16.8008 22.6746 15.7263 21.6001 14.4008 21.6001C13.0754 21.6001 12.0008 22.6746 12.0008 24.0001C12.0008 25.3256 13.0754 26.4001 14.4008 26.4001ZM40.8009 32.4001C40.8009 38.3648 35.9656 43.2001 30.0009 43.2001C24.0362 43.2001 19.2009 38.3648 19.2009 32.4001C19.2009 26.4354 24.0362 21.6001 30.0009 21.6001C35.9656 21.6001 40.8009 26.4354 40.8009 32.4001Z" fill="#46AD92"/>
<path id="Path_2" fill-rule="evenodd" clip-rule="evenodd" d="M29.9996 40.8C34.6388 40.8 38.3996 37.0392 38.3996 32.4C38.3996 27.7608 34.6388 24 29.9996 24C25.3604 24 21.5996 27.7608 21.5996 32.4C21.5996 37.0392 25.3604 40.8 29.9996 40.8Z" fill="#FFD173"/>
</g>
</svg>
