<svg width="21" height="21" viewBox="0 0 21 21" fill="none" xmlns="http://www.w3.org/2000/svg">
<path d="M14.1786 18.2537C12.1143 18.2537 10.1058 17.5833 8.45542 16.3434C6.80501 15.1034 5.60195 13.361 5.02727 11.3783C4.45258 9.39564 4.53737 7.27994 5.26887 5.3496C6.00037 3.41926 7.33901 1.7787 9.08335 0.674805C7.68695 0.89826 6.35779 1.42974 5.19231 2.23069C4.02682 3.03164 3.05424 4.08197 2.3451 5.30549C1.63597 6.52901 1.20807 7.89504 1.09245 9.30447C0.976827 10.7139 1.17638 12.1314 1.67664 13.4541C2.1769 14.7769 2.96531 15.9717 3.98468 16.9518C5.00405 17.932 6.22882 18.673 7.57014 19.121C8.91146 19.5691 10.3357 19.7129 11.7395 19.5422C13.1433 19.3714 14.4915 18.8903 15.6863 18.1338C15.1877 18.2133 14.6835 18.2534 14.1786 18.2537Z" fill="#FFB627"/>
<path d="M10.6141 14.7173V12.9015C10.6141 12.9015 8.28311 12.2182 9.62505 7.86246C9.62505 7.86246 8.79716 6.67141 9.91191 6.16367C11.0267 5.65592 13.3508 5.16769 13.3508 5.16769C13.3508 5.16769 11.3766 3.87853 9.2091 5.16769C9.2091 5.16769 7.35482 5.01106 7.37318 6.6129C7.39154 8.21473 8.05649 8.74141 8.05649 8.74141L8.37376 11.7689C8.37376 11.7689 8.93543 12.699 9.85339 12.9801C9.85396 12.9795 9.67496 14.5808 10.6141 14.7173Z" fill="#FFB627"/>
<path d="M10.8113 15.2197C10.4247 15.2192 10.0541 15.0654 9.78081 14.792C9.50749 14.5186 9.35382 14.1479 9.35352 13.7613V12.8577C9.35352 12.7511 9.39583 12.649 9.47114 12.5737C9.54646 12.4984 9.64861 12.4561 9.75512 12.4561C9.86163 12.4561 9.96379 12.4984 10.0391 12.5737C10.1144 12.649 10.1567 12.7511 10.1567 12.8577V13.7613C10.1541 13.8489 10.1692 13.9362 10.2009 14.0179C10.2326 14.0996 10.2805 14.1741 10.3415 14.237C10.4026 14.3 10.4757 14.35 10.5564 14.3841C10.6372 14.4183 10.724 14.4359 10.8116 14.4359C10.8993 14.4359 10.9861 14.4183 11.0668 14.3841C11.1476 14.35 11.2207 14.3 11.2817 14.237C11.3428 14.1741 11.3906 14.0996 11.4224 14.0179C11.4541 13.9362 11.4691 13.8489 11.4665 13.7613V12.8577C11.4665 12.7511 11.5089 12.649 11.5842 12.5737C11.6595 12.4984 11.7616 12.4561 11.8681 12.4561C11.9747 12.4561 12.0768 12.4984 12.1521 12.5737C12.2274 12.649 12.2698 12.7511 12.2698 12.8577V13.7613C12.2694 14.148 12.1157 14.5188 11.8423 14.7922C11.5688 15.0656 11.198 15.2194 10.8113 15.2197Z" fill="#0B0B1D"/>
<path d="M11.3555 13.2592H10.1765C9.553 13.258 8.95539 13.0097 8.51452 12.5689C8.07365 12.128 7.82543 11.5304 7.82422 10.9069V7.65161C7.82422 7.54509 7.86653 7.44294 7.94185 7.36763C8.01716 7.29231 8.11931 7.25 8.22583 7.25H13.3096C13.4161 7.25 13.5183 7.29231 13.5936 7.36763C13.6689 7.44294 13.7112 7.54509 13.7112 7.65161V10.9052C13.7104 11.5296 13.4619 12.1281 13.0203 12.5695C12.5786 13.0108 11.9799 13.2589 11.3555 13.2592ZM8.62571 8.05321V10.9052C8.62662 11.3157 8.79011 11.7092 9.08042 11.9995C9.37073 12.2898 9.76421 12.4533 10.1748 12.4542H11.3538C11.7643 12.4533 12.1578 12.2898 12.4481 11.9995C12.7384 11.7092 12.9019 11.3157 12.9028 10.9052V8.05321H8.62571Z" fill="#0B0B1D"/>
<path d="M15.4761 18.8784C15.3782 18.8783 15.2837 18.8425 15.2104 18.7776C15.1371 18.7127 15.09 18.6233 15.0779 18.5262L14.8622 16.7803C14.8602 16.7565 14.8602 16.7325 14.8622 16.7086C14.8685 16.5893 14.907 15.5176 14.2265 14.7987C13.7991 14.3466 13.1629 14.1177 12.3332 14.1177C12.2267 14.1177 12.1246 14.0754 12.0493 14C11.974 13.9247 11.9316 13.8226 11.9316 13.7161C11.9316 13.6095 11.974 13.5074 12.0493 13.4321C12.1246 13.3568 12.2267 13.3145 12.3332 13.3145C13.39 13.3145 14.2225 13.6277 14.8077 14.2462C15.6626 15.1498 15.6763 16.3902 15.6637 16.7132L15.8748 18.4252C15.8813 18.4775 15.8775 18.5307 15.8634 18.5815C15.8494 18.6324 15.8254 18.68 15.793 18.7216C15.7606 18.7632 15.7202 18.7981 15.6743 18.8241C15.6284 18.8501 15.5778 18.8668 15.5254 18.8733C15.5091 18.8758 15.4926 18.8775 15.4761 18.8784Z" fill="#0B0B1D"/>
<path d="M5.96606 18.5388C5.85955 18.5388 5.7574 18.4965 5.68208 18.4212C5.60676 18.3458 5.56445 18.2437 5.56445 18.1372V17.0689C5.56567 16.0734 5.96169 15.1191 6.66565 14.4152C7.36961 13.7114 8.32401 13.3155 9.31947 13.3145C9.42599 13.3145 9.52814 13.3568 9.60345 13.4321C9.67877 13.5074 9.72108 13.6095 9.72108 13.7161C9.72108 13.8226 9.67877 13.9247 9.60345 14C9.52814 14.0754 9.42599 14.1177 9.31947 14.1177C8.53698 14.1186 7.7868 14.4298 7.23344 14.983C6.68008 15.5363 6.36873 16.2864 6.36767 17.0689V18.1372C6.36767 18.2437 6.32535 18.3458 6.25004 18.4212C6.17472 18.4965 6.07257 18.5388 5.96606 18.5388Z" fill="#0B0B1D"/>
<path d="M13.2996 9.56282C13.2239 9.56281 13.1498 9.54142 13.0857 9.5011C13.0217 9.46078 12.9703 9.40318 12.9376 9.33493C12.9048 9.26669 12.892 9.19058 12.9007 9.11539C12.9093 9.04019 12.939 8.96896 12.9864 8.90992C13.0598 8.81812 13.1327 8.71084 13.2095 8.59666C13.3425 8.3829 13.4988 8.18453 13.6754 8.00516L13.7121 7.97016C13.9267 7.76821 14.0242 7.67067 14.081 7.47618C14.1443 7.22904 14.1515 6.97089 14.1023 6.72059C14.0585 6.39638 13.9371 6.08755 13.7483 5.82042C13.4723 5.45094 13.0472 5.24268 12.7391 5.13195C12.1482 4.92139 11.4534 4.87033 10.7311 4.98335C10.4167 5.03212 10.1315 5.17039 9.82974 5.31726C9.55475 5.46093 9.26656 5.57774 8.96915 5.66608C8.81776 5.69792 8.66443 5.71977 8.51017 5.73149C8.32246 5.74639 8.13584 5.77283 7.95137 5.81066C7.62549 6.01778 7.69491 6.86402 7.73622 7.37234L7.74483 7.47676C7.76376 7.71887 7.89973 7.90934 8.07128 8.15031C8.2 8.32167 8.314 8.50362 8.41207 8.6942C8.4569 8.78966 8.46239 8.89894 8.42733 8.99841C8.39227 9.09788 8.31949 9.17957 8.22471 9.22584C8.12992 9.2721 8.02075 9.27922 7.92076 9.24565C7.82077 9.21209 7.738 9.14054 7.69032 9.04646C7.61117 8.89601 7.51983 8.7523 7.41723 8.61675C7.21298 8.32988 6.98063 8.00458 6.94391 7.54044L6.9353 7.43774C6.87449 6.68789 6.78212 5.55478 7.56353 5.1067C7.72417 5.01491 7.96055 4.98163 8.42412 4.93459C8.54689 4.92197 8.71499 4.90418 8.76089 4.89213C9.0093 4.81655 9.25 4.71762 9.47977 4.59666C9.824 4.43086 10.1751 4.25931 10.6083 4.19162C11.4643 4.05851 12.295 4.12277 13.0116 4.3775C13.6025 4.58806 14.081 4.92139 14.3943 5.34078C14.6597 5.71054 14.8315 6.1391 14.8951 6.58978C14.9641 6.9588 14.9492 7.3386 14.8515 7.70108C14.7305 8.11187 14.493 8.33562 14.2629 8.55249L14.2273 8.58634C14.0945 8.72676 13.9767 8.88057 13.8756 9.04532C13.793 9.16752 13.7075 9.29431 13.6134 9.41135C13.5759 9.45855 13.5281 9.49667 13.4738 9.52289C13.4195 9.54912 13.3599 9.56276 13.2996 9.56282Z" fill="#0B0B1D"/>
<path d="M10.8916 10.8036H10.8743C10.7989 10.801 10.7257 10.7772 10.6632 10.7349C10.6007 10.6926 10.5514 10.6335 10.5209 10.5644C10.4904 10.4954 10.48 10.4191 10.4909 10.3444C10.5017 10.2697 10.5334 10.1996 10.5823 10.1421L10.5181 9.90918C10.502 9.83254 10.4751 9.75856 10.4383 9.68945C10.3795 9.60262 10.3569 9.4962 10.3755 9.39297C10.3941 9.28973 10.4523 9.19786 10.5378 9.137C10.6232 9.07614 10.7291 9.05113 10.8327 9.06731C10.9363 9.08349 11.0295 9.13958 11.0924 9.22358C11.1873 9.36768 11.2551 9.52789 11.2926 9.69633L11.3769 10.0038C11.4155 10.1215 11.4245 10.2468 11.4033 10.3687C11.3815 10.4892 11.3185 10.5984 11.2252 10.6777C11.1319 10.757 11.014 10.8015 10.8916 10.8036Z" fill="#0B0B1D"/>
<path d="M10.8145 11.9675C10.5025 11.9682 10.1925 11.9182 9.8965 11.8195C9.84651 11.8026 9.80033 11.7761 9.76059 11.7414C9.72085 11.7067 9.68833 11.6645 9.66489 11.6173C9.61755 11.5219 9.61006 11.4115 9.64406 11.3106C9.67807 11.2096 9.75079 11.1263 9.84623 11.079C9.94166 11.0316 10.052 11.0241 10.153 11.0581C10.5367 11.186 10.9494 11.1994 11.3406 11.0966C11.4435 11.0692 11.5531 11.0838 11.6453 11.1372C11.7374 11.1906 11.8046 11.2785 11.832 11.3814C11.8593 11.4844 11.8447 11.594 11.7913 11.6861C11.7379 11.7783 11.65 11.8454 11.5471 11.8728C11.308 11.9357 11.0617 11.9675 10.8145 11.9675Z" fill="#0B0B1D"/>
<path d="M10.793 20.0898C5.27891 20.0898 0.792969 15.6039 0.792969 10.0898C0.792969 4.57579 5.27891 0.0898438 10.793 0.0898438C16.307 0.0898438 20.793 4.57579 20.793 10.0898C20.793 15.6039 16.307 20.0898 10.793 20.0898ZM10.793 0.881009C5.71494 0.881009 1.58413 5.01182 1.58413 10.0898C1.58413 15.1679 5.71494 19.2987 10.793 19.2987C15.871 19.2987 20.0018 15.1679 20.0018 10.0898C20.0018 5.01182 15.871 0.881009 10.793 0.881009Z" fill="#0B0B1D"/>
</svg>
