<svg width="48" height="48" viewBox="0 0 48 48" fill="none" xmlns="http://www.w3.org/2000/svg">
<path fill-rule="evenodd" clip-rule="evenodd" d="M0 4.8C0 3.52696 0.505713 2.30606 1.40589 1.40589C2.30606 0.505713 3.52696 0 4.8 0L43.2 0C44.473 0 45.6939 0.505713 46.5941 1.40589C47.4943 2.30606 48 3.52696 48 4.8V17.6L45.44 15.6768C42.667 13.597 39.2368 12.5873 35.7792 12.833C32.3216 13.0788 29.0687 14.5634 26.6177 17.0145C24.1666 19.4655 22.6819 22.7184 22.4362 26.176C22.1905 29.6336 23.2002 33.0638 25.28 35.8368L25.6 36.2656V48H4.8C3.52696 48 2.30606 47.4943 1.40589 46.5941C0.505713 45.6939 0 44.473 0 43.2L0 4.8ZM25.6 16H9.6V12.8H25.6V16ZM9.6 25.6H19.2V22.4H9.6V25.6Z" fill="#1C3E5E"/>
</svg>
