<svg width="20" height="20" viewBox="0 0 20 20" fill="none" xmlns="http://www.w3.org/2000/svg">
<g clip-path="url(#clip0_402_5202)">
<path fill-rule="evenodd" clip-rule="evenodd" d="M10.0013 3.33366C6.3194 3.33366 3.33464 6.31843 3.33464 10.0003C3.33464 13.6822 6.3194 16.667 10.0013 16.667C13.6832 16.667 16.668 13.6822 16.668 10.0003C16.668 6.31843 13.6832 3.33366 10.0013 3.33366ZM1.66797 10.0003C1.66797 5.39795 5.39893 1.66699 10.0013 1.66699C14.6037 1.66699 18.3346 5.39795 18.3346 10.0003C18.3346 14.6027 14.6037 18.3337 10.0013 18.3337C5.39893 18.3337 1.66797 14.6027 1.66797 10.0003Z" fill="#56CDAD"/>
<path fill-rule="evenodd" clip-rule="evenodd" d="M13.0906 7.74408C13.416 8.06951 13.416 8.59715 13.0906 8.92259L9.75722 12.2559C9.43179 12.5814 8.90415 12.5814 8.57871 12.2559L6.91205 10.5893C6.58661 10.2638 6.58661 9.73618 6.91205 9.41074C7.23748 9.08531 7.76512 9.08531 8.09056 9.41074L9.16797 10.4882L11.912 7.74408C12.2375 7.41864 12.7651 7.41864 13.0906 7.74408Z" fill="#56CDAD"/>
</g>
<defs>
<clipPath id="clip0_402_5202">
<rect width="20" height="20" fill="white"/>
</clipPath>
</defs>
</svg>
