<svg width="24" height="25" viewBox="0 0 24 25" fill="none" xmlns="http://www.w3.org/2000/svg">
<g id="Company" clip-path="url(#clip0_1009_10214)">
<path id="Vector" d="M22.8984 2.48242H1.10156V24.1485H22.8984V2.48242Z" fill="#F7F7F7"/>
<path id="Vector_2" d="M22.8984 2.48242H21.4922V24.1485H22.8984V2.48242Z" fill="#DEDEDE"/>
<path id="Vector_3" d="M23.1797 0.841797H0.820312C0.561429 0.841797 0.351562 1.05166 0.351562 1.31055V2.01367C0.351562 2.27256 0.561429 2.48242 0.820312 2.48242H23.1797C23.4386 2.48242 23.6484 2.27256 23.6484 2.01367V1.31055C23.6484 1.05166 23.4386 0.841797 23.1797 0.841797Z" fill="#676E87"/>
<path id="Vector_4" d="M23.1797 0.841797H21.7734C21.8978 0.841797 22.017 0.891183 22.1049 0.979091C22.1928 1.067 22.2422 1.18623 22.2422 1.31055V2.01367C22.2422 2.13799 22.1928 2.25722 22.1049 2.34513C22.017 2.43304 21.8978 2.48242 21.7734 2.48242H23.1797C23.304 2.48242 23.4232 2.43304 23.5111 2.34513C23.5991 2.25722 23.6484 2.13799 23.6484 2.01367V1.31055C23.6484 1.18623 23.5991 1.067 23.5111 0.979091C23.4232 0.891183 23.304 0.841797 23.1797 0.841797Z" fill="#595F74"/>
<path id="Vector_5" d="M23.1797 7.16992H0.820312C0.561429 7.16992 0.351562 7.37979 0.351562 7.63867V8.3418C0.351562 8.60068 0.561429 8.81055 0.820312 8.81055H23.1797C23.4386 8.81055 23.6484 8.60068 23.6484 8.3418V7.63867C23.6484 7.37979 23.4386 7.16992 23.1797 7.16992Z" fill="#676E87"/>
<path id="Vector_6" d="M23.1797 7.16992H21.7734C21.8978 7.16992 22.017 7.21931 22.1049 7.30722C22.1928 7.39512 22.2422 7.51435 22.2422 7.63867V8.3418C22.2422 8.46612 22.1928 8.58535 22.1049 8.67325C22.017 8.76116 21.8978 8.81055 21.7734 8.81055H23.1797C23.304 8.81055 23.4232 8.76116 23.5111 8.67325C23.5991 8.58535 23.6484 8.46612 23.6484 8.3418V7.63867C23.6484 7.51435 23.5991 7.39512 23.5111 7.30722C23.4232 7.21931 23.304 7.16992 23.1797 7.16992Z" fill="#595F74"/>
<path id="Vector_7" d="M23.1797 13.498H0.820312C0.561429 13.498 0.351562 13.7079 0.351562 13.9668V14.6699C0.351562 14.9288 0.561429 15.1387 0.820312 15.1387H23.1797C23.4386 15.1387 23.6484 14.9288 23.6484 14.6699V13.9668C23.6484 13.7079 23.4386 13.498 23.1797 13.498Z" fill="#676E87"/>
<path id="Vector_8" d="M23.1797 13.498H21.7734C21.8978 13.498 22.017 13.5474 22.1049 13.6353C22.1928 13.7232 22.2422 13.8425 22.2422 13.9668V14.6699C22.2422 14.7942 22.1928 14.9135 22.1049 15.0014C22.017 15.0893 21.8978 15.1387 21.7734 15.1387H23.1797C23.304 15.1387 23.4232 15.0893 23.5111 15.0014C23.5991 14.9135 23.6484 14.7942 23.6484 14.6699V13.9668C23.6484 13.8425 23.5991 13.7232 23.5111 13.6353C23.4232 13.5474 23.304 13.498 23.1797 13.498Z" fill="#595F74"/>
<path id="Vector_9" d="M16.0786 18.6567H7.92188V24.1486H16.0786V18.6567Z" fill="#8CD0FF"/>
<path id="Vector_10" d="M11.6484 24.1486V18.6567C11.6484 18.5635 11.6855 18.4741 11.7514 18.4081C11.8173 18.3422 11.9068 18.3052 12 18.3052C12.0932 18.3052 12.1827 18.3422 12.2486 18.4081C12.3145 18.4741 12.3516 18.5635 12.3516 18.6567V24.1486H11.6484Z" fill="#66C1FF"/>
<path id="Vector_11" d="M22.8984 8.81055H1.10156V13.498H22.8984V8.81055Z" fill="#B3E0FF"/>
<path id="Vector_12" d="M18.5391 8.81055H14.1797V13.498H18.5391V8.81055Z" fill="#8CD0FF"/>
<path id="Vector_13" d="M9.82031 8.81055H5.46094V13.498H9.82031V8.81055Z" fill="#8CD0FF"/>
<path id="Vector_14" d="M22.8984 2.48242H1.10156V7.16992H22.8984V2.48242Z" fill="#B3E0FF"/>
<path id="Vector_15" d="M18.5391 2.48242H14.1797V7.16992H18.5391V2.48242Z" fill="#8CD0FF"/>
<path id="Vector_16" d="M9.82031 2.48242H5.46094V7.16992H9.82031V2.48242Z" fill="#8CD0FF"/>
<path id="Vector_17" d="M21.0905 20.1201H17.9082C17.7529 20.1201 17.627 20.246 17.627 20.4014V22.147C17.627 22.3023 17.7529 22.4282 17.9082 22.4282H21.0905C21.2459 22.4282 21.3718 22.3023 21.3718 22.147V20.4014C21.3718 20.246 21.2459 20.1201 21.0905 20.1201Z" fill="#8CD0FF"/>
<path id="Vector_18" d="M21.0938 20.1201H19.6875C19.7621 20.1201 19.8336 20.1497 19.8864 20.2025C19.9391 20.2552 19.9688 20.3268 19.9688 20.4014V22.1465C19.9688 22.2211 19.9391 22.2927 19.8864 22.3454C19.8336 22.3981 19.7621 22.4278 19.6875 22.4278H21.0938C21.1683 22.4278 21.2399 22.3981 21.2926 22.3454C21.3454 22.2927 21.375 22.2211 21.375 22.1465V20.4014C21.375 20.3268 21.3454 20.2552 21.2926 20.2025C21.2399 20.1497 21.1683 20.1201 21.0938 20.1201Z" fill="#66C1FF"/>
<path id="Vector_19" d="M6.09055 20.1201H2.9082C2.75287 20.1201 2.62695 20.246 2.62695 20.4014V22.147C2.62695 22.3023 2.75287 22.4282 2.9082 22.4282H6.09055C6.24588 22.4282 6.3718 22.3023 6.3718 22.147V20.4014C6.3718 20.246 6.24588 20.1201 6.09055 20.1201Z" fill="#8CD0FF"/>
<path id="Vector_20" d="M6.09375 20.1201H4.6875C4.76209 20.1201 4.83363 20.1497 4.88637 20.2025C4.93912 20.2552 4.96875 20.3268 4.96875 20.4014V22.1465C4.96875 22.2211 4.93912 22.2927 4.88637 22.3454C4.83363 22.3981 4.76209 22.4278 4.6875 22.4278H6.09375C6.16834 22.4278 6.23988 22.3981 6.29262 22.3454C6.34537 22.2927 6.375 22.2211 6.375 22.1465V20.4014C6.375 20.3268 6.34537 20.2552 6.29262 20.2025C6.23988 20.1497 6.16834 20.1201 6.09375 20.1201Z" fill="#66C1FF"/>
<path id="Vector_21" d="M16.4067 17.2505H7.59375C7.38664 17.2505 7.21875 17.4184 7.21875 17.6255V18.2817C7.21875 18.4888 7.38664 18.6567 7.59375 18.6567H16.4067C16.6138 18.6567 16.7817 18.4888 16.7817 18.2817V17.6255C16.7817 17.4184 16.6138 17.2505 16.4067 17.2505Z" fill="#676E87"/>
<path id="Vector_22" d="M16.4062 17.2505H15C15.0995 17.2505 15.1948 17.29 15.2652 17.3603C15.3355 17.4306 15.375 17.526 15.375 17.6255V18.2817C15.375 18.3812 15.3355 18.4766 15.2652 18.5469C15.1948 18.6172 15.0995 18.6567 15 18.6567H16.4062C16.5057 18.6567 16.6011 18.6172 16.6714 18.5469C16.7417 18.4766 16.7812 18.3812 16.7812 18.2817V17.6255C16.7812 17.526 16.7417 17.4306 16.6714 17.3603C16.6011 17.29 16.5057 17.2505 16.4062 17.2505Z" fill="#595F74"/>
<path id="Vector_23" d="M18.9938 13.498H18.7754L21.5879 8.81055H21.8063L18.9938 13.498Z" fill="#D9F0FF"/>
<path id="Vector_24" d="M19.8353 13.498H19.2461L22.0586 8.81055H22.6478L19.8353 13.498Z" fill="#D9F0FF"/>
<path id="Vector_25" d="M14.7009 13.498H14.4824L17.2949 8.81055H17.5134L14.7009 13.498Z" fill="#B3E0FF"/>
<path id="Vector_26" d="M15.5423 13.498H14.9531L17.7656 8.81055H18.3548L15.5423 13.498Z" fill="#B3E0FF"/>
<path id="Vector_27" d="M12.132 23.7971H11.9141L14.9984 18.6567H15.2164L12.132 23.7971Z" fill="#B3E0FF"/>
<path id="Vector_28" d="M12.9759 23.7971H12.3867L15.4711 18.6567H16.0603L12.9759 23.7971Z" fill="#B3E0FF"/>
<path id="Vector_29" d="M7.92188 23.7853L10.9987 18.6562H10.7808L7.92188 23.4211V23.7853Z" fill="#B3E0FF"/>
<path id="Vector_30" d="M8.75719 23.7971H8.16797L11.2523 18.6567H11.8416L8.75719 23.7971Z" fill="#B3E0FF"/>
<path id="Vector_31" d="M10.2316 13.498H10.0137L12.8262 8.81055H13.0441L10.2316 13.498Z" fill="#D9F0FF"/>
<path id="Vector_32" d="M11.0755 13.498H10.4863L13.2988 8.81055H13.888L11.0755 13.498Z" fill="#D9F0FF"/>
<path id="Vector_33" d="M1.63008 13.498H1.41211L4.22461 8.81055H4.44305L1.63008 13.498Z" fill="#D9F0FF"/>
<path id="Vector_34" d="M2.47203 13.498H1.88281L4.69531 8.81055H5.28453L2.47203 13.498Z" fill="#D9F0FF"/>
<path id="Vector_35" d="M6.03094 13.498H5.8125L8.625 8.81055H8.84344L6.03094 13.498Z" fill="#B3E0FF"/>
<path id="Vector_36" d="M6.87195 13.498H6.2832L9.0957 8.81055H9.68445L6.87195 13.498Z" fill="#B3E0FF"/>
<path id="Vector_37" d="M18.9938 7.16992H18.7754L21.5879 2.48242H21.8063L18.9938 7.16992Z" fill="#D9F0FF"/>
<path id="Vector_38" d="M19.8353 7.16992H19.2461L22.0586 2.48242H22.6478L19.8353 7.16992Z" fill="#D9F0FF"/>
<path id="Vector_39" d="M14.7009 7.16992H14.4824L17.2949 2.48242H17.5134L14.7009 7.16992Z" fill="#B3E0FF"/>
<path id="Vector_40" d="M15.5423 7.16992H14.9531L17.7656 2.48242H18.3548L15.5423 7.16992Z" fill="#B3E0FF"/>
<path id="Vector_41" d="M10.2316 7.16992H10.0137L12.8262 2.48242H13.0441L10.2316 7.16992Z" fill="#D9F0FF"/>
<path id="Vector_42" d="M11.0755 7.16992H10.4863L13.2988 2.48242H13.888L11.0755 7.16992Z" fill="#D9F0FF"/>
<path id="Vector_43" d="M2.47203 7.16992H1.88281L4.69531 2.48242H5.28453L2.47203 7.16992Z" fill="#D9F0FF"/>
<path id="Vector_44" d="M6.03094 7.16992H5.8125L8.625 2.48242H8.84344L6.03094 7.16992Z" fill="#B3E0FF"/>
<path id="Vector_45" d="M1.63008 7.16992H1.41211L4.22461 2.48242H4.44305L1.63008 7.16992Z" fill="#D9F0FF"/>
<path id="Vector_46" d="M6.87195 7.16992H6.2832L9.0957 2.48242H9.68445L6.87195 7.16992Z" fill="#B3E0FF"/>
<path id="Vector_47" d="M24 2.01367V1.31055C23.9998 1.09306 23.9132 0.884557 23.7595 0.730772C23.6057 0.576988 23.3972 0.490483 23.1797 0.490234H0.820312C0.602828 0.490483 0.394323 0.576988 0.240538 0.730772C0.0867533 0.884557 0.000248128 1.09306 0 1.31055L0 2.01367C0.000280514 2.21895 0.0774309 2.41669 0.216251 2.56791C0.35507 2.71914 0.545493 2.81289 0.75 2.8307V6.82211C0.545533 6.83981 0.355115 6.93346 0.216286 7.08461C0.0774566 7.23576 0.000290342 7.43344 0 7.63867L0 8.3418C0.000280514 8.54708 0.0774309 8.74481 0.216251 8.89604C0.35507 9.04726 0.545493 9.14102 0.75 9.15883V13.1502C0.545533 13.1679 0.355115 13.2616 0.216286 13.4127C0.0774566 13.5639 0.000290342 13.7616 0 13.9668L0 14.6699C0.000280514 14.8752 0.0774309 15.0729 0.216251 15.2242C0.35507 15.3754 0.545493 15.4691 0.75 15.487V23.797H0.351562C0.258322 23.797 0.168901 23.834 0.10297 23.8999C0.0370395 23.9659 0 24.0553 0 24.1485C0 24.2418 0.0370395 24.3312 0.10297 24.3971C0.168901 24.463 0.258322 24.5001 0.351562 24.5001H23.6484C23.7417 24.5001 23.8311 24.463 23.897 24.3971C23.963 24.3312 24 24.2418 24 24.1485C24 24.0553 23.963 23.9659 23.897 23.8999C23.8311 23.834 23.7417 23.797 23.6484 23.797H23.25V15.487C23.4545 15.4691 23.6449 15.3754 23.7837 15.2242C23.9226 15.0729 23.9997 14.8752 24 14.6699V13.9668C23.9997 13.7616 23.9225 13.5639 23.7837 13.4127C23.6449 13.2616 23.4545 13.1679 23.25 13.1502V9.15883C23.4545 9.14102 23.6449 9.04726 23.7837 8.89604C23.9226 8.74481 23.9997 8.54708 24 8.3418V7.63867C23.9997 7.43344 23.9225 7.23576 23.7837 7.08461C23.6449 6.93346 23.4545 6.83981 23.25 6.82211V2.8307C23.4545 2.81289 23.6449 2.71914 23.7837 2.56791C23.9226 2.41669 23.9997 2.21895 24 2.01367ZM11.6484 23.797H8.27344V19.0082H11.6484V23.797ZM15.7266 23.797H12.3516V19.0082H15.7266V23.797ZM16.4062 18.3051H7.59375C7.58757 18.305 7.58168 18.3025 7.57731 18.2981C7.57294 18.2937 7.57043 18.2878 7.57031 18.2816V17.6254C7.57031 17.6192 7.57278 17.6132 7.57718 17.6088C7.58157 17.6044 7.58753 17.602 7.59375 17.602H16.4062C16.4125 17.602 16.4184 17.6044 16.4228 17.6088C16.4272 17.6132 16.4297 17.6192 16.4297 17.6254V18.2816C16.4296 18.2878 16.4271 18.2937 16.4227 18.2981C16.4183 18.3025 16.4124 18.305 16.4062 18.3051ZM22.5469 23.797H16.4302V19.0068C16.6185 19.0006 16.797 18.9215 16.9282 18.7863C17.0594 18.651 17.1329 18.4701 17.1333 18.2816V17.6254C17.133 17.4328 17.0564 17.2481 16.9202 17.1119C16.784 16.9757 16.5993 16.8991 16.4067 16.8988H7.59375C7.40113 16.8991 7.21647 16.9757 7.08027 17.1119C6.94406 17.2481 6.86744 17.4328 6.86719 17.6254V18.2816C6.86757 18.4701 6.94109 18.651 7.07226 18.7863C7.20343 18.9215 7.38199 19.0006 7.57031 19.0068V23.797H1.45312V15.4902H22.5469V23.797ZM23.2969 13.9668V14.6699C23.2969 14.701 23.2845 14.7308 23.2626 14.7528C23.2406 14.7748 23.2108 14.7871 23.1797 14.7871H0.820312C0.789232 14.7871 0.759425 14.7748 0.737448 14.7528C0.715472 14.7308 0.703125 14.701 0.703125 14.6699V13.9668C0.703125 13.9357 0.715472 13.9059 0.737448 13.8839C0.759425 13.862 0.789232 13.8496 0.820312 13.8496H23.1797C23.1951 13.8496 23.2103 13.8526 23.2245 13.8585C23.2388 13.8644 23.2517 13.8731 23.2626 13.8839C23.2734 13.8948 23.2821 13.9077 23.288 13.922C23.2938 13.9362 23.2969 13.9514 23.2969 13.9668ZM1.45312 13.1465V9.16211H5.10938V13.1465H1.45312ZM5.8125 13.1465V9.16211H9.46875V13.1465H5.8125ZM10.1719 13.1465V9.16211H13.8281V13.1465H10.1719ZM14.5312 13.1465V9.16211H18.1875V13.1465H14.5312ZM18.8906 13.1465V9.16211H22.5469V13.1465H18.8906ZM23.2969 7.63867V8.3418C23.2969 8.37288 23.2845 8.40268 23.2626 8.42466C23.2406 8.44664 23.2108 8.45898 23.1797 8.45898H0.820312C0.789232 8.45898 0.759425 8.44664 0.737448 8.42466C0.715472 8.40268 0.703125 8.37288 0.703125 8.3418V7.63867C0.703125 7.60759 0.715472 7.57779 0.737448 7.55581C0.759425 7.53383 0.789232 7.52148 0.820312 7.52148H23.1797C23.2108 7.52148 23.2406 7.53383 23.2626 7.55581C23.2845 7.57779 23.2969 7.60759 23.2969 7.63867ZM1.45312 6.81836V2.83398H5.10938V6.81836H1.45312ZM5.8125 6.81836V2.83398H9.46875V6.81836H5.8125ZM10.1719 6.81836V2.83398H13.8281V6.81836H10.1719ZM14.5312 6.81836V2.83398H18.1875V6.81836H14.5312ZM18.8906 6.81836V2.83398H22.5469V6.81836H18.8906ZM23.1797 2.13086H0.820312C0.789232 2.13086 0.759425 2.11851 0.737448 2.09654C0.715472 2.07456 0.703125 2.04475 0.703125 2.01367V1.31055C0.703125 1.27947 0.715472 1.24966 0.737448 1.22768C0.759425 1.20571 0.789232 1.19336 0.820312 1.19336H23.1797C23.2108 1.19336 23.2406 1.20571 23.2626 1.22768C23.2845 1.24966 23.2969 1.27947 23.2969 1.31055V2.01367C23.2969 2.02906 23.2938 2.0443 23.288 2.05852C23.2821 2.07274 23.2734 2.08565 23.2626 2.09654C23.2517 2.10742 23.2388 2.11605 23.2245 2.12194C23.2103 2.12783 23.1951 2.13086 23.1797 2.13086ZM2.62734 22.7793H6.375C6.46824 22.7793 6.55766 22.7423 6.62359 22.6763C6.68952 22.6104 6.72656 22.521 6.72656 22.4277V20.1201C6.72656 20.0268 6.68952 19.9374 6.62359 19.8715C6.55766 19.8056 6.46824 19.7685 6.375 19.7685H2.62734C2.5341 19.7685 2.44468 19.8056 2.37875 19.8715C2.31282 19.9374 2.27578 20.0268 2.27578 20.1201V22.4277C2.27578 22.521 2.31282 22.6104 2.37875 22.6763C2.44468 22.7423 2.5341 22.7793 2.62734 22.7793ZM2.97891 20.4716H6.02109V22.0762H2.97891V20.4716ZM17.6273 22.7793H21.375C21.4682 22.7793 21.5577 22.7423 21.6236 22.6763C21.6895 22.6104 21.7266 22.521 21.7266 22.4277V20.1201C21.7266 20.0268 21.6895 19.9374 21.6236 19.8715C21.5577 19.8056 21.4682 19.7685 21.375 19.7685H17.6297C17.5364 19.7685 17.447 19.8056 17.3811 19.8715C17.3152 19.9374 17.2781 20.0268 17.2781 20.1201V22.4277C17.2781 22.5206 17.3148 22.6096 17.3803 22.6755C17.4457 22.7414 17.5345 22.7787 17.6273 22.7793ZM17.9789 20.4716H21.0211V22.0762H17.9789V20.4716Z" fill="#272A33"/>
</g>
<defs>
<clipPath id="clip0_1009_10214">
<rect width="24" height="24" fill="white" transform="translate(0 0.5)"/>
</clipPath>
</defs>
</svg>
