<svg width="22" height="18" viewBox="0 0 22 18" fill="none" xmlns="http://www.w3.org/2000/svg">
<path fill-rule="evenodd" clip-rule="evenodd" d="M11 2C10.4696 2 9.96086 2.21071 9.58579 2.58579C9.21071 2.96086 9 3.46957 9 4C9 4.53043 9.21071 5.03914 9.58579 5.41421C9.96086 5.78929 10.4696 6 11 6C11.5304 6 12.0391 5.78929 12.4142 5.41421C12.7893 5.03914 13 4.53043 13 4C13 3.46957 12.7893 2.96086 12.4142 2.58579C12.0391 2.21071 11.5304 2 11 2ZM8.17157 1.17157C8.92172 0.421427 9.93913 0 11 0C12.0609 0 13.0783 0.421427 13.8284 1.17157C14.5786 1.92172 15 2.93913 15 4C15 5.06087 14.5786 6.07828 13.8284 6.82843C13.0783 7.57857 12.0609 8 11 8C9.93913 8 8.92172 7.57857 8.17157 6.82843C7.42143 6.07828 7 5.06087 7 4C7 2.93913 7.42143 1.92172 8.17157 1.17157ZM4 6C3.73478 6 3.48043 6.10536 3.29289 6.29289C3.10536 6.48043 3 6.73478 3 7C3 7.26522 3.10536 7.51957 3.29289 7.70711C3.48043 7.89464 3.73478 8 4 8C4.26522 8 4.51957 7.89464 4.70711 7.70711C4.89464 7.51957 5 7.26522 5 7C5 6.73478 4.89464 6.48043 4.70711 6.29289C4.51957 6.10536 4.26522 6 4 6ZM1.87868 4.87868C2.44129 4.31607 3.20435 4 4 4C4.79565 4 5.55871 4.31607 6.12132 4.87868C6.68393 5.44129 7 6.20435 7 7C7 7.79565 6.68393 8.55871 6.12132 9.12132C5.55871 9.68393 4.79565 10 4 10C3.20435 10 2.44129 9.68393 1.87868 9.12132C1.31607 8.55871 1 7.79565 1 7C1 6.20435 1.31607 5.44129 1.87868 4.87868ZM18 6C17.7348 6 17.4804 6.10536 17.2929 6.29289C17.1054 6.48043 17 6.73478 17 7C17 7.26522 17.1054 7.51957 17.2929 7.70711C17.4804 7.89464 17.7348 8 18 8C18.2652 8 18.5196 7.89464 18.7071 7.70711C18.8946 7.51957 19 7.26522 19 7C19 6.73478 18.8946 6.48043 18.7071 6.29289C18.5196 6.10536 18.2652 6 18 6ZM15.8787 4.87868C16.4413 4.31607 17.2043 4 18 4C18.7957 4 19.5587 4.31607 20.1213 4.87868C20.6839 5.44129 21 6.20435 21 7C21 7.79565 20.6839 8.55871 20.1213 9.12132C19.5587 9.68393 18.7957 10 18 10C17.2043 10 16.4413 9.68393 15.8787 9.12132C15.3161 8.55871 15 7.79565 15 7C15 6.20435 15.3161 5.44129 15.8787 4.87868ZM11 10.9993C10.2003 10.9993 9.41885 11.2389 8.75658 11.6872C8.13228 12.1098 7.64084 12.6996 7.33765 13.3878L7.09655 16H14.9034L14.6623 13.3878C14.3592 12.6996 13.8677 12.1098 13.2434 11.6872C12.5811 11.2389 11.7997 10.9993 11 10.9993ZM17 16H20V15.0001C20 15 20 15.0001 20 15.0001C20 14.5845 19.8704 14.1791 19.6294 13.8405C19.3884 13.5019 19.0479 13.2467 18.6552 13.1106C18.2625 12.9744 17.8371 12.964 17.4382 13.0808C17.2014 13.1501 16.981 13.2621 16.7871 13.41C16.9262 13.9175 17 14.451 17 15V16ZM15.9298 11.5776C15.51 10.9732 14.9804 10.4479 14.3646 10.031C13.3713 9.35865 12.1994 8.9993 11 8.9993C9.80058 8.9993 8.62867 9.35865 7.63543 10.031C7.01963 10.4479 6.49002 10.9732 6.07024 11.5776C5.77575 11.3995 5.45782 11.2591 5.12365 11.1613C4.32584 10.9278 3.47509 10.9486 2.68967 11.2209C1.90425 11.4932 1.22318 12.0035 0.741149 12.6808C0.259114 13.358 6.07967e-05 14.1686 0 14.9999V17C0 17.5523 0.447715 18 1 18H21C21.5523 18 22 17.5523 22 17V15C21.9999 14.1687 21.7409 13.358 21.2589 12.6808C20.7768 12.0035 20.0958 11.4932 19.3103 11.2209C18.5249 10.9486 17.6742 10.9278 16.8763 11.1613C16.5422 11.2591 16.2242 11.3995 15.9298 11.5776ZM5.21295 13.41C5.01904 13.2621 4.79859 13.1501 4.56183 13.0808C4.16292 12.964 3.73754 12.9744 3.34483 13.1106C2.95212 13.2467 2.61159 13.5019 2.37057 13.8405C2.12957 14.1791 2.00005 14.5844 2 15C2 15 2 15 2 15V16H5V15C5 14.451 5.07383 13.9175 5.21295 13.41Z" fill="#26A4FF"/>
</svg>
