<svg width="24" height="25" viewBox="0 0 24 25" fill="none" xmlns="http://www.w3.org/2000/svg">
<g id="Certificate">
<path id="Vector" d="M4.26367 3.36034V23.3691H19.6486C20.6038 23.3691 21.3781 22.5948 21.3781 21.6397V1.63086H5.99315C5.03799 1.63086 4.26367 2.40518 4.26367 3.36034Z" fill="white"/>
<path id="Vector_2" d="M21.3797 1.63232V21.6406C21.3797 22.5935 20.6033 23.37 19.6504 23.37H4.26562V21.6406C20.4445 20.257 19.0539 4.88997 19.0539 4.88997L19.7174 1.63232H21.3797Z" fill="#DEE1E6"/>
<path id="Vector_3" d="M2.67675 19.9102C1.72155 19.9102 0.947266 20.6845 0.947266 21.6397C0.947266 22.5949 1.72155 23.3692 2.67675 23.3692H4.2647V19.9102L2.67675 19.9102Z" fill="#DEE1E6"/>
<path id="Vector_4" d="M21.731 1.63086H21.3784H6.42773C7.3829 1.63086 8.15718 2.40518 8.15722 3.36034C8.15722 4.07522 7.72349 4.68878 7.10485 4.95228C7.03176 4.98341 7.05255 5.08986 7.13196 5.08986H21.3784H21.8053C22.8165 5.08986 23.625 4.22201 23.5266 3.19047C23.4409 2.29128 22.6343 1.63086 21.731 1.63086Z" fill="white"/>
<path id="Vector_5" d="M21.8064 5.09115H7.13107C7.05343 5.09115 7.03229 4.98174 7.1064 4.9535C24.8346 4.40291 21.1641 1.63232 21.1641 1.63232H21.7323C22.6359 1.63232 23.4406 2.29232 23.5253 3.18879C23.6241 4.22295 22.8158 5.09115 21.8064 5.09115Z" fill="#DEE1E6"/>
<path id="Vector_6" d="M23.8792 3.15597C23.7769 2.1042 22.8345 1.27832 21.7334 1.27832H21.3804C16.1204 1.27832 15.19 1.27832 5.9957 1.27832C4.84512 1.27832 3.91335 2.21361 3.91335 3.36067V19.5571H2.67806C1.52747 19.5571 0.595703 20.4924 0.595703 21.6395C0.595703 22.7866 1.52747 23.7218 2.67806 23.7218H4.26629H19.651C20.7981 23.7218 21.7334 22.7866 21.7334 21.6395V5.44303H21.8075C23.0397 5.44303 23.9971 4.37891 23.8792 3.15597ZM1.30155 21.6395C1.30155 20.8807 1.9192 20.263 2.67802 20.263H3.91332V23.016H2.67802C1.9192 23.016 1.30155 22.3983 1.30155 21.6395ZM21.0274 21.6395C21.0274 22.3983 20.4098 23.016 19.651 23.016H4.6192V19.9101V3.36067C4.6192 2.60185 5.23684 1.9842 5.99567 1.9842H6.42979C7.18861 1.9842 7.80626 2.60185 7.80626 3.36067C7.80626 3.91479 7.47802 4.41244 6.96626 4.62773C6.7792 4.70891 6.67684 4.90303 6.71567 5.1042C6.75802 5.30538 6.92743 5.44303 7.13214 5.44303H21.0274V21.6395ZM21.8074 4.73714C16.0077 4.73714 13.9804 4.73714 7.99332 4.73714C8.32155 4.36303 8.51214 3.8795 8.51214 3.36067C8.51214 2.83479 8.31449 2.35126 7.98979 1.9842H21.7333C22.4745 1.9842 23.1098 2.52773 23.1768 3.22303C23.259 4.05946 22.5912 4.73714 21.8074 4.73714Z" fill="black"/>
<path id="Vector_7" d="M12.123 14.7812V21.2327L13.467 20.4265L14.8107 21.2327V14.7812H12.123Z" fill="#FF7E7E"/>
<path id="Vector_8" d="M14.8095 14.7803V21.2341L13.4663 20.425L12.123 21.2341V20.4819C14.7526 19.2967 14.0004 16.1583 14.0004 16.1583C14.0004 16.1583 14.1205 14.8972 14.1047 14.7803H14.8095Z" fill="#EF3D3D"/>
<path id="Vector_9" d="M17.3526 13.082L16.4328 14.0017L16.3728 14.1503V15.4492C16.3728 15.6231 16.2306 15.7653 16.0567 15.7653H14.7577L14.6092 15.8253L13.6895 16.7451C13.5662 16.8683 13.3671 16.8683 13.2438 16.7451L12.3241 15.8253L12.1756 15.7653H10.8766C10.7027 15.7653 10.5605 15.6231 10.5605 15.4492V14.1503L10.5005 14.0017L9.58077 13.082C9.45745 12.9587 9.45745 12.7596 9.58077 12.6364L10.5005 11.7166L10.5605 11.5681V10.2691C10.5605 10.0953 10.7027 9.95306 10.8766 9.95306H12.1756L12.3241 9.89302L13.2438 8.97329C13.3671 8.85005 13.5662 8.85005 13.6895 8.97329L14.6092 9.89302L14.7577 9.95306H16.0567C16.2306 9.95306 16.3728 10.0953 16.3728 10.2691V11.5681L16.4328 11.7166L17.3526 12.6364C17.4758 12.7596 17.4758 12.9587 17.3526 13.082Z" fill="#92DA0D"/>
<path id="Vector_10" d="M17.3506 13.0831L16.4309 14.0028L16.3708 14.1513V15.4503C16.3708 15.6241 16.2286 15.7663 16.0548 15.7663H14.7558L14.6072 15.8264L13.6875 16.7461C13.5642 16.8693 13.3651 16.8693 13.2419 16.7461L12.3221 15.8264L12.1736 15.7663H10.8747C10.7008 15.7663 10.5586 15.6241 10.5586 15.4503V15.2828C10.7735 15.3112 10.9916 15.3239 11.216 15.3239C13.7507 15.3239 15.8051 13.6109 15.8051 11.4965C15.8051 10.9465 15.666 10.425 15.4164 9.9541H16.0548C16.2287 9.9541 16.3709 10.0963 16.3709 10.2702V11.5691L16.4309 11.7177L17.3506 12.6374C17.4739 12.7607 17.4739 12.9598 17.3506 13.0831Z" fill="#73B816"/>
<path id="Vector_11" d="M17.6038 12.3853L16.732 11.517L16.725 10.2676C16.725 9.90055 16.425 9.60055 16.0579 9.60055H14.8261L13.9402 8.72526C13.6861 8.47114 13.2485 8.47114 12.9944 8.72526L12.1261 9.59349L10.8767 9.60055C10.5061 9.60055 10.2061 9.90055 10.2061 10.2676V11.4994L9.33084 12.3853C9.20378 12.5123 9.13672 12.6817 9.13672 12.8582C9.13672 13.0382 9.20378 13.2041 9.33084 13.3311L10.1991 14.1994L10.2061 15.4488C10.2061 15.8194 10.5061 16.1194 10.8767 16.1194H11.7697V21.2335C11.7697 21.3606 11.8367 21.477 11.9497 21.5406C12.0591 21.6006 12.1967 21.6006 12.3026 21.5335L13.4673 20.8382L14.6285 21.5335C14.685 21.5688 14.7485 21.5864 14.812 21.5864C14.872 21.5864 14.932 21.5688 14.985 21.5406C15.0944 21.477 15.165 21.3606 15.165 21.2335V16.1229L16.0579 16.1194C16.425 16.1194 16.725 15.8194 16.725 15.4488V14.2206L17.6038 13.3311C17.8614 13.07 17.8614 12.6464 17.6038 12.3853ZM14.4591 20.6088L13.6473 20.1253C13.5909 20.09 13.5309 20.0723 13.4674 20.0723C13.4038 20.0723 13.3403 20.09 13.2838 20.1253L12.4756 20.6088V16.4829L12.9944 16.9947C13.1215 17.1217 13.2874 17.1888 13.4674 17.1888C13.6438 17.1888 13.8133 17.1218 13.9403 16.9947L14.4591 16.4758L14.4591 20.6088ZM16.185 13.7511C16.1497 13.7864 16.125 13.8253 16.1073 13.8676L16.0438 14.0194C16.0297 14.0617 16.0191 14.1041 16.0191 14.15V15.4135H15.165H14.7591C14.6672 15.4135 14.4448 15.4913 14.3602 15.5758L13.4673 16.4688L12.5744 15.5758C12.5426 15.5476 12.5108 15.5229 12.4755 15.5088C12.4483 15.4813 12.2589 15.4135 12.1755 15.4135H11.7697H10.912V14.15C10.912 14.1041 10.905 14.0617 10.8873 14.0194L10.8273 13.8676C10.8097 13.8253 10.785 13.7864 10.7497 13.7511L9.85672 12.8582L10.7497 11.9653C10.785 11.9335 10.8097 11.8947 10.8273 11.8488L10.8873 11.7006C10.905 11.6582 10.912 11.6123 10.912 11.57V10.3064H12.1755C12.2784 10.3064 12.4854 10.2242 12.5744 10.1441L13.4673 9.25114L14.3602 10.1441C14.392 10.1758 14.4344 10.2041 14.4767 10.2217L14.625 10.2817C14.6673 10.2958 14.7132 10.3064 14.7591 10.3064H16.0191V11.5699C16.0191 11.6123 16.0297 11.6582 16.0438 11.7005L16.1073 11.8488C16.125 11.8946 16.1497 11.9335 16.185 11.9652L17.0779 12.8582L16.185 13.7511Z" fill="black"/>
<path id="Vector_12" d="M14.1047 14.7803H14.1016C14.1047 14.7677 14.1079 14.7708 14.1047 14.7803Z" fill="#FF7E7E"/>
<path id="Vector_13" d="M12.6992 10.8179H11.8932C11.747 10.8179 11.6285 10.9364 11.6285 11.0826C11.6285 11.2287 11.747 11.3473 11.8932 11.3473H12.6992C12.8453 11.3473 12.9639 11.2287 12.9639 11.0826C12.9639 10.9364 12.8453 10.8179 12.6992 10.8179ZM11.8253 12.9891C11.6791 12.9891 11.5605 13.1077 11.5605 13.2538V14.2291C11.5605 14.3752 11.6791 14.4938 11.8253 14.4938C11.9714 14.4938 12.09 14.3752 12.09 14.2291V13.2538C12.09 13.1077 11.9714 12.9891 11.8253 12.9891Z" fill="white"/>
<g id="Group">
<path id="Vector_14" d="M19.3472 7.33918H17.1682C16.9733 7.33918 16.8153 7.18114 16.8153 6.98624C16.8153 6.79135 16.9733 6.6333 17.1682 6.6333H19.3472C19.5421 6.6333 19.7001 6.79135 19.7001 6.98624C19.7001 7.18114 19.5421 7.33918 19.3472 7.33918ZM15.4735 7.33918H14.0209C13.826 7.33918 13.6679 7.18114 13.6679 6.98624C13.6679 6.79135 13.826 6.6333 14.0209 6.6333H15.4735C15.6684 6.6333 15.8264 6.79135 15.8264 6.98624C15.8264 7.18114 15.6684 7.33918 15.4735 7.33918ZM12.324 7.33918H10.9024C10.7076 7.33918 10.5495 7.18114 10.5495 6.98624C10.5495 6.79135 10.7076 6.6333 10.9024 6.6333H12.324C12.5189 6.6333 12.677 6.79135 12.677 6.98624C12.677 7.18114 12.519 7.33918 12.324 7.33918ZM9.48087 7.33918H7.58536C7.39047 7.33918 7.23242 7.18114 7.23242 6.98624C7.23242 6.79135 7.39047 6.6333 7.58536 6.6333H9.48087C9.67576 6.6333 9.83381 6.79135 9.83381 6.98624C9.83381 7.18114 9.67576 7.33918 9.48087 7.33918Z" fill="black"/>
</g>
</g>
</svg>
