<svg width="60" height="60" viewBox="0 0 60 60" fill="none" xmlns="http://www.w3.org/2000/svg">
<g id="Icon">
<path id="Path" fill-rule="evenodd" clip-rule="evenodd" d="M24.69 52.2402L14.3998 31.6546C15.1538 31.5613 15.8835 31.2251 16.4624 30.6461L28.2428 18.8627C28.8216 18.2838 29.1576 17.5539 29.251 16.7998L49.8312 27.0925C50.1961 27.275 50.4406 27.6334 50.4775 28.0398L52.7998 53.5912L39.939 41.0299C41.6115 38.7262 41.4095 35.4841 39.333 33.4071C37.0328 31.1062 33.3033 31.1062 31.0031 33.4071C28.7028 35.7079 28.7028 39.4383 31.0031 41.7392C32.9553 43.6919 35.9369 43.9874 38.2006 42.6256L51.0746 55.1998L25.637 52.8867C25.2307 52.8498 24.8724 52.6052 24.69 52.2402ZM32.6695 35.0735C34.0496 33.693 36.2873 33.693 37.6675 35.0735C39.0476 36.4541 39.0476 38.6923 37.6675 40.0728C36.2873 41.4533 34.0496 41.4533 32.6695 40.0728C31.2893 38.6923 31.2893 36.4541 32.6695 35.0735Z" fill="#46AD92"/>
<path id="Path_2" d="M14.0489 28.4487L26.0489 16.4487C26.5175 15.9801 26.5175 15.2203 26.0489 14.7517L18.8489 7.55167C18.3803 7.08304 17.6205 7.08304 17.1519 7.55167L5.15186 19.5517C4.68323 20.0203 4.68323 20.7801 5.15186 21.2487L12.3519 28.4487C12.8205 28.9174 13.5803 28.9174 14.0489 28.4487Z" fill="#FFD173"/>
</g>
</svg>
