<svg width="19" height="13" viewBox="0 0 19 13" fill="none" xmlns="http://www.w3.org/2000/svg">
<path d="M0 11.5992C0 11.3625 0.0810439 11.1356 0.225303 10.9683C0.369561 10.8009 0.565218 10.7069 0.769231 10.7069H5.38462C5.58863 10.7069 5.78429 10.8009 5.92854 10.9683C6.0728 11.1356 6.15385 11.3625 6.15385 11.5992C6.15385 11.8358 6.0728 12.0628 5.92854 12.2301C5.78429 12.3974 5.58863 12.4914 5.38462 12.4914H0.769231C0.565218 12.4914 0.369561 12.3974 0.225303 12.2301C0.0810439 12.0628 0 11.8358 0 11.5992ZM0 6.24571C0 6.00907 0.0810439 5.78212 0.225303 5.6148C0.369561 5.44747 0.565218 5.35346 0.769231 5.35346H11.5385C11.7425 5.35346 11.9381 5.44747 12.0824 5.6148C12.2266 5.78212 12.3077 6.00907 12.3077 6.24571C12.3077 6.48235 12.2266 6.70929 12.0824 6.87662C11.9381 7.04395 11.7425 7.13795 11.5385 7.13795H0.769231C0.565218 7.13795 0.369561 7.04395 0.225303 6.87662C0.0810439 6.70929 0 6.48235 0 6.24571ZM0 0.892244C0 0.655606 0.0810439 0.428661 0.225303 0.261332C0.369561 0.0940042 0.565218 0 0.769231 0H17.6923C17.8963 0 18.092 0.0940042 18.2362 0.261332C18.3805 0.428661 18.4615 0.655606 18.4615 0.892244C18.4615 1.12888 18.3805 1.35583 18.2362 1.52316C18.092 1.69048 17.8963 1.78449 17.6923 1.78449H0.769231C0.565218 1.78449 0.369561 1.69048 0.225303 1.52316C0.0810439 1.35583 0 1.12888 0 0.892244Z" fill="#1C3E5E"/>
</svg>
