<svg width="21" height="20" viewBox="0 0 21 20" fill="none" xmlns="http://www.w3.org/2000/svg">
<path d="M19.0011 10.1941C19.0011 9.47471 18.9415 8.94971 18.8126 8.40527H10.4297V11.6525H15.3503C15.2511 12.4594 14.7154 13.6747 13.5249 14.4913L13.5082 14.6L16.1587 16.6123L16.3424 16.6303C18.0288 15.1039 19.0011 12.858 19.0011 10.1941Z" fill="#4285F4"/>
<path d="M10.4293 18.75C12.84 18.75 14.8638 17.9722 16.342 16.6305L13.5245 14.4916C12.7706 15.0068 11.7586 15.3666 10.4293 15.3666C8.06822 15.3666 6.06427 13.8402 5.34992 11.7305L5.24522 11.7392L2.48917 13.8295L2.45312 13.9277C3.92136 16.786 6.93723 18.75 10.4293 18.75Z" fill="#34A853"/>
<path d="M5.34916 11.7307C5.16068 11.1863 5.05159 10.6029 5.05159 10.0002C5.05159 9.39735 5.16068 8.81403 5.33925 8.2696L5.33425 8.15365L2.54366 6.02979L2.45236 6.07235C1.84723 7.25847 1.5 8.59044 1.5 10.0002C1.5 11.4099 1.84723 12.7418 2.45236 13.9279L5.34916 11.7307Z" fill="#FBBC05"/>
<path d="M10.4294 4.63331C12.1059 4.63331 13.2368 5.34303 13.8817 5.93613L16.4016 3.525C14.854 2.11528 12.84 1.25 10.4294 1.25C6.93725 1.25 3.92137 3.21387 2.45312 6.07218L5.34002 8.26944C6.0643 6.15972 8.06825 4.63331 10.4294 4.63331Z" fill="#EB4335"/>
</svg>
