<svg width="42" height="38" viewBox="0 0 42 38" fill="none" xmlns="http://www.w3.org/2000/svg">
<path d="M41.7689 9.05949C41.7697 9.44826 41.6737 9.83111 41.4897 10.1735C41.3056 10.516 41.0393 10.8073 40.7146 11.0212C40.39 11.235 40.0172 11.3648 39.63 11.3988C39.2427 11.4328 38.853 11.3699 38.4961 11.2157L32.6564 25.3026H9.32018L3.48518 11.2223C2.95787 11.4436 2.36783 11.4645 1.82618 11.281C1.28453 11.0976 0.82866 10.7224 0.544408 10.2262C0.260156 9.72992 0.167142 9.14689 0.282883 8.58684C0.398625 8.0268 0.715134 7.5284 1.17281 7.1855C1.63048 6.8426 2.19773 6.67886 2.76773 6.72512C3.33773 6.77138 3.87116 7.02445 4.26754 7.43667C4.66392 7.84889 4.89592 8.39181 4.91983 8.96319C4.94374 9.53457 4.75792 10.095 4.39737 10.5389L12.5536 17.2139L14.5149 5.36387C13.9628 5.26588 13.4641 4.9732 13.1093 4.53894C12.7546 4.10468 12.5673 3.55762 12.5814 2.99706C12.5956 2.4365 12.8102 1.89959 13.1864 1.48377C13.5626 1.06795 14.0754 0.800789 14.6318 0.730772C15.1881 0.660755 15.7511 0.792523 16.2186 1.10216C16.6861 1.4118 17.0271 1.87879 17.1797 2.41836C17.3323 2.95794 17.2864 3.53435 17.0503 4.04296C16.8142 4.55158 16.4036 4.9587 15.893 5.19043L20.9846 16.1592L26.0864 5.16231C25.5789 4.92295 25.1741 4.50947 24.9456 3.997C24.7171 3.48453 24.68 2.90708 24.8411 2.36959C25.0022 1.8321 25.3508 1.37024 25.8235 1.06795C26.2962 0.765652 26.8617 0.642982 27.4172 0.722228C27.9727 0.801475 28.4813 1.07738 28.8506 1.4998C29.22 1.92223 29.4255 2.46314 29.4299 3.02423C29.4342 3.58533 29.2372 4.12937 28.8745 4.5575C28.5118 4.98562 28.0075 5.26942 27.4533 5.35731L29.4155 17.2092L37.5961 10.5248C37.3619 10.2325 37.2012 9.88834 37.1274 9.52113C37.0536 9.15393 37.0689 8.77438 37.1719 8.4143C37.275 8.05421 37.4629 7.72408 37.7198 7.45155C37.9767 7.17902 38.2952 6.97203 38.6486 6.84794C39.002 6.72384 39.38 6.68624 39.7509 6.7383C40.1218 6.79036 40.4749 6.93055 40.7805 7.14714C41.086 7.36372 41.3353 7.65039 41.5072 7.98312C41.6792 8.31584 41.769 8.68495 41.7689 9.05949ZM35.0508 31.6767H6.92581V37.3017H35.0508V31.6767ZM32.4492 26.8017H9.55362V30.1767H32.4492V26.8017Z" fill="#1C3E5E"/>
</svg>
