<svg width="24" height="24" viewBox="0 0 24 24" fill="none" xmlns="http://www.w3.org/2000/svg">
<g clip-path="url(#clip0_1008_6411)">
<path fill-rule="evenodd" clip-rule="evenodd" d="M11.998 0C15.1806 0 18.2329 1.26428 20.4833 3.51472C22.7338 5.76516 23.998 8.8174 23.998 12C23.998 15.1826 22.7338 18.2348 20.4833 20.4853C18.2329 22.7357 15.1806 24 11.998 24C8.81545 24 5.7632 22.7357 3.51277 20.4853C1.26233 18.2348 -0.00195312 15.1826 -0.00195312 12C-0.00195312 8.8174 1.26233 5.76516 3.51277 3.51472C5.7632 1.26428 8.81545 0 11.998 0Z" fill="#616161"/>
<mask id="mask0_1008_6411" style="mask-type:luminance" maskUnits="userSpaceOnUse" x="-1" y="0" width="25" height="24">
<path d="M11.998 0C15.1806 0 18.2329 1.26428 20.4833 3.51472C22.7338 5.76516 23.998 8.8174 23.998 12C23.998 15.1826 22.7338 18.2348 20.4833 20.4853C18.2329 22.7357 15.1806 24 11.998 24C8.81545 24 5.7632 22.7357 3.51277 20.4853C1.26233 18.2348 -0.00195312 15.1826 -0.00195312 12C-0.00195312 8.8174 1.26233 5.76516 3.51277 3.51472C5.7632 1.26428 8.81545 0 11.998 0Z" fill="white"/>
</mask>
<g mask="url(#mask0_1008_6411)">
<path fill-rule="evenodd" clip-rule="evenodd" d="M17.7891 9.13672L31.1021 22.4462L31.1161 22.4638L31.1302 22.4814L31.1372 22.499L31.1478 22.52L31.1513 22.5411L31.1583 22.5622V22.6255L31.1548 22.6466L31.1478 22.6642L31.1408 22.6853L31.1302 22.7064L31.1161 22.7239L17.8066 9.41444L17.8207 9.39686L17.8312 9.37577L17.8383 9.35468L17.8453 9.33358V9.31601L17.8488 9.29491V9.25273L17.8418 9.23164L17.8348 9.21406L17.8277 9.19297L17.8172 9.17539L17.8066 9.15781L17.7891 9.13672Z" fill="#4C4C4C"/>
<path fill-rule="evenodd" clip-rule="evenodd" d="M17.8066 9.41455L31.1161 22.7241L31.1091 22.7346L31.1021 22.7451L31.0915 22.7557L31.081 22.7627L31.0704 22.7733L31.0599 22.7803L31.0493 22.7873L31.0388 22.7908L31.0283 22.7979L31.0142 22.8014L31.0036 22.8049L30.9896 22.8084H30.979L30.965 22.8119H30.9404L17.6309 9.50947H17.6555L17.666 9.50595L17.6801 9.50244L17.6906 9.49892L17.7047 9.49541L17.7152 9.49189L17.7293 9.48486L17.7398 9.47783L17.7504 9.4708L17.7609 9.46377L17.7715 9.45674L17.782 9.44619L17.7891 9.43916L17.7996 9.42861L17.8066 9.41455Z" fill="#4C4C4C"/>
<path fill-rule="evenodd" clip-rule="evenodd" d="M17.6301 9.50586L30.9361 22.8154L17.623 9.50586H17.6301Z" fill="#4C4C4C"/>
<path fill-rule="evenodd" clip-rule="evenodd" d="M17.6263 9.50586L30.9358 22.8154H25.3111L11.998 9.50586H17.6263Z" fill="#4C4C4C"/>
<path fill-rule="evenodd" clip-rule="evenodd" d="M11.9993 9.50586L25.3124 22.8154H19.6806L6.37109 9.50586H11.9993Z" fill="#4C4C4C"/>
<path fill-rule="evenodd" clip-rule="evenodd" d="M6.36952 9.50576L19.679 22.8153H19.6579L19.6368 22.8117L19.6158 22.8047L19.5947 22.7977L19.5736 22.7871L19.556 22.7766L19.5384 22.766L19.5243 22.752L6.21484 9.43896L6.22891 9.45303L6.24648 9.46709L6.26406 9.47764L6.28515 9.48818L6.30273 9.49521L6.32382 9.49873L6.34843 9.50224L6.36952 9.50576Z" fill="#4C4C4C"/>
<path fill-rule="evenodd" clip-rule="evenodd" d="M16.5684 10.0015L29.8779 23.3075L29.8919 23.325L29.9025 23.3426L29.9095 23.3637L29.9165 23.3813L29.9236 23.4024V23.427L29.9271 23.4481L16.6176 10.1386V10.114L16.6141 10.0929L16.607 10.0718L16.6 10.0507L16.5895 10.0331L16.5789 10.0155L16.5684 10.0015Z" fill="#4C4C4C"/>
<path fill-rule="evenodd" clip-rule="evenodd" d="M16.6172 10.1421L29.9267 23.4481V24.2601L16.6172 10.9542V10.1421Z" fill="#4C4C4C"/>
<path fill-rule="evenodd" clip-rule="evenodd" d="M16.618 10.9541L29.9275 24.2636V24.2882L29.9239 24.3093L29.9169 24.3304L29.9099 24.348L29.9029 24.3691L29.8923 24.3866L29.8782 24.4042L29.8642 24.4183L29.8501 24.4323L29.8325 24.4464L29.815 24.457L29.7939 24.4675L29.7728 24.4745L29.7517 24.478L29.7306 24.4816H29.7095L16.3965 11.1756H16.4422L16.4633 11.1685L16.4844 11.158L16.5019 11.151L16.5195 11.1404L16.5371 11.1264L16.5547 11.1123L16.5687 11.0982L16.5793 11.0807L16.5898 11.0631L16.6004 11.042L16.6074 11.0209L16.6144 10.9998V10.9787L16.618 10.9541Z" fill="#4C4C4C"/>
<path fill-rule="evenodd" clip-rule="evenodd" d="M16.3957 11.1724L29.7087 24.4854H29.4978L16.1953 11.1724H16.3957Z" fill="#4C4C4C"/>
<path fill-rule="evenodd" clip-rule="evenodd" d="M13.3652 10.1421L26.6818 23.4481V24.2601L13.3652 10.9542V10.1421Z" fill="#4C4C4C"/>
<path fill-rule="evenodd" clip-rule="evenodd" d="M14.1 11.1722L27.413 24.4852H27.3849L27.3638 24.4782L27.3427 24.4746L27.3216 24.4676L27.304 24.4571L27.2865 24.4465L27.2689 24.4325L27.2513 24.4184L13.9453 11.1089L13.9594 11.1229L13.977 11.137L13.9945 11.1476L14.0156 11.1546L14.0367 11.1651L14.0578 11.1686L14.0789 11.1722H14.1Z" fill="#4C4C4C"/>
<path fill-rule="evenodd" clip-rule="evenodd" d="M13.3027 9.98389L26.6122 23.2969L26.6263 23.311L26.6404 23.3285L26.6509 23.3461L26.6615 23.3672L26.6685 23.3848L26.672 23.4059L26.6755 23.4305V23.4516L13.3695 10.1421V10.0964L13.359 10.0753L13.352 10.0542L13.3414 10.0366L13.3309 10.019L13.3168 10.0015L13.3027 9.98389Z" fill="#4C4C4C"/>
<path fill-rule="evenodd" clip-rule="evenodd" d="M10.1172 10.1421L23.4267 23.4481V24.2601L10.1172 10.9542V10.1421Z" fill="#4C4C4C"/>
<path fill-rule="evenodd" clip-rule="evenodd" d="M7.80897 11.1724L21.1185 24.4854H20.9111L7.60156 11.1724H7.80897Z" fill="#4C4C4C"/>
<path fill-rule="evenodd" clip-rule="evenodd" d="M7.59999 11.1722L20.9095 24.4852H20.8884L20.8673 24.4782L20.8462 24.4746L20.8251 24.4676L20.8076 24.4571L20.79 24.4465L20.7724 24.4325L20.7548 24.4184L7.44531 11.1089L7.45937 11.1229L7.47695 11.137L7.49453 11.1476L7.51562 11.1546L7.53671 11.1651L7.55781 11.1686L7.5789 11.1722H7.59999Z" fill="#4C4C4C"/>
<path fill-rule="evenodd" clip-rule="evenodd" d="M14.3086 11.1724L27.6181 24.4854H27.4142L14.0977 11.1724H14.3086Z" fill="#4C4C4C"/>
<path fill-rule="evenodd" clip-rule="evenodd" d="M13.3664 10.9541L26.6829 24.2636V24.2882L26.6759 24.3093L26.6724 24.3304L26.6654 24.348L26.6548 24.3691L26.6443 24.3866L26.6302 24.4042L26.6161 24.4183L26.6021 24.4323L26.5845 24.4464L26.5669 24.457L26.5493 24.4675L26.5283 24.4745L26.5072 24.478L26.4861 24.4816H26.4615L13.1484 11.1756H13.1941L13.2152 11.1685L13.2328 11.158L13.2539 11.151L13.2715 11.1404L13.2891 11.1264L13.3031 11.1123L13.3172 11.0982L13.3312 11.0807L13.3418 11.0631L13.3523 11.042L13.3594 11.0209L13.3629 10.9998L13.3664 10.9787V10.9541Z" fill="#4C4C4C"/>
<path fill-rule="evenodd" clip-rule="evenodd" d="M10.8519 11.1722L24.1615 24.4852H24.1404L24.1158 24.4782L24.0947 24.4746L24.0771 24.4676L24.056 24.4571L24.0384 24.4465L24.0208 24.4325L24.0068 24.4184L10.6973 11.1089L10.7113 11.1229L10.7289 11.137L10.7465 11.1476L10.7641 11.1546L10.7852 11.1651L10.8062 11.1686L10.8273 11.1722H10.8519Z" fill="#4C4C4C"/>
<path fill-rule="evenodd" clip-rule="evenodd" d="M9.69336 11.1724L23.0029 24.4854V28.6758L9.69336 15.3663V11.1724Z" fill="#4C4C4C"/>
<path fill-rule="evenodd" clip-rule="evenodd" d="M13.3664 16.3999L26.6829 29.7059V29.727L26.6759 29.7516L26.6724 29.7727L26.6654 29.7903L26.6548 29.8114L26.6443 29.8289L26.6302 29.8465L26.6161 29.8606L26.6021 29.8746L26.5845 29.8887L26.5669 29.8992L26.5493 29.9098L26.5283 29.9168L26.5072 29.9203L26.4861 29.9239H26.4615L13.1484 16.6179H13.1695L13.1941 16.6143L13.2152 16.6073L13.2328 16.6003L13.2539 16.5933L13.2715 16.5827L13.2891 16.5686L13.3031 16.5546L13.3172 16.537L13.3312 16.5229L13.3418 16.5018L13.3523 16.4843L13.3594 16.4632L13.3629 16.4421L13.3664 16.421V16.3999Z" fill="#4C4C4C"/>
<path fill-rule="evenodd" clip-rule="evenodd" d="M10.0547 15.4331L23.3642 28.7426L23.3783 28.7567L23.3888 28.7743L23.4029 28.7918L23.4099 28.8094L23.4169 28.8305L23.424 28.8516V28.8727L23.4275 28.8973L10.118 15.5843V15.5632L10.1145 15.5421L10.1074 15.521L10.1004 15.4999L10.0898 15.4823L10.0793 15.4647L10.0687 15.4472L10.0547 15.4331Z" fill="#4C4C4C"/>
<path fill-rule="evenodd" clip-rule="evenodd" d="M10.1172 15.584L23.4267 28.897V29.7056L10.1172 16.4031V15.584Z" fill="#4C4C4C"/>
<path fill-rule="evenodd" clip-rule="evenodd" d="M10.0547 9.98389L23.3642 23.2969L23.3783 23.311L23.3888 23.3285L23.4029 23.3461L23.4099 23.3672L23.4169 23.3848L23.424 23.4059V23.4305L23.4275 23.4516L10.118 10.1421V10.1175L10.1145 10.0964L10.1074 10.0753L10.1004 10.0542L10.0898 10.0366L10.0793 10.019L10.0687 10.0015L10.0547 9.98389Z" fill="#4C4C4C"/>
<path fill-rule="evenodd" clip-rule="evenodd" d="M11.059 11.1724L24.3685 24.4854H24.1611L10.8516 11.1724H11.059Z" fill="#4C4C4C"/>
<path fill-rule="evenodd" clip-rule="evenodd" d="M13.1488 11.1724L26.4583 24.4854H26.2509L12.9414 11.1724H13.1488Z" fill="#4C4C4C"/>
<path fill-rule="evenodd" clip-rule="evenodd" d="M10.118 10.9541L23.4275 24.2636V24.2882L23.4239 24.3093L23.4169 24.3304L23.4099 24.348L23.4029 24.3691L23.3923 24.3866L23.3782 24.4042L23.3642 24.4183L23.3466 24.4323L23.3325 24.4464L23.3115 24.457L23.2939 24.4675L23.2728 24.4745L23.2517 24.478L23.2306 24.4816H23.2095L9.89648 11.1756H9.94219L9.96328 11.1685L9.98437 11.158L10.0019 11.151L10.0195 11.1404L10.0371 11.1264L10.0547 11.1123L10.0687 11.0982L10.0793 11.0807L10.0898 11.0631L10.1004 11.042L10.1074 11.0209L10.1144 10.9998V10.9787L10.118 10.9541Z" fill="#4C4C4C"/>
<path fill-rule="evenodd" clip-rule="evenodd" d="M9.89569 11.1724L23.2087 24.4854H22.9978L9.69531 11.1724H9.89569Z" fill="#4C4C4C"/>
<path fill-rule="evenodd" clip-rule="evenodd" d="M12.9414 11.1724L26.2509 24.4854V28.6758L12.9414 15.3663V11.1724Z" fill="#4C4C4C"/>
<path fill-rule="evenodd" clip-rule="evenodd" d="M13.3652 15.584L26.6818 28.897V29.7056L13.3652 16.4031V15.584Z" fill="#4C4C4C"/>
<path fill-rule="evenodd" clip-rule="evenodd" d="M13.3027 15.4331L26.6122 28.7391L26.6263 28.7532L26.6404 28.7707L26.6509 28.7883L26.6615 28.8059L26.6685 28.827L26.672 28.8481L26.6755 28.8692V28.8938L13.3695 15.5843V15.5421L13.359 15.521L13.352 15.4999L13.3414 15.4823L13.3309 15.4647L13.3168 15.4472L13.3027 15.4331Z" fill="#4C4C4C"/>
<path fill-rule="evenodd" clip-rule="evenodd" d="M14.1 16.6179L27.413 29.9274H27.3673L27.3462 29.9203L27.3251 29.9133L27.3076 29.9028L27.29 29.8922L27.2724 29.8782L27.2548 29.8641L13.9453 16.5581L13.9594 16.5722L13.977 16.5827L13.9945 16.5968L14.0156 16.6038L14.0367 16.6108L14.0578 16.6179H14.0789H14.1Z" fill="#4C4C4C"/>
<path fill-rule="evenodd" clip-rule="evenodd" d="M13.1472 16.6177L26.4567 29.9272H24.1611L10.8516 16.6177H13.1472Z" fill="#4C4C4C"/>
<path fill-rule="evenodd" clip-rule="evenodd" d="M10.8516 16.6176L24.1611 29.9271H24.1154L24.0943 29.92L24.0767 29.913L24.0556 29.9025L24.038 29.8919L24.0204 29.8779L10.7109 16.5684L10.7285 16.5789L10.7461 16.593L10.7637 16.6L10.7848 16.607L10.8059 16.6141H10.8269L10.8516 16.6176Z" fill="#4C4C4C"/>
<path fill-rule="evenodd" clip-rule="evenodd" d="M10.118 16.3999L23.4275 29.7059V29.727L23.4239 29.7516L23.4169 29.7727L23.4099 29.7903L23.4029 29.8114L23.3923 29.8289L23.3782 29.8465L23.3642 29.8606L23.3466 29.8746L23.3325 29.8887L23.3115 29.8992L23.2939 29.9098L23.2728 29.9168L23.2517 29.9203L23.2306 29.9239H23.2095L9.89648 16.6179H9.92109L9.94219 16.6143L9.96328 16.6073L9.98437 16.6003L10.0019 16.5933L10.0195 16.5827L10.0371 16.5686L10.0547 16.5546L10.0687 16.537L10.0793 16.5229L10.0898 16.5018L10.1004 16.4843L10.1074 16.4632L10.1144 16.4421V16.421L10.118 16.3999Z" fill="#4C4C4C"/>
<path fill-rule="evenodd" clip-rule="evenodd" d="M9.89715 16.6177L23.2102 29.9272H20.9111L7.60156 16.6177H9.89715Z" fill="#4C4C4C"/>
<path fill-rule="evenodd" clip-rule="evenodd" d="M7.60156 16.6177L20.9111 29.9272H20.8689L20.8478 29.9166L20.8267 29.9096L20.8091 29.8991L20.7915 29.8885L20.774 29.8744L7.46094 16.5649L7.47852 16.5755L7.49609 16.5895L7.51718 16.5966L7.53828 16.6036L7.55937 16.6106H7.58046L7.60156 16.6177Z" fill="#4C4C4C"/>
<path fill-rule="evenodd" clip-rule="evenodd" d="M16.3968 16.6177L29.7098 29.9272H27.4142L14.0977 16.6177H16.3968Z" fill="#4C4C4C"/>
<path fill-rule="evenodd" clip-rule="evenodd" d="M16.618 16.3999L29.9275 29.7059V29.727L29.9239 29.7516L29.9169 29.7727L29.9099 29.7903L29.9029 29.8114L29.8923 29.8289L29.8782 29.8465L29.8642 29.8606L29.8501 29.8746L29.8325 29.8887L29.815 29.8992L29.7939 29.9098L29.7728 29.9168L29.7517 29.9203L29.7306 29.9239H29.7095L16.3965 16.6179H16.4211L16.4422 16.6143L16.4633 16.6073L16.4844 16.6003L16.5019 16.5933L16.5195 16.5827L16.5371 16.5686L16.5547 16.5546L16.5687 16.537L16.5793 16.5229L16.5898 16.5018L16.6004 16.4843L16.6074 16.4632L16.6144 16.4421V16.421L16.618 16.3999Z" fill="#4C4C4C"/>
<path fill-rule="evenodd" clip-rule="evenodd" d="M17.4082 17.4722L30.7177 30.7852V31.9031L17.4082 18.5901V17.4722Z" fill="#4C4C4C"/>
<path fill-rule="evenodd" clip-rule="evenodd" d="M17.4088 18.5898L30.7184 31.9029H19.8978L6.5918 18.5898H17.4088Z" fill="#4C4C4C"/>
<path fill-rule="evenodd" clip-rule="evenodd" d="M16.1934 11.1724L29.5029 24.4854V28.6758L16.1934 15.3663V11.1724Z" fill="#4C4C4C"/>
<path fill-rule="evenodd" clip-rule="evenodd" d="M16.6172 15.584L29.9267 28.897V29.7056L16.6172 16.4031V15.584Z" fill="#4C4C4C"/>
<path fill-rule="evenodd" clip-rule="evenodd" d="M16.5547 15.4331L29.8642 28.7426L29.8783 28.7567L29.8923 28.7743L29.9029 28.7918L29.9099 28.8094L29.9169 28.8305L29.924 28.8516V28.8727L29.9275 28.8973L16.618 15.5843V15.5632L16.6144 15.5421L16.6074 15.521L16.6004 15.4999L16.5898 15.4823L16.5793 15.4647L16.5687 15.4472L16.5547 15.4331Z" fill="#4C4C4C"/>
<path fill-rule="evenodd" clip-rule="evenodd" d="M12.1462 5.02724L17.7533 9.10516C17.7934 9.1311 17.8238 9.16947 17.84 9.21438C17.8561 9.25928 17.8571 9.30825 17.8427 9.35375C17.8283 9.39926 17.7994 9.43879 17.7604 9.46628C17.7214 9.49377 17.6745 9.5077 17.6268 9.50593H6.37029C6.322 9.50558 6.27515 9.48947 6.23687 9.46003C6.19859 9.4306 6.17098 9.38946 6.15824 9.34289C6.1455 9.29631 6.14833 9.24684 6.1663 9.20202C6.18428 9.15721 6.21641 9.11949 6.2578 9.09462L11.872 5.01318C11.9122 4.98386 11.9612 4.96895 12.0109 4.97087C12.0607 4.97278 12.1083 4.99492 12.1462 5.02724ZM16.3999 9.92075C16.5194 9.92075 16.6178 10.0192 16.6178 10.1422V10.9508C16.6178 11.0095 16.5945 11.0658 16.553 11.1074C16.5114 11.1489 16.4551 11.1723 16.3964 11.1723H16.1925V15.3662H16.3964C16.5194 15.3662 16.6178 15.4646 16.6178 15.5841V16.3997C16.6169 16.4579 16.5932 16.5133 16.5517 16.5541C16.5103 16.5948 16.4545 16.6177 16.3964 16.6177H14.1008C14.0433 16.6168 13.9883 16.5935 13.9477 16.5528C13.907 16.5122 13.8837 16.4573 13.8828 16.3997V15.5841C13.8828 15.4646 13.9812 15.3662 14.1008 15.3662H14.3117V11.1723H14.1008C14.0433 11.1713 13.9883 11.1481 13.9477 11.1074C13.907 11.0667 13.8837 11.0118 13.8828 10.9543V10.1422C13.8828 10.0192 13.9812 9.92075 14.1008 9.92075H16.3999ZM12.9372 15.3662H13.1446C13.2641 15.3662 13.3625 15.4646 13.3625 15.5841V16.3997C13.3625 16.4575 13.3396 16.513 13.2987 16.5538C13.2578 16.5947 13.2024 16.6177 13.1446 16.6177H10.849C10.7908 16.6177 10.735 16.5948 10.6936 16.5541C10.6522 16.5133 10.6284 16.4579 10.6275 16.3997V15.5841C10.6275 15.4646 10.7259 15.3662 10.849 15.3662H11.0564V11.1723H10.8455C10.7879 11.1713 10.733 11.1481 10.6923 11.1074C10.6517 11.0667 10.6284 11.0118 10.6275 10.9543V10.1422C10.6275 10.0192 10.7259 9.92075 10.849 9.92075H13.1446C13.2641 9.92075 13.3625 10.0192 13.3625 10.1422V10.9508C13.3625 11.0089 13.3397 11.0647 13.2989 11.1062C13.2581 11.1476 13.2027 11.1713 13.1446 11.1723H12.9372V15.3662ZM6.58825 17.4755H17.4053V18.5899H6.59177V17.4755H6.58825ZM9.68888 11.1723V15.3662H9.89278C10.0158 15.3662 10.1142 15.4646 10.1142 15.5841V16.3997C10.1143 16.4286 10.1085 16.4573 10.0973 16.484C10.0862 16.5106 10.0698 16.5348 10.0492 16.5551C10.0286 16.5754 10.0041 16.5914 9.97727 16.6021C9.95041 16.6129 9.92169 16.6182 9.89278 16.6177H7.59718C7.53966 16.6168 7.48475 16.5935 7.44407 16.5528C7.40339 16.5122 7.38013 16.4573 7.37923 16.3997V15.5841C7.37923 15.4646 7.47766 15.3662 7.59718 15.3662H7.80811V11.1723H7.59718C7.53966 11.1713 7.48475 11.1481 7.44407 11.1074C7.40339 11.0667 7.38013 11.0118 7.37923 10.9543V10.1422C7.37923 10.0192 7.47766 9.92075 7.59718 9.92075H9.89278C10.0158 9.92075 10.1142 10.0192 10.1142 10.1422V10.9508C10.1142 11.0095 10.0909 11.0658 10.0494 11.1074C10.0078 11.1489 9.95151 11.1723 9.89278 11.1723H9.68888Z" fill="#4C4C4C"/>
</g>
<path d="M6.59177 18.5899H17.4088V17.4755H6.59177V18.5899ZM17.4264 19.0293H6.57419C6.51927 19.0293 6.46489 19.0185 6.4142 18.9974C6.36351 18.9763 6.31752 18.9453 6.27889 18.9062C6.20037 18.828 6.15612 18.7218 6.15585 18.6109V17.4509C6.15667 17.3411 6.20091 17.2362 6.27889 17.1591C6.35713 17.0806 6.46334 17.0363 6.57419 17.036H17.4299C17.4854 17.0355 17.5405 17.0461 17.5918 17.0673C17.6431 17.0884 17.6897 17.1196 17.7287 17.1591C17.8072 17.2373 17.8515 17.3435 17.8518 17.4544V18.6145C17.8509 18.7242 17.8067 18.8291 17.7287 18.9062L17.5705 18.7516L17.7252 18.9062C17.647 18.9848 17.5408 19.029 17.4299 19.0293H17.4264ZM11.9985 9.50593H6.37029C6.322 9.50558 6.27515 9.48947 6.23687 9.46003C6.19859 9.4306 6.17098 9.38946 6.15824 9.34289C6.1455 9.29631 6.14833 9.24684 6.1663 9.20202C6.18428 9.15721 6.21641 9.11949 6.2578 9.09462L11.872 5.01318C11.9122 4.98386 11.9612 4.96895 12.0109 4.97087C12.0607 4.97278 12.1083 4.9914 12.1462 5.02372L17.7533 9.10868C17.7917 9.13523 17.8206 9.17341 17.8357 9.2176C17.8508 9.26179 17.8513 9.30966 17.8371 9.35415C17.8229 9.39864 17.7948 9.4374 17.757 9.46472C17.7191 9.49205 17.6735 9.50649 17.6268 9.50593H11.9985ZM7.04174 9.06649H16.9553L11.9985 5.45964L7.04174 9.06649Z" fill="#FFFFFE"/>
<path d="M11.999 6.3628C12.1721 6.36191 12.3415 6.41256 12.4857 6.50829C12.6299 6.60403 12.7424 6.74052 12.8087 6.90038C12.8751 7.06025 12.8924 7.23624 12.8583 7.40596C12.8243 7.57567 12.7406 7.73141 12.6177 7.85336C12.4958 7.9762 12.34 8.05996 12.1703 8.09397C12.0006 8.12799 11.8246 8.11071 11.6648 8.04436C11.5049 7.978 11.3684 7.86556 11.2727 7.72136C11.1769 7.57716 11.1263 7.40772 11.1272 7.23464C11.1272 7.12015 11.1497 7.00678 11.1935 6.901C11.2374 6.79523 11.3016 6.69912 11.3825 6.61816C11.4635 6.5372 11.5596 6.47298 11.6654 6.42917C11.7712 6.38536 11.8845 6.3628 11.999 6.3628ZM12.3084 6.92879C12.2481 6.86706 12.1707 6.82477 12.0862 6.80737C12.0017 6.78996 11.9139 6.79824 11.8342 6.83113C11.7544 6.86402 11.6863 6.92002 11.6386 6.99192C11.5909 7.06383 11.5659 7.14836 11.5666 7.23464C11.5659 7.32048 11.5907 7.40461 11.638 7.47629C11.6852 7.54797 11.7527 7.60397 11.8319 7.63715C11.9111 7.67033 11.9983 7.67919 12.0826 7.6626C12.1668 7.64601 12.2442 7.60472 12.3049 7.544C12.3456 7.50378 12.3779 7.45588 12.3999 7.40308C12.422 7.35028 12.4334 7.29362 12.4334 7.2364C12.4334 7.17917 12.422 7.12251 12.3999 7.06971C12.3779 7.01691 12.3491 6.96901 12.3084 6.92879ZM8.03007 10.7325H9.4714C9.59444 10.7325 9.69288 10.8309 9.69288 10.954V15.5874C9.69195 15.6455 9.66821 15.7009 9.62678 15.7417C9.58534 15.7825 9.52954 15.8053 9.4714 15.8053H8.03007C7.97193 15.8053 7.91613 15.7825 7.87469 15.7417C7.83326 15.7009 7.80952 15.6455 7.80859 15.5874V10.954C7.80859 10.8309 7.90703 10.7325 8.03007 10.7325ZM9.25345 11.1719H8.24803V15.3659H9.25345V11.1719Z" fill="#FFFFFE"/>
<path d="M7.60077 15.3623H9.89636C10.0194 15.3623 10.1178 15.4643 10.1178 15.5838V16.3994C10.1178 16.4283 10.1121 16.4569 10.1009 16.4836C10.0897 16.5103 10.0734 16.5345 10.0528 16.5548C10.0321 16.5751 10.0077 16.591 9.98085 16.6018C9.954 16.6125 9.92528 16.6178 9.89636 16.6173H7.60077C7.54325 16.6164 7.48833 16.5932 7.44765 16.5525C7.40697 16.5118 7.38372 16.4569 7.38281 16.3994V15.5838C7.38281 15.4643 7.48125 15.3623 7.60077 15.3623ZM9.67489 15.8053H7.82224V16.1779H9.6784L9.67489 15.8053ZM7.60077 9.92041H9.89636C10.0194 9.92041 10.1178 10.0188 10.1178 10.1419V10.9504C10.1178 11.0092 10.0945 11.0655 10.053 11.107C10.0114 11.1486 9.9551 11.1719 9.89636 11.1719H7.60077C7.54325 11.171 7.48833 11.1478 7.44765 11.1071C7.40697 11.0664 7.38372 11.0115 7.38281 10.954V10.1419C7.38281 10.0188 7.48125 9.92041 7.60077 9.92041ZM9.67489 10.3598H7.82224V10.7325H9.6784L9.67489 10.3598ZM11.2779 10.7325H12.7193C12.8423 10.7325 12.9407 10.8309 12.9407 10.954V15.5873C12.9398 15.6448 12.9166 15.6998 12.8759 15.7404C12.8352 15.7811 12.7803 15.8044 12.7228 15.8053H11.2815C11.2233 15.8053 11.1675 15.7824 11.1261 15.7417C11.0846 15.7009 11.0609 15.6454 11.06 15.5873V10.954C11.06 10.8309 11.1584 10.7325 11.2779 10.7325ZM12.5013 11.1719H11.4994V15.3658H12.5013V11.1719Z" fill="#FFFFFE"/>
<path d="M10.8523 15.3623H13.1479C13.2674 15.3623 13.3659 15.4643 13.3659 15.5838V16.3994C13.3659 16.428 13.3602 16.4564 13.3493 16.4828C13.3383 16.5092 13.3223 16.5333 13.302 16.5535C13.2818 16.5737 13.2578 16.5898 13.2313 16.6008C13.2049 16.6117 13.1765 16.6173 13.1479 16.6173H10.8523C10.7942 16.6174 10.7384 16.5945 10.697 16.5537C10.6555 16.513 10.6318 16.4575 10.6309 16.3994V15.5838C10.6309 15.4643 10.7293 15.3623 10.8523 15.3623ZM12.9265 15.8053H11.0738V16.1779H12.93L12.9265 15.8053ZM10.8523 9.92041H13.1479C13.2674 9.92041 13.3659 10.0188 13.3659 10.1419V10.9504C13.3659 11.0086 13.343 11.0644 13.3023 11.1058C13.2615 11.1472 13.2061 11.171 13.1479 11.1719H10.8523C10.7942 11.1719 10.7384 11.1491 10.697 11.1083C10.6555 11.0675 10.6318 11.0121 10.6309 10.954V10.1419C10.6309 10.0188 10.7293 9.92041 10.8523 9.92041ZM12.9265 10.3598H11.0738V10.7325H12.93L12.9265 10.3598ZM14.5295 10.7325H15.9708C16.0939 10.7325 16.1923 10.8309 16.1923 10.954V15.5873C16.1914 15.6454 16.1676 15.7009 16.1262 15.7417C16.0848 15.7824 16.029 15.8053 15.9708 15.8053H14.5295C14.4714 15.8053 14.4156 15.7824 14.3741 15.7417C14.3327 15.7009 14.3089 15.6454 14.308 15.5873V10.954C14.308 10.8309 14.4065 10.7325 14.5295 10.7325ZM15.7529 11.1719H14.7475V15.3658H15.7529V11.1719Z" fill="#FFFFFE"/>
<path d="M14.1008 15.3623H16.3964C16.5194 15.3623 16.6178 15.4643 16.6178 15.5838V16.3994C16.6169 16.4575 16.5932 16.513 16.5517 16.5537C16.5103 16.5945 16.4545 16.6174 16.3964 16.6173H14.1008C14.0432 16.6164 13.9883 16.5932 13.9477 16.5525C13.907 16.5118 13.8837 16.4569 13.8828 16.3994V15.5838C13.8828 15.4643 13.9812 15.3623 14.1008 15.3623ZM16.1784 15.8053H14.3222V16.1779H16.1784V15.8053ZM14.1008 9.92041H16.3964C16.5194 9.92041 16.6178 10.0188 16.6178 10.1419V10.9504C16.6178 11.0092 16.5945 11.0655 16.553 11.107C16.5114 11.1486 16.4551 11.1719 16.3964 11.1719H14.1008C14.0432 11.171 13.9883 11.1478 13.9477 11.1071C13.907 11.0664 13.8837 11.0115 13.8828 10.954V10.1419C13.8828 10.0188 13.9812 9.92041 14.1008 9.92041ZM16.1784 10.3598H14.3222V10.7325H16.1784V10.3598Z" fill="#FFFFFE"/>
</g>
<defs>
<clipPath id="clip0_1008_6411">
<rect width="24" height="24" fill="white"/>
</clipPath>
</defs>
</svg>
