<svg width="48" height="45" viewBox="0 0 48 45" fill="none" xmlns="http://www.w3.org/2000/svg">
<path d="M43.9969 7.99688H4.00313C1.79063 7.99688 0 9.79688 0 12V13.9969H48V12C48 9.79688 46.2094 7.99688 43.9969 7.99688ZM19.9969 4.00313H27.9938V6H31.9969V4.00313C31.9969 1.8 30.2063 0 27.9938 0H19.9969C17.7938 0 15.9938 1.79063 15.9938 4.00313V6H19.9969V4.00313ZM0 40.0031C0 42.2063 1.79063 44.0062 4.00313 44.0062H44.0062C46.2094 44.0062 48.0094 42.2156 48.0094 40.0031V38.0062H0V40.0031ZM0 34.0031H48V18H0V34.0031Z" fill="#1C3E5E"/>
</svg>
