<svg width="24" height="24" viewBox="0 0 24 24" fill="none" xmlns="http://www.w3.org/2000/svg">
<g clip-path="url(#clip0_1009_10192)">
<path d="M16.0195 17.3726L17.3735 16.0186L19.0398 17.6848L17.6858 19.0388L16.0195 17.3726Z" fill="#676E87"/>
<path d="M17.373 16.0186L17.0215 16.3701L17.6609 17.0095C17.84 17.1886 17.9406 17.4316 17.9406 17.685C17.9406 17.9383 17.84 18.1813 17.6609 18.3604L17.3327 18.6886L17.6843 19.0401L19.038 17.6864L17.373 16.0186Z" fill="#595F74"/>
<path d="M23.1522 23.1527C22.9949 23.31 22.8082 23.4348 22.6027 23.5199C22.3972 23.605 22.177 23.6488 21.9545 23.6488C21.7321 23.6488 21.5119 23.605 21.3064 23.5199C21.1009 23.4348 20.9142 23.31 20.7569 23.1527L17.6847 20.0805C17.6162 20.0121 17.5619 19.931 17.5249 19.8416C17.4878 19.7522 17.4688 19.6565 17.4688 19.5597C17.4688 19.463 17.4878 19.3672 17.5249 19.2778C17.5619 19.1885 17.6162 19.1073 17.6847 19.0389L19.0384 17.6852C19.1068 17.6167 19.188 17.5624 19.2773 17.5254C19.3667 17.4883 19.4625 17.4692 19.5592 17.4692C19.656 17.4692 19.7518 17.4883 19.8411 17.5254C19.9305 17.5624 20.0117 17.6167 20.08 17.6852L23.1522 20.7574C23.3095 20.9146 23.4343 21.1014 23.5194 21.3068C23.6045 21.5123 23.6483 21.7326 23.6483 21.955C23.6483 22.1775 23.6045 22.3977 23.5194 22.6032C23.4343 22.8087 23.3095 22.9954 23.1522 23.1527Z" fill="#FFCD85"/>
<path d="M23.1516 20.7574L20.0794 17.6852C20.011 17.6167 19.9298 17.5624 19.8405 17.5254C19.7511 17.4883 19.6553 17.4692 19.5586 17.4692C19.4619 17.4692 19.3661 17.4883 19.2767 17.5254C19.1873 17.5624 19.1062 17.6167 19.0378 17.6852L18.8555 17.8675L21.7453 20.7574C21.9026 20.9146 22.0274 21.1014 22.1125 21.3068C22.1976 21.5123 22.2415 21.7326 22.2415 21.955C22.2415 22.1775 22.1976 22.3977 22.1125 22.6032C22.0274 22.8087 21.9026 22.9954 21.7453 23.1527C21.6023 23.2957 21.4348 23.4119 21.2508 23.4958C21.5648 23.639 21.9152 23.6829 22.2548 23.6216C22.5945 23.5603 22.9074 23.3967 23.1516 23.1527C23.3089 22.9954 23.4336 22.8087 23.5188 22.6032C23.6039 22.3977 23.6477 22.1775 23.6477 21.955C23.6477 21.7326 23.6039 21.5123 23.5188 21.3068C23.4336 21.1014 23.3089 20.9146 23.1516 20.7574Z" fill="#FFC166"/>
<path d="M16.9265 16.9265C20.7193 13.1337 20.7193 6.98442 16.9265 3.19164C13.1338 -0.601145 6.98445 -0.601145 3.19166 3.19164C-0.601122 6.98442 -0.601122 13.1337 3.19166 16.9265C6.98445 20.7193 13.1338 20.7193 16.9265 16.9265Z" fill="#B3E0FF"/>
<path d="M10.0596 17.8746C14.376 17.8746 17.8751 14.3755 17.8751 10.0591C17.8751 5.74276 14.376 2.24365 10.0596 2.24365C5.74325 2.24365 2.24414 5.74276 2.24414 10.0591C2.24414 14.3755 5.74325 17.8746 10.0596 17.8746Z" fill="#D9F0FF"/>
<path d="M12.0742 8.95291H8.04297C7.94973 8.95291 7.86031 8.91587 7.79438 8.84994C7.72845 8.78401 7.69141 8.69459 7.69141 8.60135V7.0076C7.69165 6.74523 7.79599 6.49369 7.98151 6.30817C8.16703 6.12265 8.41857 6.01831 8.68094 6.01807H11.4372C11.6996 6.01831 11.9511 6.12265 12.1366 6.30817C12.3221 6.49369 12.4265 6.74523 12.4267 7.0076V8.60135C12.4267 8.64759 12.4176 8.69339 12.3999 8.7361C12.3821 8.77882 12.3562 8.81761 12.3234 8.85027C12.2907 8.88293 12.2518 8.90881 12.209 8.92642C12.1663 8.94403 12.1205 8.95303 12.0742 8.95291ZM8.39453 8.24979H11.7227V7.00619C11.7225 6.93027 11.6923 6.85749 11.6386 6.80381C11.5849 6.75012 11.5122 6.71991 11.4362 6.71979H8.68094C8.60502 6.71991 8.53224 6.75012 8.47855 6.80381C8.42487 6.85749 8.39466 6.93027 8.39453 7.00619V8.24979Z" fill="#676E87"/>
<path d="M13.8793 7.89844H6.23914C5.92046 7.89844 5.66211 8.15678 5.66211 8.47547V13.1723C5.66211 13.491 5.92046 13.7494 6.23914 13.7494H13.8793C14.198 13.7494 14.4563 13.491 14.4563 13.1723V8.47547C14.4563 8.15678 14.198 7.89844 13.8793 7.89844Z" fill="#FFC166"/>
<path d="M13.8789 7.89844H12.4727C12.6257 7.89844 12.7726 7.95922 12.8808 8.06742C12.9891 8.17562 13.05 8.32239 13.0502 8.47547V13.1719C13.05 13.325 12.9891 13.4717 12.8808 13.5799C12.7726 13.6881 12.6257 13.7489 12.4727 13.7489H13.8789C14.032 13.7489 14.1788 13.6881 14.2871 13.5799C14.3954 13.4717 14.4563 13.325 14.4564 13.1719V8.47547C14.4563 8.32239 14.3954 8.17562 14.2871 8.06742C14.1788 7.95922 14.032 7.89844 13.8789 7.89844Z" fill="#FFB74E"/>
<path d="M14.4563 9.65625L10.441 11.4042C10.3205 11.4566 10.1904 11.4837 10.059 11.4837C9.92754 11.4837 9.7975 11.4566 9.67695 11.4042L5.66211 9.65625V8.47547C5.66211 8.32243 5.7229 8.17566 5.83112 8.06745C5.93933 7.95923 6.0861 7.89844 6.23914 7.89844H13.8798C14.0328 7.89844 14.1797 7.95922 14.288 8.06742C14.3962 8.17562 14.4571 8.32239 14.4573 8.47547L14.4563 9.65625Z" fill="#FFAE36"/>
<path d="M13.8789 7.89844H12.4727C12.6257 7.89844 12.7726 7.95922 12.8808 8.06742C12.9891 8.17562 13.05 8.32239 13.0502 8.47547V10.2656L14.4564 9.65344V8.47547C14.4563 8.32239 14.3954 8.17562 14.2871 8.06742C14.1788 7.95922 14.032 7.89844 13.8789 7.89844Z" fill="#FFA41F"/>
<path d="M10.4336 10.6431H9.68359C9.50238 10.6431 9.35547 10.79 9.35547 10.9712V11.7212C9.35547 11.9024 9.50238 12.0493 9.68359 12.0493H10.4336C10.6148 12.0493 10.7617 11.9024 10.7617 11.7212V10.9712C10.7617 10.79 10.6148 10.6431 10.4336 10.6431Z" fill="#676E87"/>
<path d="M10.4346 10.6431H9.89648C9.98351 10.6431 10.067 10.6776 10.1285 10.7392C10.19 10.8007 10.2246 10.8842 10.2246 10.9712V11.7212C10.2246 11.8082 10.19 11.8917 10.1285 11.9532C10.067 12.0147 9.98351 12.0493 9.89648 12.0493H10.4346C10.5216 12.0493 10.6051 12.0147 10.6666 11.9532C10.7282 11.8917 10.7627 11.8082 10.7627 11.7212V10.9712C10.7627 10.8842 10.7282 10.8007 10.6666 10.7392C10.6051 10.6776 10.5216 10.6431 10.4346 10.6431Z" fill="#595F74"/>
</g>
<defs>
<clipPath id="clip0_1009_10192">
<rect width="24" height="24" fill="white"/>
</clipPath>
</defs>
</svg>
