<svg width="21" height="20" viewBox="0 0 21 20" fill="none" xmlns="http://www.w3.org/2000/svg">
<g clip-path="url(#clip0_88_490)">
<path d="M18.875 0.468822H2.625C2.2563 0.46507 1.90117 0.607735 1.63753 0.865514C1.37389 1.12329 1.22328 1.47513 1.21875 1.84382V18.1594C1.2241 18.5276 1.37507 18.8786 1.63862 19.1357C1.90217 19.3928 2.25683 19.5351 2.625 19.5313H18.875C19.2437 19.5342 19.5986 19.3911 19.8621 19.1332C20.1256 18.8752 20.2763 18.5235 20.2812 18.1548V1.83913C20.2747 1.47152 20.1233 1.12136 19.8599 0.864769C19.5966 0.608173 19.2427 0.465881 18.875 0.468822Z" fill="#0076B2"/>
<path d="M4.04141 7.61426H6.87109V16.7189H4.04141V7.61426ZM5.45703 3.08301C5.78158 3.08301 6.09884 3.17927 6.36868 3.35961C6.63851 3.53996 6.84879 3.79628 6.97292 4.09615C7.09705 4.39603 7.12945 4.72599 7.06602 5.04428C7.00259 5.36257 6.84618 5.6549 6.61658 5.88428C6.38697 6.11367 6.0945 6.2698 5.77614 6.33292C5.45779 6.39605 5.12787 6.36334 4.82811 6.23892C4.52835 6.11451 4.27223 5.90398 4.09214 5.63398C3.91206 5.36397 3.8161 5.04662 3.81641 4.72207C3.81682 4.28722 3.98985 3.87032 4.29749 3.56298C4.60512 3.25564 5.02218 3.08301 5.45703 3.08301ZM8.64609 7.61426H11.3586V8.86426H11.3961C11.7742 8.14863 12.6961 7.39395 14.0727 7.39395C16.9383 7.3877 17.4695 9.27363 17.4695 11.7189V16.7189H14.6398V12.2893C14.6398 11.2346 14.6211 9.87676 13.1695 9.87676C11.718 9.87676 11.4711 11.0268 11.4711 12.2205V16.7189H8.64609V7.61426Z" fill="white"/>
</g>
<defs>
<clipPath id="clip0_88_490">
<rect width="20" height="20" fill="white" transform="translate(0.75)"/>
</clipPath>
</defs>
</svg>
