<svg width="20" height="20" viewBox="0 0 20 20" fill="none" xmlns="http://www.w3.org/2000/svg">
<path d="M10.0008 11.8089C8.22576 11.8089 6.77576 10.3672 6.77576 8.58385C6.77576 6.80052 8.22576 5.36719 10.0008 5.36719C11.7758 5.36719 13.2258 6.80885 13.2258 8.59219C13.2258 10.3755 11.7758 11.8089 10.0008 11.8089ZM10.0008 6.61719C8.91742 6.61719 8.02576 7.50052 8.02576 8.59219C8.02576 9.68385 8.90909 10.5672 10.0008 10.5672C11.0924 10.5672 11.9758 9.68385 11.9758 8.59219C11.9758 7.50052 11.0841 6.61719 10.0008 6.61719Z" fill="#1C3E5E"/>
<path d="M9.99978 18.967C8.76645 18.967 7.52478 18.5003 6.55811 17.5753C4.09978 15.2087 1.38311 11.4337 2.40811 6.94199C3.33311 2.86699 6.89145 1.04199 9.99978 1.04199C9.99978 1.04199 9.99978 1.04199 10.0081 1.04199C13.1164 1.04199 16.6748 2.86699 17.5998 6.95033C18.6164 11.442 15.8998 15.2087 13.4414 17.5753C12.4748 18.5003 11.2331 18.967 9.99978 18.967ZM9.99978 2.29199C7.57478 2.29199 4.45811 3.58366 3.63311 7.21699C2.73311 11.142 5.19978 14.5253 7.43311 16.667C8.87478 18.0587 11.1331 18.0587 12.5748 16.667C14.7998 14.5253 17.2664 11.142 16.3831 7.21699C15.5498 3.58366 12.4248 2.29199 9.99978 2.29199Z" fill="#1C3E5E"/>
</svg>
