<svg width="262" height="58" viewBox="0 0 262 58" fill="none" xmlns="http://www.w3.org/2000/svg">
<path fill-rule="evenodd" clip-rule="evenodd" d="M215.452 18.9388C216.546 19.1836 218.218 19.9818 219.942 21.2165C221.666 22.452 224.868 24.6589 226.799 25.0698C225.736 26.2384 223.289 26.8852 221.2 25.7714C219.111 24.6575 216.864 22.09 215.452 18.9388ZM216.094 17.9211C217.162 18.2514 218.66 18.855 219.954 19.8172C221.247 20.7787 225.03 23.6802 227.399 24.039C228.01 22.2156 226.077 19.8393 224.068 18.469C222.058 17.0986 217.992 16.7769 216.094 17.9211ZM256.001 29.9767C255.049 29.9713 254.058 29.5479 250.108 28.663C248.038 28.1989 244.698 28.1724 242.758 28.549C243.281 27.0582 245.516 25.3671 247.875 25.5548C251.55 25.8468 253.47 27.6276 256.001 29.9767ZM255.547 30.9438C254.715 30.8978 252.237 30.2505 250.671 29.871C249.104 29.4911 245.029 29.1202 242.708 29.7156C242.858 31.6327 244.643 32.2646 247.029 32.7416C249.413 33.2175 253.786 32.389 255.547 30.9438ZM241.049 6.10581C240.939 7.22175 240.351 8.97843 239.335 10.8407C238.319 12.702 236.519 16.1491 236.347 18.1169C235.057 17.204 234.117 14.855 234.968 12.6455C235.818 10.4359 238.093 7.89173 241.049 6.10581ZM242.137 6.62028C241.94 7.72022 241.522 9.28081 240.726 10.6825C239.929 12.0839 237.511 16.1917 237.444 18.5877C239.328 18.9711 241.451 16.7634 242.566 14.602C243.682 12.4407 243.504 8.36443 242.137 6.62028ZM226.122 7.47097C226.319 8.46071 227.001 9.9824 228.075 11.5606C229.149 13.1382 231.066 16.0669 231.392 17.8143C232.467 16.8824 233.103 14.6959 232.145 12.7918C231.188 10.8878 228.927 8.80952 226.122 7.47097ZM225.193 8.02667C225.467 8.99465 225.977 10.3553 226.815 11.5401C227.653 12.725 230.181 16.1912 230.453 18.3308C228.799 18.8403 226.703 17.0508 225.513 15.2125C224.323 13.375 224.122 9.71013 225.193 8.02667ZM243.532 21.9629C242.972 20.9007 243.016 18.3397 245 16.6138C246.244 15.5308 249.727 14.1915 252.784 14.9024C250.744 16.05 248.425 17.3449 247.104 18.4337C245.784 19.5237 244.618 20.5675 243.532 21.9629ZM244.13 22.7554C244.721 23.2666 247.678 23.9933 249.482 22.3989C251.285 20.8041 252.083 19.7402 253.409 15.751C251.763 16.6925 249.331 18.0462 247.899 19.1946C246.767 20.1031 244.9 21.7773 244.13 22.7554Z" fill="#00E89D"/>
<path d="M39.0997 26.8114L25.4946 50.419L15.3262 44.567L28.9313 20.9593L39.0997 26.8114ZM42.4954 44.5483L56.1005 20.9407L66.2689 26.7927L52.6638 50.4004L42.4954 44.5483Z" fill="#0078FF"/>
<path d="M67.0328 23.8796C67.0328 27.1131 64.3994 29.7466 61.1658 29.7466C57.9323 29.7466 55.2989 27.1131 55.2989 23.8796C55.2989 20.6461 57.9323 18.0126 61.1658 18.0126C64.4199 18.0126 67.0328 20.6461 67.0328 23.8796ZM20.4344 53.3579C19.4004 53.3596 18.3843 53.0882 17.489 52.5711C16.5936 52.0541 15.8506 51.3097 15.3353 50.4133L1.75999 26.8C1.37526 26.1333 1.12583 25.3973 1.026 24.6341C0.926159 23.8708 0.977872 23.0954 1.17818 22.3522C1.37848 21.609 1.72343 20.9126 2.19329 20.3029C2.66314 19.6932 3.24866 19.1822 3.91631 18.7991C6.7361 17.1814 10.3219 18.1356 11.9377 20.9554L25.5149 44.5463C26.2883 45.8969 26.4957 47.4988 26.0917 49.0019C25.6876 50.505 24.705 51.787 23.3586 52.5677C22.4267 53.1268 21.4315 53.3561 20.4363 53.3561L20.4344 53.3579Z" fill="#00E89D"/>
<path d="M47.5878 53.358C45.5377 53.358 43.5864 52.3013 42.4887 50.4134L28.9115 26.8001C28.1381 25.4495 27.9307 23.8476 28.3347 22.3445C28.7388 20.8415 29.7214 19.5595 31.0678 18.7787C32.4185 18.0052 34.0204 17.7979 35.5234 18.2019C37.0265 18.606 38.3085 19.5886 39.0893 20.935L52.6664 44.5483C53.4399 45.8989 53.6472 47.5008 53.2432 49.0038C52.8391 50.5069 51.8565 51.7889 50.5101 52.5697C49.5969 53.1102 48.583 53.358 47.5878 53.358Z" fill="#00E89D"/>
<path d="M69.2732 50V32.944H74.8412L75.1612 38.544L73.9132 37.584C74.1905 36.6453 74.6172 35.8027 75.1932 35.056C75.7905 34.288 76.5052 33.6907 77.3372 33.264C78.1692 32.816 79.0439 32.592 79.9612 32.592C80.3452 32.592 80.7079 32.624 81.0492 32.688C81.3905 32.7307 81.7105 32.7947 82.0092 32.88L80.3772 39.472C80.1425 39.3227 79.8119 39.1947 79.3852 39.088C78.9585 38.96 78.4999 38.896 78.0092 38.896C77.5825 38.896 77.1985 38.9707 76.8572 39.12C76.5159 39.248 76.2279 39.44 75.9932 39.696C75.7585 39.952 75.5772 40.2613 75.4492 40.624C75.3212 40.9653 75.2572 41.3707 75.2572 41.84V50H69.2732ZM84.7465 50V32.944H90.6985V50H84.7465ZM87.7225 29.712C86.6345 29.712 85.7918 29.4667 85.1945 28.976C84.5971 28.464 84.2985 27.7493 84.2985 26.832C84.2985 25.9787 84.5971 25.2853 85.1945 24.752C85.8131 24.1973 86.6558 23.92 87.7225 23.92C88.7891 23.92 89.6211 24.176 90.2185 24.688C90.8371 25.1787 91.1465 25.8933 91.1465 26.832C91.1465 27.6853 90.8371 28.3787 90.2185 28.912C89.5998 29.4453 88.7678 29.712 87.7225 29.712ZM103.271 57.36C101.799 57.36 100.338 57.1467 98.887 56.72C97.4363 56.3147 96.2523 55.7813 95.335 55.12L97.351 51.056C97.8203 51.3547 98.311 51.6107 98.823 51.824C99.3563 52.0587 99.911 52.2293 100.487 52.336C101.063 52.4427 101.671 52.496 102.311 52.496C103.335 52.496 104.167 52.3467 104.807 52.048C105.468 51.7707 105.948 51.3333 106.247 50.736C106.567 50.1387 106.727 49.3707 106.727 48.432V45.744L107.975 45.904C107.826 46.608 107.463 47.248 106.887 47.824C106.311 48.3787 105.586 48.8267 104.711 49.168C103.858 49.488 102.962 49.648 102.023 49.648C100.487 49.648 99.1323 49.3067 97.959 48.624C96.7856 47.92 95.8576 46.9493 95.175 45.712C94.4923 44.4747 94.151 43.024 94.151 41.36C94.151 39.632 94.4816 38.1173 95.143 36.816C95.8256 35.4933 96.743 34.4587 97.895 33.712C99.047 32.9653 100.37 32.592 101.863 32.592C102.503 32.592 103.111 32.656 103.687 32.784C104.263 32.912 104.796 33.0933 105.287 33.328C105.799 33.5627 106.247 33.8507 106.631 34.192C107.015 34.512 107.324 34.864 107.559 35.248C107.815 35.632 107.986 36.0373 108.071 36.464L106.855 36.752L107.143 32.944H112.711V48.432C112.711 49.8613 112.498 51.12 112.071 52.208C111.644 53.3173 111.015 54.256 110.183 55.024C109.372 55.792 108.38 56.368 107.207 56.752C106.055 57.1573 104.743 57.36 103.271 57.36ZM103.431 45.296C104.156 45.296 104.775 45.136 105.287 44.816C105.799 44.496 106.194 44.048 106.471 43.472C106.748 42.896 106.887 42.2027 106.887 41.392C106.887 40.5813 106.748 39.888 106.471 39.312C106.194 38.7147 105.799 38.2667 105.287 37.968C104.775 37.648 104.156 37.488 103.431 37.488C102.706 37.488 102.087 37.648 101.575 37.968C101.063 38.2667 100.668 38.7147 100.391 39.312C100.135 39.888 100.007 40.5813 100.007 41.392C100.007 42.2027 100.135 42.896 100.391 43.472C100.668 44.048 101.063 44.496 101.575 44.816C102.087 45.136 102.706 45.296 103.431 45.296ZM117.054 50V26.32H122.878V36.4L121.662 36.784C121.876 35.9733 122.292 35.2587 122.91 34.64C123.529 34 124.265 33.4987 125.118 33.136C125.972 32.7733 126.868 32.592 127.806 32.592C129.086 32.592 130.164 32.8587 131.038 33.392C131.934 33.904 132.606 34.6827 133.054 35.728C133.524 36.752 133.758 38.0107 133.758 39.504V50H127.806V39.984C127.806 39.4293 127.721 38.9707 127.55 38.608C127.38 38.224 127.124 37.936 126.782 37.744C126.441 37.552 126.036 37.4667 125.566 37.488C125.204 37.488 124.862 37.5413 124.542 37.648C124.244 37.7547 123.977 37.9253 123.742 38.16C123.508 38.3733 123.326 38.6187 123.198 38.896C123.092 39.1733 123.038 39.4827 123.038 39.824V50H120.062C119.337 50 118.718 50 118.206 50C117.716 50 117.332 50 117.054 50ZM142.528 50V33.072H135.744V27.6H155.872V33.072H148.864V50H142.528ZM162.105 50.288C160.697 50.288 159.428 49.9147 158.297 49.168C157.188 48.4 156.303 47.3547 155.641 46.032C155.001 44.688 154.681 43.1627 154.681 41.456C154.681 39.7067 155.001 38.1707 155.641 36.848C156.281 35.5253 157.167 34.4907 158.297 33.744C159.428 32.976 160.729 32.592 162.201 32.592C162.991 32.592 163.716 32.6987 164.377 32.912C165.039 33.1253 165.615 33.4347 166.105 33.84C166.596 34.2453 167.023 34.704 167.385 35.216C167.748 35.728 168.047 36.2827 168.281 36.88L167.065 36.816V32.944H172.921V50H166.937V45.84L168.249 45.904C168.057 46.5227 167.769 47.0987 167.385 47.632C167.023 48.1653 166.575 48.6347 166.041 49.04C165.508 49.424 164.911 49.7333 164.249 49.968C163.609 50.1813 162.895 50.288 162.105 50.288ZM163.801 45.392C164.484 45.392 165.071 45.2427 165.561 44.944C166.052 44.624 166.425 44.1653 166.681 43.568C166.959 42.9707 167.097 42.2667 167.097 41.456C167.097 40.624 166.959 39.9093 166.681 39.312C166.425 38.7147 166.052 38.2667 165.561 37.968C165.071 37.648 164.484 37.488 163.801 37.488C163.119 37.488 162.532 37.648 162.041 37.968C161.572 38.2667 161.209 38.7147 160.953 39.312C160.697 39.9093 160.569 40.624 160.569 41.456C160.569 42.2667 160.697 42.9707 160.953 43.568C161.209 44.1653 161.572 44.624 162.041 44.944C162.532 45.2427 163.119 45.392 163.801 45.392ZM177.43 50V26.32H183.382V50H177.43ZM195.81 50.32C193.868 50.32 192.194 49.9467 190.786 49.2C189.378 48.432 188.29 47.3867 187.522 46.064C186.754 44.72 186.37 43.1947 186.37 41.488C186.37 40.208 186.583 39.024 187.01 37.936C187.436 36.848 188.034 35.9093 188.802 35.12C189.57 34.3093 190.476 33.6907 191.522 33.264C192.588 32.816 193.751 32.592 195.01 32.592C196.247 32.592 197.367 32.8053 198.37 33.232C199.394 33.6587 200.268 34.2667 200.994 35.056C201.74 35.8453 202.306 36.7733 202.69 37.84C203.095 38.9067 203.276 40.08 203.234 41.36L203.202 42.704H189.762L189.026 39.728H198.434L197.858 40.368V39.76C197.858 39.2907 197.73 38.8853 197.474 38.544C197.239 38.1813 196.919 37.904 196.514 37.712C196.108 37.52 195.65 37.424 195.138 37.424C194.412 37.424 193.804 37.5733 193.314 37.872C192.844 38.1493 192.482 38.5547 192.226 39.088C191.97 39.6213 191.842 40.2613 191.842 41.008C191.842 41.8613 192.012 42.5973 192.354 43.216C192.716 43.8347 193.239 44.3147 193.922 44.656C194.626 44.9973 195.479 45.168 196.482 45.168C197.143 45.168 197.719 45.0827 198.21 44.912C198.722 44.7413 199.266 44.4427 199.842 44.016L202.594 47.888C201.847 48.4853 201.09 48.9653 200.322 49.328C199.575 49.6693 198.828 49.9147 198.082 50.064C197.335 50.2347 196.578 50.32 195.81 50.32ZM206.336 50V32.944H211.904L212.16 36.4L210.944 36.784C211.157 35.9733 211.573 35.2587 212.192 34.64C212.81 34 213.546 33.4987 214.4 33.136C215.253 32.7733 216.149 32.592 217.088 32.592C218.368 32.592 219.445 32.8587 220.32 33.392C221.216 33.904 221.888 34.6827 222.336 35.728C222.805 36.752 223.04 38.0107 223.04 39.504V50H217.088V39.984C217.088 39.4293 217.002 38.9707 216.832 38.608C216.661 38.224 216.405 37.936 216.064 37.744C215.722 37.552 215.317 37.4667 214.848 37.488C214.485 37.488 214.144 37.5413 213.824 37.648C213.525 37.7547 213.258 37.9253 213.024 38.16C212.789 38.3733 212.608 38.6187 212.48 38.896C212.373 39.1733 212.32 39.4827 212.32 39.824V50H209.344C208.618 50 208 50 207.488 50C206.997 50 206.613 50 206.336 50ZM228.362 50V28.624H234.314V50H228.362ZM225.546 38V32.944H237.29V38H225.546Z" fill="#0078FF"/>
</svg>
