<svg width="60" height="60" viewBox="0 0 60 60" fill="none" xmlns="http://www.w3.org/2000/svg">
<g id="Icon">
<path id="path" fill-rule="evenodd" clip-rule="evenodd" d="M25.88 12.9538L21.5995 13.4155V34.6033L25.9997 35.0838L43.3052 40.6303C43.659 40.7432 44.0281 40.8006 44.3995 40.8006C46.3877 40.8006 47.9995 39.1889 47.9995 37.2006V10.8012C47.9995 10.4284 47.9416 10.0579 47.8278 9.70286C47.2213 7.80942 45.1946 6.76622 43.3012 7.37279L40.7995 8.17423V20.4002C40.7995 21.0629 40.2622 21.6002 39.5995 21.6002C38.9367 21.6002 38.3995 21.0629 38.3995 20.4002V8.94309L25.88 12.9538ZM19.1998 34.3411V13.6743L12.299 14.4186C8.03322 14.8787 4.7998 18.4796 4.7998 22.7702V25.236C4.7998 29.5223 8.02701 33.1211 12.288 33.5864L19.1998 34.3411Z" fill="#46AD92"/>
<path id="path_2" fill-rule="evenodd" clip-rule="evenodd" d="M54.0001 23.9997C54.0001 21.5274 52.5682 19.3786 50.4001 18.0869V29.9124C52.5682 28.6208 54.0001 26.472 54.0001 23.9997ZM12.0275 35.9717C11.6203 35.9272 11.2204 35.8605 10.8291 35.7728L15.6483 48.113C16.1877 49.4943 17.5188 50.4035 19.0016 50.4035H20.3446C20.5585 50.4035 20.772 50.3844 20.9825 50.3465C22.9393 49.9941 24.2399 48.1222 23.8876 46.1655L22.2531 37.0883L12.0275 35.9717Z" fill="#FFD173"/>
</g>
</svg>
