<svg width="46" height="34" viewBox="0 0 46 34" fill="none" xmlns="http://www.w3.org/2000/svg">
<path d="M30.4999 17C28.5724 17 26.7086 16.1394 25.2499 14.5775C23.8315 13.0541 22.9652 11.0225 22.8124 8.85875C22.6493 6.55063 23.3533 4.42813 24.7943 2.88125C26.2352 1.33438 28.2499 0.5 30.4999 0.5C32.734 0.5 34.7543 1.34937 36.1905 2.8925C37.6408 4.45062 38.3468 6.56937 38.1836 8.85781C38.0271 11.0244 37.1618 13.055 35.7461 14.5766C34.2911 16.1394 32.4283 17 30.4999 17ZM42.859 33.5H18.1418C17.7444 33.5021 17.3518 33.4131 16.9942 33.2396C16.6367 33.0662 16.3236 32.8131 16.0793 32.4997C15.8201 32.16 15.641 31.766 15.5556 31.3473C15.4703 30.9286 15.4807 30.496 15.5861 30.0819C16.3755 26.9122 18.3311 24.2834 21.2411 22.4806C23.824 20.8812 27.1118 20 30.4999 20C33.9546 20 37.1561 20.8437 39.754 22.4422C42.6705 24.2356 44.629 26.8794 45.4146 30.0875C45.5188 30.5019 45.528 30.9345 45.4417 31.353C45.3553 31.7715 45.1756 32.1651 44.9158 32.5044C44.6717 32.8163 44.3594 33.0682 44.0029 33.2408C43.6464 33.4134 43.2551 33.502 42.859 33.5ZM12.7811 17.375C9.48208 17.375 6.58146 14.3075 6.31239 10.5378C6.17927 8.60656 6.78114 6.82062 7.99989 5.51094C9.20552 4.21437 10.9061 3.5 12.7811 3.5C14.6561 3.5 16.3436 4.21813 17.5558 5.52219C18.784 6.84219 19.384 8.62437 19.2433 10.5397C18.9743 14.3084 16.0746 17.375 12.7811 17.375ZM18.9368 20.3234C17.2877 19.5172 15.1474 19.1141 12.7821 19.1141C10.0202 19.1141 7.33802 19.8341 5.22864 21.1409C2.83708 22.625 1.22833 24.7859 0.578643 27.395C0.483567 27.7703 0.474574 28.1622 0.552338 28.5414C0.630102 28.9207 0.79261 29.2774 1.02771 29.585C1.25078 29.8714 1.53657 30.1028 1.86308 30.2614C2.1896 30.42 2.54814 30.5016 2.91114 30.5H13.3174C13.493 30.5 13.6631 30.4383 13.7979 30.3257C13.9328 30.2132 14.0238 30.0569 14.0552 29.8841C14.0655 29.825 14.0786 29.7659 14.0936 29.7078C14.8886 26.5147 16.7515 23.8166 19.504 21.8497C19.6052 21.7767 19.6866 21.6796 19.7409 21.5672C19.7951 21.4548 19.8204 21.3307 19.8146 21.206C19.8087 21.0814 19.7718 20.9601 19.7073 20.8533C19.6427 20.7465 19.5525 20.6575 19.4449 20.5944C19.2977 20.5081 19.129 20.4172 18.9368 20.3234Z" fill="#1C3E5E"/>
</svg>
