<svg width="57" height="42" viewBox="0 0 57 42" fill="none" xmlns="http://www.w3.org/2000/svg">
<path d="M56.0212 28.3268C55.5258 29.8696 55.2781 31.4768 54.535 32.9125C51.6123 38.6125 46.3611 41.484 39.2275 41.784C34.7442 41.9768 34.5956 41.5911 34.6699 38.0125C34.7195 34.5411 34.6947 34.5411 38.6331 34.5196C44.1319 34.4768 48.1693 30.5553 47.5501 25.841C47.3519 24.2767 46.0391 23.2482 44.1071 23.2053C41.754 23.1625 39.4009 23.0982 37.0478 23.2267C33.3572 23.4196 30.4096 20.591 30.4096 17.8481C30.4096 13.9481 30.3105 10.0695 30.4344 6.16951C30.5334 3.23378 33.3076 0.962336 36.7258 0.919479C41.11 0.855193 45.4694 0.876622 49.8536 0.919479C52.9746 0.962336 55.1543 2.61234 55.8231 5.31236C55.8726 5.48379 55.9717 5.63379 56.046 5.80522C56.0212 13.3267 56.0212 20.8267 56.0212 28.3268Z" fill="#0E0E0E"/>
<path d="M0.290039 5.61451C0.934044 4.60737 1.4542 3.49307 2.29636 2.6145C3.43576 1.39306 5.12008 0.921633 6.92825 0.921633C11.1391 0.921633 15.3499 0.900205 19.5607 0.921633C23.2265 0.943062 25.8026 2.97879 25.8521 6.17166C25.9264 13.6931 26.0255 21.236 25.7778 28.7575C25.6044 34.5218 19.9322 39.9647 13.0463 41.3147C11.0152 41.7218 8.88503 41.7004 6.77963 41.7647C5.49162 41.8076 4.74854 41.1647 4.67423 40.0718C4.59992 38.7647 4.59992 37.4361 4.67423 36.1075C4.74854 35.0789 5.51639 34.5432 6.73009 34.5004C7.86949 34.4575 9.05842 34.5218 10.173 34.3504C15.0526 33.6861 18.2231 29.8289 17.4305 25.5432C17.1828 24.1289 15.87 23.2289 13.9628 23.2075C11.6592 23.186 9.33088 23.2075 7.02733 23.2075C3.5596 23.2075 1.33036 21.686 0.463425 18.7289C0.463425 18.6432 0.364347 18.5574 0.290039 18.4717C0.290039 14.186 0.290039 9.90025 0.290039 5.61451Z" fill="#0E0E0E"/>
</svg>
