<svg width="72" height="72" viewBox="0 0 72 72" fill="none" xmlns="http://www.w3.org/2000/svg">
<path d="M36.5625 56.8125H30.9375" stroke="#37474F" stroke-miterlimit="10" stroke-linecap="round" stroke-linejoin="round"/>
<path d="M28.6875 56.8125H27.5625" stroke="#37474F" stroke-miterlimit="10" stroke-linecap="round" stroke-linejoin="round"/>
<path d="M16.3125 5.625H21.9375" stroke="#37474F" stroke-miterlimit="10" stroke-linecap="round" stroke-linejoin="round"/>
<path d="M24.1875 5.625H25.3125" stroke="#37474F" stroke-miterlimit="10" stroke-linecap="round" stroke-linejoin="round"/>
<path d="M18 37.6875H14.625V44.4375H18V37.6875Z" fill="#FFB300" stroke="#37474F" stroke-miterlimit="10" stroke-linecap="round" stroke-linejoin="round"/>
<path d="M27.3374 32.0625H23.9624V44.4375H27.3374V32.0625Z" fill="#FF7043" stroke="#37474F" stroke-miterlimit="10" stroke-linecap="round" stroke-linejoin="round"/>
<path d="M36.3374 25.875H32.9624V44.4375H36.3374V25.875Z" fill="#90CAF9" stroke="#37474F" stroke-miterlimit="10" stroke-linecap="round" stroke-linejoin="round"/>
<path d="M17.6626 28.6875L21.7126 24.75L25.6501 28.6875L36.3376 18" stroke="#37474F" stroke-miterlimit="10" stroke-linecap="round" stroke-linejoin="round"/>
<path d="M31.8376 18H36.3376V22.5" stroke="#37474F" stroke-miterlimit="10" stroke-linecap="round" stroke-linejoin="round"/>
<path d="M45.5625 20.025V15.1875C45.5625 13.6125 44.325 12.375 42.75 12.375H7.875C6.3 12.375 5.0625 13.6125 5.0625 15.1875V47.25C5.0625 48.825 6.3 50.0625 7.875 50.0625H42.75C44.325 50.0625 45.5625 48.825 45.5625 47.25V47.1375" stroke="#37474F" stroke-miterlimit="10" stroke-linecap="round" stroke-linejoin="round"/>
<path d="M55.6875 18C59.4154 18 62.4375 14.9779 62.4375 11.25C62.4375 7.52208 59.4154 4.5 55.6875 4.5C51.9596 4.5 48.9375 7.52208 48.9375 11.25C48.9375 14.9779 51.9596 18 55.6875 18Z" stroke="#37474F" stroke-miterlimit="10" stroke-linecap="round" stroke-linejoin="round"/>
<path d="M60.4125 7.3125L60.8625 6.8625C59.625 5.4 57.825 4.5 55.6875 4.5C51.975 4.5 48.9375 7.5375 48.9375 11.25H49.6125C53.55 11.25 57.375 9.9 60.4125 7.3125Z" fill="#FFB300" stroke="#37474F" stroke-miterlimit="10" stroke-linecap="round" stroke-linejoin="round"/>
<path d="M55.6875 18.0001C54.45 18.0001 53.325 17.6626 52.3125 17.1001V19.1251L55.6875 24.1876L59.0625 19.1251V17.1001C58.05 17.6626 56.925 18.0001 55.6875 18.0001Z" stroke="#37474F" stroke-miterlimit="10" stroke-linecap="round" stroke-linejoin="round"/>
<path d="M55.6875 24.1875L52.3125 19.125L47.5875 21.4875C45.675 22.3875 44.4375 24.4125 44.4375 26.55V39.375C44.4375 40.05 44.8875 40.5 45.5625 40.5H65.8125C66.4875 40.5 66.9375 40.05 66.9375 39.375V26.55C66.9375 24.4125 65.7 22.5 63.7875 21.4875L59.0625 19.125L55.6875 24.1875Z" stroke="#37474F" stroke-miterlimit="10" stroke-linecap="round" stroke-linejoin="round"/>
<path d="M55.6875 24.1875V28.6875" stroke="#37474F" stroke-miterlimit="10" stroke-linecap="round" stroke-linejoin="round"/>
<path d="M48.9375 40.5V29.25" stroke="#37474F" stroke-miterlimit="10" stroke-linecap="round" stroke-linejoin="round"/>
<path d="M62.4375 29.25V40.5" stroke="#37474F" stroke-miterlimit="10" stroke-linecap="round" stroke-linejoin="round"/>
<path d="M61.3125 67.5H58.95C58.3875 67.5 57.9375 67.05 57.825 66.4875L55.6875 46.125L53.55 66.4875C53.4375 67.05 52.9875 67.5 52.425 67.5H50.0625C49.3875 67.5 48.9375 67.05 48.9375 66.375V40.5H62.4375V66.375C62.4375 67.05 61.9875 67.5 61.3125 67.5Z" stroke="#37474F" stroke-miterlimit="10" stroke-linecap="round" stroke-linejoin="round"/>
<path d="M48.9375 42.75C48.9375 43.9875 47.925 45 46.6875 45C45.45 45 44.4375 43.9875 44.4375 42.75" stroke="#37474F" stroke-miterlimit="10" stroke-linecap="round" stroke-linejoin="round"/>
<path d="M66.9375 42.75C66.9375 43.9875 65.925 45 64.6875 45C63.45 45 62.4375 43.9875 62.4375 42.75" stroke="#37474F" stroke-miterlimit="10" stroke-linecap="round" stroke-linejoin="round"/>
</svg>
