<svg width="72" height="72" viewBox="0 0 72 72" fill="none" xmlns="http://www.w3.org/2000/svg">
<g clip-path="url(#clip0_13_573)">
<path d="M68.625 49.5H51.75V55.6875H34.875V61.875H18V68.0625H1.125V71.4375" stroke="#37474F" stroke-miterlimit="10" stroke-linecap="round" stroke-linejoin="round"/>
<path d="M61.875 46.125V4.5" stroke="#37474F" stroke-miterlimit="10" stroke-linecap="round" stroke-linejoin="round"/>
<path d="M61.875 13.5V5.625L70.875 9.5625L61.875 13.5Z" fill="#FF7043" stroke="#37474F" stroke-miterlimit="10" stroke-linecap="round" stroke-linejoin="round"/>
<path d="M5.0625 6.1875H10.6875" stroke="#37474F" stroke-miterlimit="10" stroke-linecap="round" stroke-linejoin="round"/>
<path d="M12.9375 6.1875H14.0625" stroke="#37474F" stroke-miterlimit="10" stroke-linecap="round" stroke-linejoin="round"/>
<path d="M57.375 64.6875H51.75" stroke="#37474F" stroke-miterlimit="10" stroke-linecap="round" stroke-linejoin="round"/>
<path d="M49.5 64.6875H48.375" stroke="#37474F" stroke-miterlimit="10" stroke-linecap="round" stroke-linejoin="round"/>
<path d="M2.8126 62.4374C2.3626 62.4374 1.9126 62.3249 1.5751 61.9874C0.900098 61.3124 0.900098 60.2999 1.5751 59.6249L10.5751 50.6249C11.2501 49.9499 12.2626 49.9499 12.9376 50.6249C13.6126 51.2999 13.6126 52.3124 12.9376 52.9874L3.9376 61.9874C3.7126 62.3249 3.2626 62.4374 2.8126 62.4374Z" fill="#90CAF9" stroke="#37474F" stroke-miterlimit="10" stroke-linecap="round" stroke-linejoin="round"/>
<path d="M11.8125 61.875C10.9125 61.875 10.125 61.0875 10.125 60.1875V53.4375H3.375C2.475 53.4375 1.6875 52.65 1.6875 51.75C1.6875 50.85 2.475 50.0625 3.375 50.0625H11.8125C12.7125 50.0625 13.5 50.85 13.5 51.75V60.1875C13.5 61.0875 12.7125 61.875 11.8125 61.875Z" fill="#90CAF9" stroke="#37474F" stroke-miterlimit="10" stroke-linecap="round" stroke-linejoin="round"/>
<path d="M47.2671 9.84907C48.6937 6.40484 47.0582 2.45619 43.614 1.02952C40.1697 -0.397157 36.2211 1.23839 34.7944 4.68262C33.3677 8.12685 35.0033 12.0755 38.4475 13.5022C41.8917 14.9288 45.8404 13.2933 47.2671 9.84907Z" stroke="#37474F" stroke-miterlimit="10" stroke-linecap="round" stroke-linejoin="round"/>
<path d="M46.8002 5.51213L47.4752 5.28713C46.9127 3.48713 45.5627 1.91213 43.6502 1.01213C40.1627 -0.450368 36.2252 1.23713 34.8752 4.61213L35.4377 4.83713C39.0377 6.52463 43.0877 6.63713 46.8002 5.51213Z" fill="#FFB300" stroke="#37474F" stroke-miterlimit="10" stroke-linecap="round" stroke-linejoin="round"/>
<path d="M27.9002 39.0371L21.4877 57.1496C21.2627 57.7121 21.6002 58.3871 22.1627 58.6121L24.3002 59.5121C24.8627 59.7371 25.5377 59.5121 25.7627 58.9496L34.0877 41.6246" stroke="#37474F" stroke-miterlimit="10" stroke-linecap="round" stroke-linejoin="round"/>
<path d="M40.9502 26.8871C41.0627 29.0246 42.4127 30.8246 44.4377 31.7246L52.8752 35.2121L54.5627 31.0496L45.4502 27.2246L44.8877 19.5746C44.7752 17.4371 43.4252 15.6371 41.4002 14.7371L33.4127 11.3621C32.6252 11.0246 31.7252 10.9121 30.8252 10.9121L21.7127 11.5871C19.5752 11.6996 17.7752 13.0496 16.8752 15.0746L13.3877 23.6246L17.5502 25.3121L21.3752 16.1996L30.2627 15.5246L24.6377 29.0246C23.4002 31.9496 24.8627 35.2121 27.6752 36.3371L39.1502 41.0621L36.2252 50.9621C36.1127 51.5246 36.3377 52.0871 36.9002 52.3121L39.1502 53.2121C39.7127 53.4371 40.2752 53.2121 40.6127 52.6496L45.4502 42.7496C46.9127 39.8246 45.5627 36.3371 42.5252 35.0996L37.6877 33.0746L40.9502 25.1996V26.8871Z" stroke="#37474F" stroke-miterlimit="10" stroke-linecap="round" stroke-linejoin="round"/>
<path d="M16.7627 27.4497C16.3127 28.5747 14.9627 29.1372 13.8377 28.6872C12.7127 28.2372 12.1502 26.8872 12.6002 25.7622" stroke="#37474F" stroke-miterlimit="10" stroke-linecap="round" stroke-linejoin="round"/>
<path d="M56.7002 31.9497C57.8252 32.3997 58.3877 33.7497 57.9377 34.8747C57.4877 35.9997 56.1377 36.5622 55.0127 36.1122" stroke="#37474F" stroke-miterlimit="10" stroke-linecap="round" stroke-linejoin="round"/>
<path d="M37.5751 33.2995L25.0876 28.1245" stroke="#37474F" stroke-miterlimit="10" stroke-linecap="round" stroke-linejoin="round"/>
</g>
<defs>
<clipPath id="clip0_13_573">
<rect width="72" height="72" fill="white"/>
</clipPath>
</defs>
</svg>
