<svg width="72" height="72" viewBox="0 0 72 72" fill="none" xmlns="http://www.w3.org/2000/svg">
<path d="M60.75 60.75H66.375" stroke="#37474F" stroke-miterlimit="10" stroke-linecap="round" stroke-linejoin="round"/>
<path d="M68.625 60.75H69.75" stroke="#37474F" stroke-miterlimit="10" stroke-linecap="round" stroke-linejoin="round"/>
<path d="M11.25 60.75H5.625" stroke="#37474F" stroke-miterlimit="10" stroke-linecap="round" stroke-linejoin="round"/>
<path d="M3.375 60.75H2.25" stroke="#37474F" stroke-miterlimit="10" stroke-linecap="round" stroke-linejoin="round"/>
<path d="M36 36.625C43.3178 36.625 49.25 30.6928 49.25 23.375C49.25 16.0572 43.3178 10.125 36 10.125C28.6822 10.125 22.75 16.0572 22.75 23.375C22.75 30.6928 28.6822 36.625 36 36.625Z" stroke="#37474F" stroke-miterlimit="10" stroke-linecap="round" stroke-linejoin="round"/>
<path d="M45.1094 15.7562L46.1031 14.9281C43.6187 11.9469 39.975 10.125 36 10.125C28.7125 10.125 22.75 16.0875 22.75 23.375H24.075C31.6937 23.375 39.3125 20.725 45.1094 15.7562Z" fill="#FFB300" stroke="#37474F" stroke-miterlimit="10" stroke-linecap="round" stroke-linejoin="round"/>
<path d="M36.0007 36.6251C34.1789 36.6251 32.5226 36.2938 31.032 35.6313V38.2813L36.0007 45.7345L40.9695 38.2813V35.6313C39.4789 36.2938 37.8226 36.6251 36.0007 36.6251Z" stroke="#37474F" stroke-miterlimit="10" stroke-linecap="round" stroke-linejoin="round"/>
<path d="M47.5941 55.0093V66.603" stroke="#37474F" stroke-miterlimit="10" stroke-linecap="round" stroke-linejoin="round"/>
<path d="M24.4073 55.0093V66.603" stroke="#37474F" stroke-miterlimit="10" stroke-linecap="round" stroke-linejoin="round"/>
<path d="M40.1417 65.6094L36.0011 69.75L31.8605 65.6094L34.3448 45.7344H37.6574L40.1417 65.6094Z" fill="#90CAF9" stroke="#37474F" stroke-miterlimit="10" stroke-linecap="round" stroke-linejoin="round"/>
<path d="M31.0316 38.4469L30.2035 45.7344H41.7972L40.9691 38.2812L36.0004 45.7344L31.0316 38.4469Z" stroke="#37474F" stroke-miterlimit="10" stroke-linecap="round" stroke-linejoin="round"/>
<path d="M55.8757 66.6031V50.3719C55.8757 47.0594 53.8882 44.0781 50.907 42.7531L40.9695 38.2812L36.0007 45.7344L31.032 38.2812L21.0945 42.7531C18.1132 44.0781 16.1257 47.0594 16.1257 50.3719V66.6031" stroke="#37474F" stroke-miterlimit="10" stroke-linecap="round" stroke-linejoin="round"/>
<path d="M7.875 32.625L9.7875 31.95C10.6875 31.6125 11.475 30.9375 11.8125 29.925L12.375 28.125L13.05 30.0375C13.3875 30.9375 14.0625 31.725 15.075 32.0625L16.875 32.625L14.9625 33.3C14.0625 33.6375 13.275 34.3125 12.9375 35.325L12.375 37.125L11.7 35.2125C11.3625 34.3125 10.6875 33.525 9.675 33.1875L7.875 32.625Z" stroke="#37474F" stroke-miterlimit="10" stroke-linecap="round" stroke-linejoin="round"/>
<path d="M58.5 40.6125L60.4125 39.9375C61.3125 39.6 62.1 38.925 62.4375 37.9125L63.1125 36L63.7875 37.9125C64.125 38.8125 64.8 39.6 65.8125 39.9375L67.725 40.6125L65.8125 41.2875C64.9125 41.625 64.125 42.3 63.7875 43.3125L63 45.1125L62.325 43.2C61.9875 42.3 61.3125 41.5125 60.3 41.175L58.5 40.6125Z" stroke="#37474F" stroke-miterlimit="10" stroke-linecap="round" stroke-linejoin="round"/>
</svg>
