<svg width="52" height="52" viewBox="0 0 52 52" fill="none" xmlns="http://www.w3.org/2000/svg">
<mask id="mask0_16_647" style="mask-type:luminance" maskUnits="userSpaceOnUse" x="0" y="0" width="52" height="52">
<path d="M52 0H0V52H52V0Z" fill="white"/>
</mask>
<g mask="url(#mask0_16_647)">
<path fill-rule="evenodd" clip-rule="evenodd" d="M18.9819 0.12793C18.3014 0.128562 17.6276 0.263248 16.9991 0.524297C16.3706 0.785348 15.7997 1.16765 15.319 1.64936C14.8382 2.13108 14.4571 2.70277 14.1974 3.3318C13.9376 3.96081 13.8043 4.63486 13.805 5.31541C13.8044 5.99589 13.9378 6.66983 14.1976 7.29874C14.4574 7.92765 14.8386 8.49922 15.3193 8.98083C15.8001 9.46245 16.3709 9.84465 16.9993 10.1057C17.6278 10.3666 18.3015 10.5013 18.9819 10.5019H24.1588V5.31541C24.1596 4.63486 24.0263 3.96081 23.7665 3.3318C23.5067 2.70277 23.1256 2.13108 22.6449 1.64936C22.1641 1.16765 21.5932 0.785348 20.9647 0.524297C20.3363 0.263248 19.6625 0.128562 18.9819 0.12793ZM18.9819 13.9609H5.17689C4.49641 13.9615 3.82272 14.0962 3.19431 14.3572C2.56588 14.6182 1.995 15.0004 1.51428 15.482C1.03357 15.9636 0.652416 16.5352 0.392593 17.1641C0.132773 17.793 -0.000629359 18.4669 3.22401e-06 19.1474C-0.00075591 19.828 0.132553 20.502 0.392318 21.131C0.65208 21.76 1.03321 22.3318 1.51394 22.8134C1.99467 23.2952 2.56559 23.6775 3.19408 23.9385C3.82258 24.1996 4.49634 24.3343 5.17689 24.3349H18.9819C19.6625 24.3343 20.3363 24.1996 20.9647 23.9385C21.5932 23.6775 22.1641 23.2952 22.6449 22.8134C23.1256 22.3318 23.5067 21.76 23.7665 21.131C24.0263 20.502 24.1596 19.828 24.1588 19.1474C24.1595 18.4669 24.0261 17.793 23.7662 17.1641C23.5064 16.5352 23.1253 15.9636 22.6446 15.482C22.1638 15.0004 21.593 14.6182 20.9645 14.3572C20.3361 14.0962 19.6624 13.9615 18.9819 13.9609Z" fill="#36C5F0"/>
<path fill-rule="evenodd" clip-rule="evenodd" d="M51.7689 19.1474C51.7697 18.4669 51.6361 17.793 51.3764 17.1641C51.1164 16.5352 50.7354 15.9636 50.2548 15.482C49.7738 15.0004 49.2029 14.6182 48.5746 14.3572C47.9462 14.0962 47.2724 13.9615 46.5921 13.9609C45.9117 13.9615 45.2379 14.0962 44.6096 14.3572C43.9809 14.6182 43.4103 15.0004 42.9293 15.482C42.4487 15.9636 42.0677 16.5352 41.8077 17.1641C41.5481 17.793 41.4144 18.4669 41.4152 19.1474V24.3349H46.5921C47.2728 24.3343 47.9462 24.1996 48.5749 23.9385C49.2033 23.6775 49.7742 23.2952 50.2552 22.8134C50.7358 22.3318 51.1168 21.76 51.3768 21.131C51.6364 20.502 51.7697 19.828 51.7689 19.1474ZM37.964 19.1474V5.31541C37.9648 4.63486 37.8315 3.96081 37.5715 3.3318C37.3119 2.70277 36.9305 2.13108 36.4499 1.64936C35.9692 1.16765 35.3983 0.785348 34.7698 0.524297C34.1413 0.263248 33.4675 0.128562 32.787 0.12793C32.1064 0.128562 31.4327 0.263248 30.8042 0.524297C30.1757 0.785348 29.6048 1.16765 29.1241 1.64936C28.6433 2.13108 28.2622 2.70277 28.0024 3.3318C27.7427 3.96081 27.6094 4.63486 27.6101 5.31541V19.1474C27.6094 19.828 27.7427 20.502 28.0024 21.131C28.2622 21.76 28.6433 22.3318 29.1241 22.8134C29.6048 23.2952 30.1757 23.6775 30.8042 23.9385C31.4327 24.1996 32.1064 24.3343 32.787 24.3349C33.4675 24.3343 34.1413 24.1996 34.7698 23.9385C35.3983 23.6775 35.9692 23.2952 36.4499 22.8134C36.9305 22.3318 37.3119 21.76 37.5715 21.131C37.8315 20.502 37.9648 19.828 37.964 19.1474Z" fill="#2EB67D"/>
<path fill-rule="evenodd" clip-rule="evenodd" d="M32.787 51.9999C33.4675 51.9992 34.1413 51.8645 34.7698 51.6034C35.3983 51.3424 35.9692 50.9603 36.4499 50.4786C36.9305 49.9969 37.3119 49.4252 37.5715 48.7962C37.8315 48.1671 37.9648 47.4929 37.964 46.8126C37.9644 46.1319 37.8311 45.4581 37.5711 44.829C37.3115 44.2003 36.9302 43.6287 36.4495 43.1469C35.9689 42.6656 35.398 42.2832 34.7696 42.0221C34.1412 41.7614 33.4675 41.6267 32.787 41.6259H27.6101V46.8126C27.6094 47.4929 27.7427 48.1671 28.0024 48.7962C28.2622 49.4252 28.6433 49.9969 29.1241 50.4786C29.6048 50.9603 30.1757 51.3424 30.8042 51.6034C31.4327 51.8645 32.1064 51.9992 32.787 51.9999ZM32.787 38.1669H46.5921C47.2724 38.1665 47.9462 38.0318 48.5746 37.7707C49.2029 37.5096 49.7738 37.1276 50.2548 36.6459C50.7354 36.1641 51.1164 35.5927 51.3764 34.9638C51.6361 34.3349 51.7697 33.6609 51.7689 32.9805C51.7697 32.2999 51.6364 31.6259 51.3768 30.9969C51.1168 30.3678 50.7358 29.7961 50.2552 29.3144C49.7742 28.8327 49.2033 28.4504 48.5749 28.1894C47.9462 27.9283 47.2728 27.7936 46.5921 27.793H32.787C32.1064 27.7936 31.4327 27.9283 30.8042 28.1894C30.1757 28.4504 29.6048 28.8327 29.1241 29.3144C28.6433 29.7961 28.2622 30.3678 28.0024 30.9969C27.7427 31.6259 27.6094 32.2999 27.6101 32.9805C27.6095 33.6609 27.7429 34.3349 28.0027 34.9638C28.2625 35.5927 28.6437 36.1641 29.1244 36.6459C29.6051 37.1276 30.176 37.5096 30.8044 37.7707C31.4329 38.0318 32.1065 38.1665 32.787 38.1669Z" fill="#ECB22E"/>
<path fill-rule="evenodd" clip-rule="evenodd" d="M4.38774e-06 32.9805C-0.000628196 33.6609 0.132774 34.3349 0.392596 34.9638C0.652416 35.5927 1.03357 36.1641 1.51428 36.6459C1.99501 37.1276 2.56588 37.5096 3.19431 37.7707C3.82272 38.0318 4.49641 38.1665 5.17689 38.1669C5.85737 38.1665 6.53106 38.0318 7.1595 37.7707C7.7879 37.5096 8.35878 37.1276 8.83949 36.6459C9.32021 36.1641 9.70136 35.5927 9.96118 34.9638C10.221 34.3349 10.3544 33.6609 10.3538 32.9805V27.793H5.17689C4.49627 27.7936 3.82243 27.9283 3.19386 28.1894C2.5653 28.4506 1.99435 28.8329 1.5136 29.3148C1.03286 29.7966 0.651748 30.3684 0.39204 30.9975C0.132334 31.6267 -0.000881324 32.3008 4.38774e-06 32.9814V32.9805ZM13.805 32.9805V46.8126C13.8043 47.4929 13.9376 48.1671 14.1974 48.7962C14.4571 49.4252 14.8382 49.9969 15.319 50.4786C15.7997 50.9603 16.3706 51.3424 16.9991 51.6034C17.6276 51.8645 18.3014 51.9992 18.9819 51.9999C19.6625 51.9992 20.3363 51.8645 20.9647 51.6034C21.5932 51.3424 22.1641 50.9603 22.6449 50.4786C23.1256 49.9969 23.5067 49.4252 23.7665 48.7962C24.0263 48.1671 24.1596 47.4929 24.1588 46.8126V32.9814C24.1596 32.3009 24.0263 31.6268 23.7665 30.9978C23.5067 30.3688 23.1256 29.7971 22.6449 29.3154C22.1641 28.8337 21.5932 28.4513 20.9647 28.1903C20.3363 27.9293 19.6625 27.7946 18.9819 27.7939C18.3014 27.7946 17.6276 27.9293 16.9991 28.1903C16.3706 28.4513 15.7997 28.8337 15.319 29.3154C14.8382 29.7971 14.4571 30.3688 14.1974 30.9978C13.9376 31.6268 13.8043 32.3009 13.805 32.9814" fill="#E01E5A"/>
</g>
</svg>
