<svg xmlns="http://www.w3.org/2000/svg" width="52" height="52" viewBox="0 0 52 52" fill="none">
  <path d="M25.9988 0.0859375C11.6837 0.0859375 0.0783691 11.6909 0.0783691 26.0061C0.0783691 40.3219 11.6837 51.9258 25.9988 51.9258C40.3156 51.9258 51.9196 40.3219 51.9196 26.0061C51.9196 11.6919 40.3156 0.0871754 25.9985 0.0871754L25.9988 0.0859375ZM37.8857 37.4702C37.4217 38.2318 36.425 38.473 35.6634 38.0057C29.5775 34.2883 21.9162 33.4464 12.8936 35.5079C12.0241 35.7059 11.1575 35.1612 10.9594 34.2914C10.7604 33.4216 11.3029 32.555 12.1745 32.3569C22.0484 30.1001 30.5179 31.0724 37.3502 35.2479C38.1117 35.7152 38.3533 36.709 37.8857 37.4702ZM41.0584 30.4115C40.4734 31.3633 39.229 31.6635 38.2789 31.0785C31.3115 26.795 20.6908 25.5548 12.4497 28.0564C11.3809 28.3792 10.2521 27.7769 9.92771 26.7099C9.60582 25.6411 10.2085 24.5145 11.2754 24.1895C20.6889 21.3332 32.3917 22.7168 40.3929 27.6335C41.3433 28.2185 41.6434 29.4625 41.0584 30.4115ZM41.3307 23.0622C32.9767 18.1002 19.1936 17.644 11.2175 20.0648C9.9367 20.4532 8.58221 19.7302 8.19409 18.4494C7.80593 17.1679 8.52837 15.8144 9.8101 15.425C18.9661 12.6455 34.187 13.1825 43.805 18.8923C44.9595 19.576 45.3372 21.0639 44.6533 22.2144C43.9722 23.3665 42.4805 23.7463 41.3321 23.0622H41.3307Z" fill="#1ED760"/>
</svg>