<svg width="344" height="14" viewBox="0 0 344 14" fill="none" xmlns="http://www.w3.org/2000/svg">
<path d="M7.81397 5.83831C10.4995 5.83831 13.3128 5.77873 15.9983 5.71916C17.1492 5.71916 18.1723 5.65958 19.3232 5.65958C24.1827 5.54043 29.0421 5.42128 33.9016 5.30214C39.7841 5.18299 45.5387 5.00426 51.4212 4.88512C59.7334 4.64682 68.0456 4.46809 76.3579 4.22979C78.2761 4.17022 80.1943 4.17022 82.1125 4.11064C86.9719 3.9915 91.8314 3.87235 96.6908 3.81277C101.55 3.69362 106.41 3.57447 111.269 3.5149C113.187 3.45532 115.106 3.39575 117.024 3.39575C124.697 3.2766 132.497 3.15745 140.17 3.0383C144.902 2.97873 149.633 2.91916 154.493 2.80001C156.411 2.80001 158.201 2.74043 160.12 2.74043C167.537 2.68085 175.082 2.62128 182.499 2.56171C189.916 2.50213 197.205 2.44256 204.622 2.38298C206.54 2.38298 208.458 2.38298 210.504 2.38298C215.364 2.38298 220.095 2.38298 224.955 2.38298C232.5 2.38298 239.917 2.38298 247.462 2.32341C249.892 2.32341 252.321 2.32341 254.751 2.32341C259.866 2.32341 264.981 2.32341 270.097 2.32341C270.48 2.32341 270.992 2.32341 271.375 2.32341C259.866 2.38298 248.229 2.44256 236.72 2.56171C231.86 2.62128 227.129 2.62128 222.269 2.68085C220.223 2.68085 218.049 2.68085 216.003 2.74043C208.97 2.8 202.064 2.91915 195.031 2.97873C186.974 3.09788 178.918 3.15745 170.861 3.2766C169.455 3.2766 168.176 3.33617 166.769 3.33617C162.421 3.45532 158.201 3.5149 153.853 3.63405C145.158 3.81277 136.462 3.99149 127.766 4.17022C126.487 4.17022 125.208 4.2298 123.929 4.28937C119.709 4.40852 115.361 4.58724 111.141 4.70639C103.469 4.94469 95.9236 5.18298 88.2507 5.42128C86.2047 5.48086 84.0307 5.60001 81.9846 5.65958C77.1251 5.83831 72.2657 6.01703 67.4062 6.25533C61.268 6.49363 55.0018 6.73193 48.8636 6.97022C40.2956 7.32767 31.5997 7.68512 23.0317 8.04256C20.9856 8.10214 18.9396 8.22129 16.7656 8.28086C13.0571 8.45959 9.34853 8.63831 5.64 8.81703C5.25636 8.81703 4.87272 8.93618 4.87272 9.17448C4.87272 9.3532 5.25636 9.53193 5.64 9.53193C7.04668 9.53193 8.32549 9.5915 9.73217 9.5915C9.60429 9.77022 9.47641 9.94895 9.47641 10.1277C9.47641 10.783 10.6273 11.3787 12.1619 11.3787C22.776 11.0809 33.2622 10.7234 43.8762 10.4851C53.0836 10.3064 62.291 10.0681 71.4984 9.88937C81.601 9.65108 91.8314 9.41278 101.934 9.23406C105.131 9.17448 108.328 9.1149 111.525 8.99576C112.42 8.99576 113.315 8.93618 114.338 8.93618C130.707 8.75746 147.076 8.51916 163.444 8.34044C172.14 8.22129 180.964 8.10214 189.66 8.04256C192.857 7.98299 195.926 7.98299 199.123 7.92342C215.875 7.80427 232.628 7.68512 249.38 7.56597C256.541 7.5064 263.703 7.44682 270.864 7.38724C277.002 7.32767 283.14 7.32767 289.279 7.20852C294.394 7.14894 299.381 7.0298 304.496 6.97022C307.054 6.91065 309.612 6.91065 312.041 6.85107C317.796 6.67235 323.551 6.49362 329.305 6.3149C328.922 6.5532 328.922 6.91065 329.05 7.14895C329.177 7.44682 329.561 7.68512 330.2 7.80426C330.712 7.92341 331.479 8.04257 331.991 7.92342C333.27 7.68512 334.548 7.44682 335.699 7.20852C335.699 7.20852 335.699 7.20852 335.571 7.20852C335.699 7.20852 335.699 7.14895 335.827 7.14895C335.955 7.14895 336.083 7.08937 336.083 7.08937H335.955C336.594 6.97022 337.234 6.85108 338.001 6.67235C338.641 6.5532 339.408 6.37448 340.047 6.25533C340.815 6.0766 341.454 5.89788 342.221 5.71916C342.988 5.54043 343.5 5.06384 343.5 4.64682C343.5 4.40852 343.372 4.2298 343.116 3.9915C342.861 3.7532 342.221 3.45533 341.582 3.39575C340.942 3.33618 340.303 3.2766 339.664 3.2766C339.536 3.2766 339.408 3.2766 339.28 3.2766C338.896 3.2766 338.385 3.2766 338.001 3.33617C336.978 3.39575 336.083 3.45533 335.06 3.45533C334.293 3.45533 333.525 3.5149 332.63 3.5149C330.456 3.57447 328.41 3.63405 326.236 3.7532C325.725 3.7532 325.085 3.81277 324.574 3.81277C324.829 3.69362 324.957 3.57447 324.957 3.45533C325.085 3.33618 325.085 3.21703 325.085 3.09788C325.085 3.0383 325.085 2.91915 325.213 2.85958C325.213 2.74043 325.213 2.62128 325.085 2.56171C325.085 2.56171 325.213 2.56171 325.213 2.50213C325.597 2.38298 325.98 2.26383 326.236 2.02554C326.492 1.84681 326.62 1.60851 326.62 1.37022C326.62 1.13192 326.492 0.953195 326.236 0.714897C326.108 0.655323 325.98 0.536173 325.853 0.476598C325.469 0.297875 325.085 0.2383 324.702 0.178725C323.934 0.0595764 323.039 0 322.144 0C321.377 0 320.737 0 319.97 0C318.947 0 317.924 0 316.901 0C315.494 0 313.96 0 312.553 0C308.717 0 304.88 0 301.044 0C297.463 0 293.755 0 290.174 0C286.849 0 283.652 0 280.327 0C267.155 0 254.112 0.0595773 240.94 0.119152C231.093 0.178726 221.246 0.238299 211.4 0.238299C207.052 0.238299 202.576 0.297872 198.228 0.357446C188.381 0.476595 178.534 0.53617 168.688 0.655319C165.874 0.655319 163.061 0.714897 160.247 0.714897C158.585 0.714897 157.05 0.774471 155.388 0.774471C145.669 0.953195 135.95 1.13192 126.231 1.31064C123.29 1.37022 120.349 1.42979 117.28 1.48936C115.617 1.48936 113.955 1.54894 112.292 1.60852C102.573 1.84681 92.9823 2.08511 83.2634 2.32341C78.2761 2.44256 73.2887 2.5617 68.3014 2.74043C59.7334 2.97873 51.1654 3.21703 42.7253 3.5149C35.3083 3.7532 27.8912 3.93192 20.4741 4.11064C19.3232 4.17022 18.1723 4.17022 16.8935 4.22979C14.9753 4.28937 13.0571 4.28937 11.1389 4.34894C9.47641 4.40852 7.81397 4.40852 6.02364 4.40852C5.89576 4.22979 5.38424 4.05107 5.0006 4.05107C3.84967 4.11065 2.82663 4.17022 1.67571 4.22979C1.16419 4.22979 0.652666 4.34894 0.524785 4.64682C0.396905 4.94469 0.780545 5.24256 1.29207 5.30214C1.80359 5.36171 2.18723 5.42129 2.69875 5.48086C3.21027 5.54044 3.59391 5.54043 4.10544 5.54043C5.38424 5.77873 6.53516 5.77873 7.81397 5.83831ZM307.054 3.87235C308.589 3.87235 310.251 3.87235 311.786 3.87235C311.914 4.05107 312.169 4.17022 312.425 4.28937C311.786 4.28937 311.146 4.34894 310.635 4.34894C309.484 4.34894 308.333 4.40852 307.182 4.40852C302.067 4.46809 297.079 4.58724 291.964 4.64682C289.662 4.70639 287.361 4.76596 285.059 4.76596C281.478 4.76596 277.769 4.82554 274.189 4.82554C265.877 4.88511 257.692 4.94469 249.38 5.00426C233.267 5.12341 217.282 5.24256 201.169 5.36171C189.66 5.42128 178.151 5.60001 166.641 5.77873C149.378 6.01703 131.986 6.19575 114.722 6.43405C111.269 6.49363 107.816 6.5532 104.364 6.67235C94.5169 6.91065 84.6701 7.08937 74.8233 7.32767C65.2323 7.56597 55.5134 7.74469 45.9223 7.98299C45.0272 7.98299 44.132 8.04256 43.2368 8.04256C45.7944 7.92341 48.4799 7.86384 51.0375 7.74469C60.117 7.44682 69.1966 7.08937 78.2761 6.7915C81.4731 6.67235 84.6701 6.5532 87.7392 6.43405C89.4017 6.37448 91.0641 6.3149 92.5987 6.3149C102.062 6.0766 111.525 5.77873 120.988 5.54043C122.778 5.48086 124.697 5.42128 126.487 5.36171C129.172 5.30213 131.858 5.24256 134.416 5.24256C144.134 5.06384 153.853 4.88511 163.572 4.70639C165.746 4.64682 167.92 4.64682 169.966 4.58724C170.478 4.58724 171.117 4.58724 171.629 4.58724C173.163 4.58724 174.698 4.58724 176.105 4.52766C185.823 4.40852 195.67 4.34894 205.389 4.22979C209.865 4.17022 214.341 4.11064 218.817 4.11064C233.267 4.05107 247.845 3.99149 262.296 3.93192C277.514 3.93192 292.348 3.93192 307.054 3.87235Z" fill="#26A4FF"/>
<path d="M28.0642 14C28.4879 14 28.8314 13.84 28.8314 13.6426C28.8314 13.4452 28.4879 13.2852 28.0642 13.2852C27.6404 13.2852 27.2969 13.4452 27.2969 13.6426C27.2969 13.84 27.6404 14 28.0642 14Z" fill="#26A4FF"/>
</svg>
