<svg width="116" height="12" viewBox="0 0 116 12" fill="none" xmlns="http://www.w3.org/2000/svg">
<path d="M2.47353 5.83831C3.38174 5.83831 4.3332 5.77873 5.24141 5.71916C5.63065 5.71916 5.97663 5.65958 6.36586 5.65958C8.0093 5.54043 9.65273 5.42128 11.2962 5.30214C13.2856 5.18299 15.2317 5.00426 17.2212 4.88512C20.0323 4.64682 22.8434 4.46809 25.6546 4.22979C26.3033 4.17022 26.952 4.17022 27.6007 4.11064C29.2442 3.9915 30.8876 3.87235 32.531 3.81277C34.1744 3.69362 35.8179 3.57447 37.4613 3.5149C38.11 3.45532 38.7588 3.39575 39.4075 3.39575C42.0024 3.2766 44.6405 3.15745 47.2354 3.0383C48.8356 2.97873 50.4358 2.91916 52.0792 2.80001C52.7279 2.80001 53.3334 2.74043 53.9821 2.74043C56.4905 2.68085 59.0421 2.62128 61.5505 2.56171C64.0589 2.50213 66.5241 2.44256 69.0325 2.38298C69.6812 2.38298 70.3299 2.38298 71.0219 2.38298C72.6653 2.38298 74.2655 2.38298 75.9089 2.38298C78.4606 2.38298 80.969 2.38298 83.5206 2.32341C84.3423 2.32341 85.164 2.32341 85.9858 2.32341C87.7157 2.32341 89.4456 2.32341 91.1755 2.32341C91.3053 2.32341 91.4783 2.32341 91.608 2.32341C87.7157 2.38298 83.7801 2.44256 79.8878 2.56171C78.2443 2.62128 76.6441 2.62128 75.0007 2.68085C74.3088 2.68085 73.5735 2.68085 72.8816 2.74043C70.5029 2.8 68.1675 2.91915 65.7889 2.97873C63.0642 3.09788 60.3396 3.15745 57.615 3.2766C57.1392 3.2766 56.7067 3.33617 56.231 3.33617C54.7606 3.45532 53.3334 3.5149 51.8629 3.63405C48.9221 3.81277 45.9812 3.99149 43.0403 4.17022C42.6078 4.17022 42.1754 4.2298 41.7429 4.28937C40.3157 4.40852 38.8452 4.58724 37.4181 4.70639C34.8232 4.94469 32.2715 5.18298 29.6766 5.42128C28.9847 5.48086 28.2494 5.60001 27.5575 5.65958C25.914 5.83831 24.2706 6.01703 22.6272 6.25533C20.5513 6.49363 18.4321 6.73193 16.3562 6.97022C13.4586 7.32767 10.5177 7.68512 7.62006 8.04256C6.92809 8.10214 6.23612 8.22129 5.5009 8.28086C4.2467 8.45959 2.99251 8.63831 1.73831 8.81703C1.60856 8.81703 1.47882 8.93618 1.47882 9.17448C1.47882 9.3532 1.60856 9.53193 1.73831 9.53193C2.21404 9.53193 2.64652 9.5915 3.12225 9.5915C3.079 9.77022 3.03575 9.94895 3.03575 10.1277C3.03575 10.783 3.42499 11.3787 3.94397 11.3787C7.53357 11.0809 11.0799 10.7234 14.6695 10.4851C17.7834 10.3064 20.8973 10.0681 24.0111 9.88937C27.4277 9.65108 30.8876 9.41278 34.3042 9.23406C35.3854 9.17448 36.4666 9.1149 37.5478 8.99576C37.8505 8.99576 38.1533 8.93618 38.4993 8.93618C44.035 8.75746 49.5708 8.51916 55.1066 8.34044C58.0474 8.22129 61.0316 8.10214 63.9724 8.04256C65.0536 7.98299 66.0916 7.98299 67.1728 7.92342C72.8383 7.80427 78.5038 7.68512 84.1693 7.56597C86.5912 7.5064 89.0131 7.44682 91.435 7.38724C93.5109 7.32767 95.5869 7.32767 97.6628 7.20852C99.3927 7.14894 101.079 7.0298 102.809 6.97022C103.674 6.91065 104.539 6.91065 105.361 6.85107C107.307 6.67235 109.253 6.49362 111.199 6.3149C111.07 6.5532 111.07 6.91065 111.113 7.14895C111.156 7.44682 111.286 7.68512 111.502 7.80426C111.675 7.92341 111.935 8.04257 112.108 7.92342C112.54 7.68512 112.973 7.44682 113.362 7.20852C113.362 7.20852 113.362 7.20852 113.319 7.20852C113.362 7.20852 113.362 7.14895 113.405 7.14895C113.448 7.14895 113.492 7.08937 113.492 7.08937H113.448C113.665 6.97022 113.881 6.85108 114.14 6.67235C114.357 6.5532 114.616 6.37448 114.832 6.25533C115.092 6.0766 115.308 5.89788 115.568 5.71916C115.827 5.54043 116 5.06384 116 4.64682C116 4.40852 115.957 4.2298 115.87 3.9915C115.784 3.7532 115.568 3.45533 115.351 3.39575C115.135 3.33618 114.919 3.2766 114.703 3.2766C114.659 3.2766 114.616 3.2766 114.573 3.2766C114.443 3.2766 114.27 3.2766 114.14 3.33617C113.794 3.39575 113.492 3.45533 113.146 3.45533C112.886 3.45533 112.627 3.5149 112.324 3.5149C111.589 3.57447 110.897 3.63405 110.161 3.7532C109.989 3.7532 109.772 3.81277 109.599 3.81277C109.686 3.69362 109.729 3.57447 109.729 3.45533C109.772 3.33618 109.772 3.21703 109.772 3.09788C109.772 3.0383 109.772 2.91915 109.816 2.85958C109.816 2.74043 109.816 2.62128 109.772 2.56171C109.772 2.56171 109.816 2.56171 109.816 2.50213C109.945 2.38298 110.075 2.26383 110.161 2.02554C110.248 1.84681 110.291 1.60851 110.291 1.37022C110.291 1.13192 110.248 0.953195 110.161 0.714897C110.118 0.655323 110.075 0.536173 110.032 0.476598C109.902 0.297875 109.772 0.2383 109.643 0.178725C109.383 0.0595764 109.08 0 108.778 0C108.518 0 108.302 0 108.042 0C107.696 0 107.35 0 107.004 0C106.529 0 106.01 0 105.534 0C104.236 0 102.939 0 101.642 0C100.431 0 99.1765 0 97.9655 0C96.8411 0 95.7598 0 94.6354 0C90.1808 0 85.7695 0.0595773 81.315 0.119152C77.9848 0.178726 74.6547 0.238299 71.3246 0.238299C69.8542 0.238299 68.3405 0.297872 66.8701 0.357446C63.54 0.476595 60.2098 0.53617 56.8797 0.655319C55.9283 0.655319 54.9768 0.714897 54.0254 0.714897C53.4631 0.714897 52.9442 0.774471 52.3819 0.774471C49.0951 0.953195 45.8082 1.13192 42.5213 1.31064C41.5266 1.37022 40.5319 1.42979 39.494 1.48936C38.9317 1.48936 38.3695 1.54894 37.8073 1.60852C34.5204 1.84681 31.2768 2.08511 27.99 2.32341C26.3033 2.44256 24.6166 2.5617 22.9299 2.74043C20.0323 2.97873 17.1347 3.21703 14.2803 3.5149C11.7719 3.7532 9.26349 3.93192 6.7551 4.11064C6.36586 4.17022 5.97663 4.17022 5.54415 4.22979C4.89543 4.28937 4.2467 4.28937 3.59798 4.34894C3.03575 4.40852 2.47353 4.40852 1.86805 4.40852C1.82481 4.22979 1.65181 4.05107 1.52207 4.05107C1.13283 4.11065 0.78685 4.17022 0.397616 4.22979C0.224623 4.22979 0.0516303 4.34894 0.00838215 4.64682C-0.034866 4.94469 0.0948783 5.24256 0.267871 5.30214C0.440864 5.36171 0.570608 5.42129 0.743601 5.48086C0.916594 5.54044 1.04634 5.54043 1.21933 5.54043C1.65181 5.77873 2.04105 5.77873 2.47353 5.83831ZM103.674 3.87235C104.193 3.87235 104.755 3.87235 105.274 3.87235C105.318 4.05107 105.404 4.17022 105.491 4.28937C105.274 4.28937 105.058 4.34894 104.885 4.34894C104.496 4.34894 104.107 4.40852 103.718 4.40852C101.988 4.46809 100.301 4.58724 98.571 4.64682C97.7925 4.70639 97.014 4.76596 96.2356 4.76596C95.0246 4.76596 93.7704 4.82554 92.5595 4.82554C89.7484 4.88511 86.9805 4.94469 84.1693 5.00426C78.7201 5.12341 73.314 5.24256 67.8648 5.36171C63.9724 5.42128 60.0801 5.60001 56.1878 5.77873C50.3493 6.01703 44.4675 6.19575 38.629 6.43405C37.4613 6.49363 36.2936 6.5532 35.1259 6.67235C31.7958 6.91065 28.4657 7.08937 25.1356 7.32767C21.892 7.56597 18.6051 7.74469 15.3615 7.98299C15.0587 7.98299 14.756 8.04256 14.4533 8.04256C15.3182 7.92341 16.2264 7.86384 17.0914 7.74469C20.162 7.44682 23.2327 7.08937 26.3033 6.7915C27.3845 6.67235 28.4657 6.5532 29.5036 6.43405C30.0659 6.37448 30.6281 6.3149 31.1471 6.3149C34.3474 6.0766 37.5478 5.77873 40.7482 5.54043C41.3536 5.48086 42.0024 5.42128 42.6078 5.36171C43.5161 5.30213 44.4243 5.24256 45.2892 5.24256C48.5761 5.06384 51.863 4.88511 55.1498 4.70639C55.885 4.64682 56.6202 4.64682 57.3122 4.58724C57.4852 4.58724 57.7015 4.58724 57.8744 4.58724C58.3934 4.58724 58.9124 4.58724 59.3881 4.52766C62.675 4.40852 66.0051 4.34894 69.292 4.22979C70.8056 4.17022 72.3193 4.11064 73.833 4.11064C78.7201 4.05107 83.6504 3.99149 88.5374 3.93192C93.6839 3.93192 98.7007 3.93192 103.674 3.87235Z" fill="#26A4FF"/>
</svg>
