<svg width="21" height="21" viewBox="0 0 21 21" fill="none" xmlns="http://www.w3.org/2000/svg">
<path d="M10.5936 11.9187C11.5913 11.9187 12.4001 11.1099 12.4001 10.1122C12.4001 9.11446 11.5913 8.30566 10.5936 8.30566C9.59591 8.30566 8.78711 9.11446 8.78711 10.1122C8.78711 11.1099 9.59591 11.9187 10.5936 11.9187Z" fill="#FF8640"/>
<path d="M1.97378 9.00977H1.02148V11.1635H1.97378V9.00977Z" fill="#FF8640"/>
<path d="M1.62109 10.9092H4.19615C4.19615 10.9092 4.3541 13.0081 5.79175 14.2436L3.91387 15.9635L5.2212 17.3966L4.6571 17.9492L2.6793 15.9635L4.40798 14.245L3.52614 11.6796L1.62109 11.4641V10.9092Z" fill="#FF8640"/>
<path d="M10.0847 16.7734H9.05273V19.8058H10.0847V16.7734Z" fill="#FF8640"/>
<path d="M3.40757 9.01044H4.29953C4.29953 9.01044 4.41051 6.9585 5.78922 5.96384L4.0191 4.19279L5.16572 3.16406L4.71398 2.71094L2.98438 4.16931L4.38795 6.09738L3.40757 9.01044Z" fill="#FF8640"/>
<path d="M10.2059 0.571289H9.24023V3.3462H10.2059V0.571289Z" fill="#FF8640"/>
<path d="M12.1924 20.0898H9.39354C9.30805 20.0898 9.22606 20.0559 9.16561 19.9954C9.10516 19.935 9.0712 19.853 9.0712 19.7675V17.3904C8.28566 17.206 7.53538 16.895 6.84979 16.4695L5.16716 18.1503C5.13723 18.1802 5.10169 18.2039 5.06258 18.2201C5.02347 18.2363 4.98155 18.2447 4.93922 18.2447C4.89689 18.2447 4.85497 18.2363 4.81586 18.2201C4.77675 18.2039 4.74121 18.1802 4.71128 18.1503L2.73117 16.1702C2.70124 16.1402 2.67749 16.1047 2.66129 16.0656C2.64509 16.0265 2.63675 15.9845 2.63675 15.9422C2.63675 15.8999 2.64509 15.858 2.66129 15.8188C2.67749 15.7797 2.70124 15.7442 2.73117 15.7143L4.4138 14.0316C3.98784 13.3461 3.67675 12.5956 3.49282 11.8098H1.11531C1.02982 11.8098 0.947832 11.7758 0.887381 11.7154C0.82693 11.6549 0.792969 11.5729 0.792969 11.4874V8.69041C0.792969 8.60492 0.82693 8.52293 0.887381 8.46248C0.947832 8.40203 1.02982 8.36807 1.11531 8.36807H3.49236C3.67629 7.58237 3.98738 6.83202 4.41334 6.14667L2.73439 4.46404C2.70446 4.4341 2.68071 4.39857 2.66451 4.35946C2.64831 4.32035 2.63997 4.27843 2.63997 4.2361C2.63997 4.19376 2.64831 4.15184 2.66451 4.11273C2.68071 4.07362 2.70446 4.03809 2.73439 4.00815L4.7145 2.02805C4.74443 1.99811 4.77997 1.97436 4.81908 1.95816C4.85819 1.94196 4.90011 1.93362 4.94244 1.93362C4.98478 1.93362 5.0267 1.94196 5.06581 1.95816C5.10492 1.97436 5.14045 1.99811 5.17039 2.02805L6.85302 3.71114C7.53837 3.28518 8.28872 2.97408 9.07442 2.79016V0.412187C9.07442 0.326696 9.10838 0.244707 9.16883 0.184256C9.22928 0.123805 9.31127 0.0898438 9.39676 0.0898438H12.1956C12.2811 0.0898437 12.3631 0.123805 12.4236 0.184256C12.484 0.244707 12.518 0.326696 12.518 0.412187V2.78924C13.3036 2.97325 14.054 3.28434 14.7394 3.71022L16.422 2.02713C16.4519 1.99719 16.4875 1.97344 16.5266 1.95724C16.5657 1.94104 16.6076 1.9327 16.6499 1.9327C16.6923 1.9327 16.7342 1.94104 16.7733 1.95724C16.8124 1.97344 16.8479 1.99719 16.8779 2.02713L18.858 4.00723C18.8879 4.03716 18.9117 4.0727 18.9279 4.11181C18.9441 4.15092 18.9524 4.19284 18.9524 4.23517C18.9524 4.27751 18.9441 4.31943 18.9279 4.35854C18.9117 4.39765 18.8879 4.43318 18.858 4.46312L17.1708 6.14667C17.5967 6.83202 17.9078 7.58237 18.0917 8.36807H20.4688C20.5543 8.36807 20.6363 8.40203 20.6967 8.46248C20.7572 8.52293 20.7911 8.60492 20.7911 8.69041V11.4888C20.7911 11.5743 20.7572 11.6563 20.6967 11.7167C20.6363 11.7772 20.5543 11.8112 20.4688 11.8112H18.0936C17.9097 12.597 17.5986 13.3475 17.1726 14.033L18.8515 15.7156C18.8815 15.7456 18.9052 15.7811 18.9214 15.8202C18.9376 15.8593 18.946 15.9013 18.946 15.9436C18.946 15.9859 18.9376 16.0278 18.9214 16.067C18.9052 16.1061 18.8815 16.1416 18.8515 16.1715L16.8714 18.1516C16.8415 18.1816 16.806 18.2053 16.7669 18.2215C16.7277 18.2377 16.6858 18.2461 16.6435 18.2461C16.6012 18.2461 16.5592 18.2377 16.5201 18.2215C16.481 18.2053 16.4455 18.1816 16.4156 18.1516L14.7329 16.469C14.0474 16.8947 13.2971 17.2058 12.5115 17.39V19.767C12.5116 19.8521 12.4782 19.9337 12.4184 19.9941C12.3586 20.0546 12.2774 20.089 12.1924 20.0898ZM9.71588 19.4452H11.8701V17.1303C11.8701 17.0558 11.896 16.9836 11.9432 16.926C11.9905 16.8684 12.0562 16.829 12.1293 16.8144C13.013 16.6395 13.8532 16.2906 14.6008 15.7879C14.6627 15.7464 14.7372 15.7277 14.8114 15.7349C14.8856 15.7421 14.955 15.7749 15.0078 15.8275L16.6467 17.4687L18.1696 15.9459L16.5311 14.307C16.4783 14.2542 16.4454 14.1848 16.4381 14.1104C16.4308 14.0361 16.4495 13.9615 16.4911 13.8995C16.9935 13.1512 17.342 12.3105 17.5161 11.4262C17.5306 11.353 17.5701 11.287 17.6278 11.2397C17.6855 11.1923 17.7578 11.1664 17.8325 11.1665H20.1469V9.01276H17.8339C17.7592 9.01279 17.6869 8.98692 17.6292 8.93956C17.5715 8.89219 17.532 8.82627 17.5175 8.75304C17.3425 7.86948 16.9936 7.02953 16.4911 6.28205C16.4495 6.22 16.4308 6.14544 16.4381 6.07111C16.4454 5.99677 16.4783 5.92729 16.5311 5.87452L18.1696 4.2361L16.6467 2.71279L15.0078 4.35168C14.9551 4.40442 14.8857 4.43724 14.8115 4.44455C14.7372 4.45185 14.6628 4.43319 14.6008 4.39174C13.8529 3.88897 13.0124 3.54005 12.1284 3.36531C12.0552 3.35071 11.9894 3.3112 11.9422 3.25352C11.8949 3.19583 11.8691 3.12354 11.8691 3.04895V0.73453H9.71588V3.04895C9.71594 3.12354 9.69013 3.19583 9.64286 3.25352C9.59558 3.3112 9.52977 3.35071 9.45663 3.36531C8.57308 3.53981 7.7331 3.88842 6.98564 4.39082C6.92359 4.43239 6.84902 4.45112 6.77469 4.44382C6.70036 4.43651 6.63087 4.40362 6.5781 4.35076L4.93922 2.71279L3.41638 4.2361L5.0548 5.87452C5.10766 5.92729 5.14055 5.99677 5.14786 6.07111C5.15517 6.14544 5.13644 6.22 5.09487 6.28205C4.59279 7.02964 4.24435 7.86958 4.06982 8.75304C4.05531 8.82627 4.01584 8.89219 3.95815 8.93956C3.90045 8.98692 3.82811 9.01279 3.75346 9.01276H1.43765V11.1665H3.75208C3.82672 11.1664 3.89907 11.1923 3.95677 11.2397C4.01446 11.287 4.05393 11.353 4.06843 11.4262C4.24329 12.3098 4.59221 13.1497 5.09487 13.8972C5.13644 13.9592 5.15517 14.0338 5.14786 14.1081C5.14055 14.1825 5.10766 14.2519 5.0548 14.3047L3.41638 15.9436L4.93922 17.4687L6.5781 15.8299C6.6309 15.7772 6.70033 15.7444 6.77456 15.7372C6.84878 15.73 6.92322 15.7487 6.98518 15.7902C7.73323 16.2922 8.57366 16.6403 9.45755 16.8144C9.53061 16.829 9.59637 16.8684 9.64363 16.926C9.6909 16.9836 9.71675 17.0558 9.7168 17.1303L9.71588 19.4452Z" fill="#0B0B1D"/>
<path d="M10.7929 14.8816C9.8484 14.8816 8.92515 14.6016 8.13986 14.0768C7.35457 13.5521 6.74251 12.8063 6.38108 11.9338C6.01965 11.0612 5.92508 10.101 6.10934 9.17473C6.29359 8.24841 6.74839 7.39754 7.41623 6.7297C8.08406 6.06187 8.93494 5.60707 9.86125 5.42281C10.7876 5.23856 11.7477 5.33312 12.6203 5.69455C13.4928 6.05598 14.2386 6.66804 14.7634 7.45333C15.2881 8.23862 15.5681 9.16188 15.5681 10.1063C15.5667 11.3724 15.0631 12.5861 14.1679 13.4814C13.2727 14.3766 12.0589 14.8802 10.7929 14.8816ZM10.7929 5.96607C9.97399 5.96607 9.17352 6.20889 8.49265 6.66383C7.81179 7.11877 7.28112 7.76539 6.96775 8.52193C6.65439 9.27846 6.5724 10.1109 6.73215 10.9141C6.8919 11.7172 7.28622 12.4549 7.86525 13.0339C8.44428 13.613 9.182 14.0073 9.98514 14.167C10.7883 14.3268 11.6207 14.2448 12.3773 13.9314C13.1338 13.6181 13.7804 13.0874 14.2354 12.4065C14.6903 11.7257 14.9331 10.9252 14.9331 10.1063C14.932 9.00861 14.4955 7.95615 13.7193 7.17994C12.943 6.40373 11.8906 5.96717 10.7929 5.96607Z" fill="#0B0B1D"/>
<path d="M9.44828 10.9984C9.3738 10.9987 9.30154 10.9731 9.24379 10.926C9.18604 10.879 9.14636 10.8134 9.13149 10.7404C9.11662 10.6675 9.12748 10.5916 9.16223 10.5257C9.19698 10.4598 9.25347 10.408 9.3221 10.3791L10.471 9.89234V7.60555C10.471 7.52006 10.505 7.43807 10.5654 7.37761C10.6259 7.31716 10.7079 7.2832 10.7934 7.2832C10.8789 7.2832 10.9608 7.31716 11.0213 7.37761C11.0817 7.43807 11.1157 7.52006 11.1157 7.60555V10.1055C11.1157 10.1689 11.0971 10.2309 11.0621 10.2837C11.0272 10.3365 10.9774 10.3779 10.9191 10.4026L9.57399 10.9726C9.53424 10.9896 9.49148 10.9984 9.44828 10.9984Z" fill="#0B0B1D"/>
</svg>
