<svg xmlns="http://www.w3.org/2000/svg" width="108" height="87" viewBox="0 0 108 87" fill="none">
  <path d="M3 84C19.5831 73.5626 37.3553 57.6236 46.1399 25.2376C47.5097 20.1874 49.8803 7.12525 45.8901 4.02246C42.3883 1.29952 37.0821 4.02247 34.1057 12.1044C28.0364 28.5848 25.4275 51.7126 37.437 58.9965C50.511 66.9261 67.9761 60.5206 80.9516 53.6927C87.2453 50.3809 94.6929 45.3885 100.273 38.5391C103.977 33.9922 97.9036 33.1279 95.15 33.1279C91.2337 33.1279 78.8296 32.5619 87.5 32.5619C91.0231 32.5619 100.693 34.3876 103.854 32.5619C107.233 30.6099 102.112 38.648 101.605 40.1386C100.007 44.8379 99.5 51.6979 99.5 57.5" stroke="#FFC550" stroke-width="5" stroke-linecap="round"/>
</svg>