<svg width="24" height="21" viewBox="0 0 24 21" fill="none" xmlns="http://www.w3.org/2000/svg">
<path d="M11.651 5.1123C11.651 5.1123 10.7197 9.43535 9.65545 10.3685L10.8526 13.0958H14.2493L14.1831 14.9579H10.8526L10.4533 19.5473H9.52257L10.0541 15.1575L9.58813 14.8917L9.52198 13.3615L8.19141 10.6348L11.651 5.1123Z" fill="#00B7AB"/>
<path d="M12.5483 3.82484L12.5447 3.81657C12.5026 3.71103 12.4298 3.62055 12.3358 3.5568C12.2417 3.49306 12.1307 3.45898 12.017 3.45898C11.9034 3.45898 11.7924 3.49306 11.6983 3.5568C11.6043 3.62055 11.5315 3.71103 11.4894 3.81657C11.4881 3.81923 11.4871 3.822 11.4864 3.82484C11.1321 4.78335 9.81093 8.06638 7.85788 10.0667C7.77266 10.1531 7.71756 10.2647 7.70075 10.3849C7.68394 10.5051 7.70632 10.6275 7.76457 10.734L9.09161 13.2068C9.07795 13.2669 9.07102 13.3283 9.07093 13.3899V14.6614C9.07093 14.9567 9.22094 15.1929 9.43887 15.2744L9.20263 19.6542C9.19676 19.7638 9.23468 19.8713 9.30806 19.953C9.38143 20.0346 9.48425 20.0838 9.59389 20.0897C9.70354 20.0956 9.81102 20.0577 9.8927 19.9843C9.97438 19.9109 10.0236 19.8081 10.0294 19.6984V19.676L10.2657 15.3057H13.6946L14.0058 19.676V19.7055C14.0133 19.81 14.0601 19.9077 14.1369 19.9789C14.2136 20.0502 14.3145 20.0897 14.4192 20.0894C14.4293 20.09 14.4393 20.09 14.4493 20.0894C14.5587 20.0815 14.6604 20.0306 14.7321 19.9478C14.8039 19.8649 14.8398 19.757 14.832 19.6477L14.522 15.2963C14.7807 15.2484 14.9667 14.9921 14.9667 14.6626V13.3899C14.9668 13.3293 14.96 13.2688 14.9466 13.2097L16.2736 10.7329C16.3309 10.6265 16.3527 10.5047 16.3357 10.3851C16.3187 10.2655 16.2638 10.1546 16.1792 10.0684C14.2905 8.1343 13.0107 5.05797 12.5483 3.82484ZM9.89538 14.4765V13.5741H14.1381V14.4765H9.89538ZM14.2545 12.7467H9.7814L8.57957 10.5084C9.20382 9.83931 10.4299 8.32329 11.6033 5.71588V9.28416C11.3565 9.38053 11.151 9.56013 11.0225 9.79191C10.894 10.0237 10.8505 10.2931 10.8995 10.5535C10.9485 10.814 11.087 11.0491 11.291 11.2183C11.495 11.3875 11.7517 11.4801 12.0167 11.4801C12.2818 11.4801 12.5385 11.3875 12.7425 11.2183C12.9465 11.0491 13.085 10.814 13.134 10.5535C13.183 10.2931 13.1395 10.0237 13.011 9.79191C12.8825 9.56013 12.677 9.38053 12.4302 9.28416V5.70052C13.0916 7.16339 14.1192 9.08573 15.4539 10.5084L14.2545 12.7467ZM12.3268 10.3425C12.3268 10.4038 12.3086 10.4637 12.2745 10.5147C12.2405 10.5657 12.1921 10.6055 12.1354 10.6289C12.0787 10.6524 12.0164 10.6585 11.9563 10.6466C11.8961 10.6346 11.8409 10.6051 11.7975 10.5617C11.7541 10.5184 11.7246 10.4631 11.7127 10.403C11.7007 10.3428 11.7068 10.2805 11.7303 10.2238C11.7538 10.1672 11.7935 10.1187 11.8445 10.0847C11.8955 10.0506 11.9554 10.0324 12.0167 10.0324C12.0989 10.0326 12.1777 10.0653 12.2358 10.1234C12.2939 10.1815 12.3266 10.2603 12.3268 10.3425Z" fill="#0B0B1D"/>
<path d="M23.1996 11.1629H22.7661C22.6946 10.2883 22.4247 8.30216 21.4119 6.30128C20.6258 4.74746 19.5551 3.51256 18.2281 2.62964C17.6783 2.26532 17.0901 1.96269 16.474 1.72724H20.1085C20.2116 1.98905 20.4035 2.20622 20.6507 2.34071C20.8979 2.47519 21.1845 2.5184 21.4603 2.46277C21.7361 2.40713 21.9836 2.25621 22.1593 2.03643C22.335 1.81666 22.4278 1.54206 22.4214 1.26075C22.4149 0.97944 22.3097 0.709364 22.1242 0.497849C21.9386 0.286334 21.6845 0.146872 21.4064 0.103901C21.1283 0.0609305 20.844 0.117191 20.6032 0.262826C20.3624 0.40846 20.1806 0.634178 20.0896 0.900427H13.3511V0.766365C13.3511 0.642626 13.3019 0.523956 13.2144 0.436459C13.1269 0.348962 13.0082 0.299807 12.8845 0.299807H11.385C11.2613 0.299807 11.1426 0.348962 11.0551 0.436459C10.9676 0.523956 10.9185 0.642626 10.9185 0.766365V0.900427H4.03939C3.9423 0.636144 3.7553 0.414462 3.51115 0.274233C3.267 0.134005 2.98129 0.0841766 2.70409 0.133482C2.42689 0.182787 2.17589 0.32808 1.99507 0.543896C1.81426 0.759712 1.71516 1.03228 1.71516 1.31383C1.71516 1.59538 1.81426 1.86795 1.99507 2.08377C2.17589 2.29959 2.42689 2.44488 2.70409 2.49418C2.98129 2.54349 3.267 2.49366 3.51115 2.35343C3.7553 2.2132 3.9423 1.99152 4.03939 1.72724H8.04824C7.37446 1.98029 6.73296 2.31214 6.13713 2.71587C4.82781 3.60705 3.77481 4.83841 2.99878 6.37746C1.98476 8.39311 1.7314 10.381 1.66821 11.2167H1.25953C1.13579 11.2167 1.01712 11.2658 0.929621 11.3533C0.842124 11.4408 0.792969 11.5595 0.792969 11.6832V13.1827C0.793125 13.3064 0.84233 13.425 0.929793 13.5124C1.01726 13.5999 1.13584 13.6491 1.25953 13.6493H2.75901C2.88265 13.649 3.00114 13.5997 3.08857 13.5123C3.176 13.4248 3.22526 13.3064 3.22557 13.1827V11.6832C3.22541 11.5595 3.17621 11.441 3.08874 11.3535C3.00128 11.266 2.8827 11.2168 2.75901 11.2167H2.49915C2.56825 10.4094 2.8222 8.55906 3.75 6.72295C4.4587 5.31855 5.42548 4.19704 6.61549 3.39031C7.81792 2.5759 9.26129 2.07804 10.9185 1.90441V2.26585C10.9186 2.38954 10.9678 2.50812 11.0553 2.59558C11.1427 2.68304 11.2613 2.73225 11.385 2.7324H12.8845C13.0082 2.73225 13.1268 2.68304 13.2142 2.59558C13.3017 2.50812 13.3509 2.38954 13.3511 2.26585V1.87547C15.0478 2.01426 16.5278 2.49499 17.7568 3.30881C18.9622 4.10787 19.9419 5.23174 20.6618 6.64972C21.5879 8.46812 21.8572 10.3184 21.9345 11.1629H21.6983C21.5746 11.1631 21.456 11.2123 21.3686 11.2998C21.2811 11.3872 21.2319 11.5058 21.2318 11.6295V13.129C21.2321 13.2526 21.2813 13.3711 21.3688 13.4585C21.4562 13.546 21.5747 13.5952 21.6983 13.5955H23.1978C23.3215 13.5954 23.4401 13.5462 23.5275 13.4587C23.615 13.3712 23.6642 13.2527 23.6644 13.129V11.6295C23.6644 11.5061 23.6154 11.3877 23.5283 11.3002C23.4412 11.2128 23.323 11.1634 23.1996 11.1629ZM1.61978 12.0435H2.39876V12.8225H1.61978V12.0435ZM11.7453 1.90559V1.12898H12.5242V1.90796L11.7453 1.90559ZM21.595 1.28844C21.595 1.36203 21.5731 1.43396 21.5323 1.49515C21.4914 1.55633 21.4333 1.60402 21.3653 1.63218C21.2973 1.66034 21.2225 1.66771 21.1503 1.65335C21.0781 1.639 21.0118 1.60356 20.9598 1.55153C20.9078 1.49949 20.8723 1.4332 20.858 1.36102C20.8436 1.28885 20.851 1.21404 20.8792 1.14605C20.9073 1.07807 20.955 1.01996 21.0162 0.979077C21.0774 0.938194 21.1493 0.916373 21.2229 0.916373C21.3215 0.916529 21.4161 0.955778 21.4858 1.02552C21.5556 1.09526 21.5948 1.18981 21.595 1.28844ZM2.54345 1.31383C2.54345 1.24025 2.56527 1.16831 2.60615 1.10712C2.64703 1.04594 2.70514 0.99825 2.77313 0.970089C2.84112 0.941929 2.91593 0.93456 2.9881 0.948916C3.06027 0.963273 3.12657 0.998708 3.1786 1.05074C3.23064 1.10278 3.26607 1.16907 3.28043 1.24125C3.29478 1.31342 3.28742 1.38823 3.25926 1.45622C3.2311 1.5242 3.18341 1.58231 3.12222 1.62319C3.06103 1.66408 2.9891 1.6859 2.91551 1.6859C2.81688 1.68574 2.72234 1.64649 2.6526 1.57675C2.58285 1.50701 2.5436 1.41246 2.54345 1.31383ZM22.8393 12.7711H22.0603V11.9897H22.8393V12.7711Z" fill="#0B0B1D"/>
</svg>
